<!-- Creator: CorelDRAW 2021 (64-Bit) --><svg xmlns="http://www.w3.org/2000/svg" xmlns:xlink="http://www.w3.org/1999/xlink" xmlns:xodm="http://www.corel.com/coreldraw/odm/2003" xml:space="preserve" width="89.5053mm" height="24.8898mm" version="1.1" style="shape-rendering:geometricPrecision; text-rendering:geometricPrecision; image-rendering:optimizeQuality; fill-rule:evenodd; clip-rule:evenodd" viewBox="0 0 48709.2 13545.1"><defs><style type="text/css"><![CDATA[ .fil1 {fill:#6FA6D9;fill-rule:nonzero} .fil0 {fill:#0C54A0;fill-rule:nonzero} ]]></style></defs><g id="Ebene_x0020_1"><metadata id="CorelCorpID_0Corel-Layer"/><g id="_2927258336608"><path class="fil0" d="M-0 9648.5l2889 0c763.9,0 1427.7,-163.8 1898.2,-578.9 470.6,-414.7 758.9,-1085.1 759.7,-2126.2 -0.4,-1118.1 -269.6,-1797.2 -717.7,-2199.3 -448.1,-402.5 -1089.8,-537.7 -1855.4,-537.6l0 -0.2 -2973.9 0 0 1175.3 2009.9 0 508.9 0c381.7,-2 642.5,133.3 790,395.2 147.9,259.9 192.2,629.6 192.7,1110.8 -0.5,465.1 -41,830.7 -185.6,1090.8 -144.3,261.5 -403.5,401.6 -789.4,399.3l-573.9 0 0 -1926.4 -1952.7 0 0 3197z"/><polygon class="fil0" points="5971,9648.5 7923.4,9648.5 7923.4,7674.4 10356.3,7674.4 10356.3,6451.5 7923.4,6451.5 7923.4,5381.7 10356.3,5381.7 10356.3,4206.4 5971,4206.4 "/><path class="fil0" d="M11700.9 4797.4c-577.1,456.3 -941.5,1134.8 -942.3,2050.6 0.8,977.6 351.7,1696.1 920.5,2176.2 569.2,479.5 1361.5,720 2246,720 828.3,-0.5 1483,-83.8 2171.8,-288l0 -2511.3 -1659.2 0 0 1462.6 -36.7 14.3c-139.5,53.2 -313.5,51 -460.5,51.8 -427.9,1.1 -732.7,-177.7 -919.8,-455.1 -187.5,-276.9 -262.9,-645.9 -263.2,-1035.3 -0.4,-517.5 175.5,-923.1 487.1,-1194.2 311.2,-271.3 751.8,-407.2 1274.5,-407.2 534.4,0 955.5,120.2 1255,278.1l0 -1354c-493.5,-120.5 -869.2,-194.4 -1849,-194.8l-0.4 0c-853.4,0 -1646.8,230.6 -2223.9,686.5z"/><path class="fil0" d="M19073.9 6031.1l159 0c591.3,13.1 895,-268.5 910.4,-844.4 -4.5,-302.7 -80.7,-516.3 -228.3,-640.8 -150.3,-118.6 -337.1,-177.1 -559.8,-175.3l-281.2 0 0 1660.5zm-190.1 -1831.4l480 0c344.6,3.8 593.6,96.4 747.2,277.5 150.5,182.1 224.2,422.2 222.5,720.1 -3.5,357.7 -108.5,615.1 -314.7,771.8 -203.3,155.3 -468.7,232.7 -796.2,232.7l-338.9 0 0 -2002.2z"/><path class="fil0" d="M21659.2 5368.6c0,-134.6 -27.4,-252 -81.7,-352.5 -57,-101.6 -151.1,-154.1 -281.7,-157.8 -127.8,3.7 -228.6,57.4 -303.3,160.4 -76,104.5 -114,220.9 -114,349.9l780.8 0zm84.7 787.8c-132.7,52 -269.9,78.7 -410.8,80.7 -231.7,-4.7 -398,-78.4 -498.4,-221.4 -99.5,-140.1 -148.6,-321.7 -146.7,-545.1 2,-228 57.4,-412.5 166.9,-553.5 105.8,-140 249.4,-211.1 430.2,-212.9 197.9,3.8 342.7,75.8 434.1,215.8 86.8,137.4 130.2,307.3 130.2,510l0 92.4 -970.9 0c0,159.3 39.7,290.4 119.6,393.4 77.7,109.9 193.9,165.3 347.6,167.2 69,0 141.3,-12.5 217.5,-37.9 76,-20.6 136.5,-44.4 180.7,-71.6l0 183z"/><path class="fil0" d="M23333.1 5857.5c-1.9,111 1.7,225.7 11.9,344.4l-169.5 0 0 -260.5 -5.6 0c-12.6,31.7 -30.3,64 -52.8,96.6 -21.9,34.7 -50.3,67.3 -85.6,98 -35.2,28.9 -78.7,51.8 -131.2,68.6 -51.8,21.4 -114.4,32.3 -188.7,32.3 -171.6,-1.9 -295.5,-55.5 -371.1,-161.2 -76.2,-103.5 -113.2,-237.7 -111.3,-401.9l0 -934.6 173.5 0 0 889.2c0,140.2 26.7,249.7 80.3,328.3 52.4,84.1 138.1,126.1 256.9,126.1 79.5,0 146.9,-17.3 202,-51.8 56.3,-32.8 99.1,-74.8 128.1,-126.4 33.3,-53.2 56.5,-110.6 69.3,-172.5 13.4,-60.8 20.1,-121.9 20.1,-183.8l0 -809.3 173.8 0 0 1118.3z"/><path class="fil0" d="M24434.3 4893.1l-322.1 0 0 948.7c0,67.2 14.6,123.8 44.7,169.7 27.3,47.8 75.3,71.4 144.4,71.4 63.3,0 117.3,-11.6 161.5,-34.9l10.9 148.7c-20.6,7.2 -49.6,15.7 -86.6,24.9 -39,10.1 -81.4,15.4 -127.5,15.4 -75.8,0 -135.7,-13.5 -180.1,-40.7 -42.6,-27.2 -74.5,-62.5 -96.4,-106.5 -18.6,-45.8 -31.1,-97.1 -36.3,-154.1 -5.6,-58 -8.2,-120.6 -8.2,-187.7l0 -854.9 -277.8 0 0 -153.9 277.8 0 0 -353 173.5 -63 0 416 322.1 0 0 153.9z"/><path class="fil0" d="M24672.1 5990.3c107.7,60 230.2,90.7 368.6,92.6 87.7,0 161.7,-23.6 222.3,-71.4 59.7,-44.1 90.4,-107.1 92.4,-189.3 -1.9,-87 -36.5,-155.3 -103.1,-205 -67.2,-47.6 -145.9,-90.5 -236.3,-129 -42.2,-20.6 -83.1,-42.4 -121.9,-66 -39,-23.2 -76,-48.9 -111.3,-76.8 -31.5,-31.1 -57.6,-66.5 -78.7,-106.9 -19.8,-38.3 -29.6,-83 -29.6,-134.6 1.9,-145.9 49.5,-249 143.6,-309.9 91.2,-59.9 196.8,-89.8 317.2,-89.8 40.5,0 93.5,3.8 158.6,11.2 64.1,11.1 127.7,29.3 191,54.2l-16.1 157.3c-102.5,-43.9 -207.3,-66.7 -315.5,-68.6 -90.4,0 -162.4,16.8 -215.9,50.4 -27.6,17.7 -49.6,42.1 -64.9,72.9 -16.5,30 -24.8,70.1 -24.8,120.8 0,29.8 10.6,58.5 31.5,85.5 20,25.1 46.6,48 79.8,68.6 33.8,19.7 71.6,39.7 114.1,60.4 42.8,19.8 84.5,40.7 124.8,63 92.7,40.5 172.9,94.1 241.9,161.5 68.7,67.3 103.8,160.2 105.8,279.1 0,76.7 -15,140.6 -44.6,192.2 -31.5,53.3 -71.2,96.2 -119.2,129 -103.8,63.5 -213.8,95.4 -330.4,95.4 -136.1,0 -268.2,-23.3 -395.3,-69.4l16.2 -177.4z"/><path class="fil0" d="M26818.8 4932.7c-100.6,-47.8 -201.7,-72.6 -304.1,-74.4 -170.3,1.9 -300.5,58.1 -391.1,168.3 -94.8,113.5 -142.4,261.3 -142.4,444 0,170.4 46.8,313.3 139.8,428.5 90.8,120.9 215.6,182 375,183.9 109.6,0 215.9,-21.9 320.2,-66l16.1 168.8c-114.6,36 -235.7,53.2 -363.2,51.4 -227.7,-4.7 -397.6,-82.1 -508.6,-232.5 -113.3,-147.8 -169.5,-325.7 -169.5,-534 1.9,-231.7 66.4,-416.2 193.9,-553.5 126.7,-140 295.1,-211.1 505.8,-212.9 87,0 159,6.6 217.1,19.5 29.6,5.6 55.5,11.6 77.2,18 20.5,7.5 36.6,13.9 47.2,19.5l-13.4 171.6z"/><path class="fil0" d="M27170.9 4049.8l173.5 0 0 934.8 5.2 0c39.1,-81.8 96.4,-149.7 172.6,-203.6 75.6,-49.5 165.3,-75 268.4,-76.8 189.1,1.9 317.7,59.4 386.7,172.5 66.8,114.7 99.4,264.8 97.5,449.6l0 875.7 -173.5 0 0 -873.9c0,-64.5 -3.5,-125.8 -10.9,-183.7 -7.9,-55.1 -24,-103.9 -47.6,-145.9 -44.4,-91.6 -137.2,-138.3 -278.2,-140.2 -152.2,3.7 -261.1,64.1 -326.4,180.9 -64.5,116.7 -95.6,243.1 -93.7,378.7l0 784 -173.5 0 0 -2152.2z"/><path class="fil0" d="M29631 5368.6c0,-134.6 -26.9,-252 -81.4,-352.5 -57.3,-101.6 -151.1,-154.1 -281.5,-157.8 -127.9,3.7 -229.2,57.4 -303.3,160.4 -76.2,104.5 -114.4,220.9 -114.4,349.9l780.6 0zm85.3 787.8c-133.3,52 -270.1,78.7 -411.4,80.7 -231.7,-4.7 -397.4,-78.4 -498,-221.4 -99.6,-140.1 -148.4,-321.7 -146.5,-545.1 1.7,-228 57.2,-412.5 166.8,-553.5 105.8,-140 249,-211.1 430.1,-212.9 197.9,3.8 342.7,75.8 433.8,215.8 87,137.4 130.4,307.3 130.4,510l0 92.4 -971.1 0c0,159.3 40.2,290.4 119.6,393.4 77.9,109.9 193.9,165.3 347.9,167.2 69.1,0 141.5,-12.5 217.5,-37.9 76.2,-20.6 136.5,-44.4 180.9,-71.6l0 183z"/><polygon class="fil0" points="18875.1,7643.1 19796.9,7643.1 19796.9,7813.9 19065.6,7813.9 19065.6,8530.1 19763.1,8530.1 19763.1,8700.6 19065.6,8700.6 19065.6,9645.2 18875.1,9645.2 "/><path class="fil0" d="M20235.5 8914c0,174 40.9,318 122.3,431.2 77.9,118.9 194,179.3 348.6,181.1 154.2,-1.9 271.8,-62.2 353.6,-181.1 77.9,-113.2 116.9,-257.2 116.9,-431.2 0,-175.1 -39,-320.9 -116.9,-436.9 -81.8,-115.1 -199.5,-173.6 -353.6,-175.5 -154.6,1.9 -270.6,60.4 -348.6,175.5 -81.4,116.1 -122.3,261.9 -122.3,436.9zm-190.4 0c0,-208.5 53.9,-386.3 161.5,-533.9 106.6,-151.3 272.9,-228.9 499.1,-232.7 229.4,3.8 398.2,81.4 505.9,232.7 103.8,147.5 155.9,325.3 155.9,533.9 0,204.4 -52,381.4 -155.9,531 -107.7,152.2 -276.5,230.6 -505.9,235.5 -226.2,-4.9 -392.5,-83.3 -499.1,-235.5 -107.5,-149.6 -161.5,-326.6 -161.5,-531z"/><path class="fil0" d="M21750.3 8508.9c0,-135.3 -3.6,-244.1 -10.8,-326.4l173.5 0 0 280.1 5.2 0c33.4,-85.9 80.7,-159.2 141.5,-220 59.5,-61.5 133.8,-93.3 222.3,-95.2 46.1,1.9 87,7.5 122.3,16.8l0 187.9c-39,-11.3 -81.4,-16.9 -127.5,-16.9 -69.1,1.9 -125.7,19.2 -169.9,51.9 -44.4,34.5 -80.7,81.4 -108.5,140.2 -26.5,58 -45,120.2 -55.9,186.5 -12.6,71.2 -19,140.2 -19,207.7l0 723.7 -173.3 0 0 -1136.3z"/><path class="fil0" d="M22597.1 9433.7c107.5,60 230.1,90.8 368.6,92.6 87.7,0 161.5,-24 222.3,-71.6 59.5,-43.9 90.2,-106.9 92.1,-189.4 -1.9,-86.9 -36.2,-155.2 -103.1,-204.7 -67.2,-47.5 -145.9,-90.7 -236.1,-128.9 -42.4,-20.7 -83.3,-42.7 -121.9,-66 -39,-23.2 -76.2,-49.1 -111.3,-77.3 -31.5,-30.7 -57.8,-66.3 -78.7,-106.4 -20,-38.3 -29.8,-83.2 -29.8,-134.8 2,-145.8 49.6,-249.1 143.6,-309.9 91.2,-59.9 197,-89.8 317.4,-89.8 40.5,0 93.3,3.8 158.6,11.3 64.1,11.1 127.5,29.2 190.8,54.2l-16.1 157.3c-102.4,-43.9 -207.3,-66.7 -315.4,-68.6 -90.2,0 -162.2,16.7 -216,50.5 -27.6,17.7 -49.4,42 -64.7,72.9 -16.5,30 -24.8,70.1 -24.8,120.6 0,30 10.3,58.3 31.5,85.8 19.8,25.1 46.4,48 79.8,68.6 33.8,19.6 71.6,39.8 114.1,60.5 42.6,19.4 84.2,40.5 124.8,63 92.5,40.1 172.8,94 241.9,161.2 68.5,67.5 103.8,160.5 105.6,279.3 0,76.6 -15,140.7 -44.6,191.9 -31.5,53.3 -71.2,96.5 -119.2,129.1 -103.9,63.7 -213.7,95.6 -330.4,95.6 -136.1,0 -268,-23.2 -395.1,-69.4l16.2 -177.3z"/><path class="fil0" d="M24743.7 8376c-100.4,-47.9 -201.8,-72.6 -304.1,-74.5 -170.1,1.9 -300.3,58 -391.1,168.6 -94.9,113.2 -142.5,261.3 -142.5,443.9 0,170.3 46.9,313 139.8,428.2 90.8,120.7 215.8,182.3 375.1,184.2 109.4,0 216,-22.1 320.3,-66l16.1 168.8c-114.8,36 -236,53.3 -363.4,51.4 -227.7,-4.9 -397.4,-82.5 -508.4,-232.9 -113.2,-147.3 -169.5,-325.5 -169.5,-533.6 2,-231.8 66.3,-416.1 194,-553.6 126.7,-140 295.1,-211.1 505.7,-213 87,0 159,6.6 217.1,19.5 29.6,5.7 55.5,11.6 77.2,18 20.7,7.5 36.8,13.9 47.4,19.5l-13.6 171.6z"/><path class="fil0" d="M25095.8 7493.1l173.7 0 0 934.8 5.2 0c39,-81.9 96.4,-149.8 172.4,-203.6 75.9,-49.3 165.5,-75 268.6,-76.9 188.9,1.9 317.5,59.5 386.4,172.5 66.8,114.7 99.5,264.7 97.5,449.7l0 875.5 -173.5 0 0 -873.7c0,-64.5 -3.4,-126 -10.9,-183.9 -7.9,-55.1 -24,-103.8 -47.6,-145.8 -44.1,-91.6 -137.2,-138.3 -278.2,-140.2 -152.2,3.8 -260.9,64 -326.1,180.9 -64.5,116.8 -95.6,243.3 -93.7,378.7l0 784 -173.7 0 0 -2152.1z"/><path class="fil0" d="M27795.6 9300.5c-2,111.5 1.9,226.2 11.9,344.6l-169.5 0 0 -260.2 -5.6 0c-12.7,31.5 -30.3,63.7 -52.8,96.3 -21.9,34.5 -50.3,67.6 -85.6,98.3 -35.2,28.9 -78.7,51.8 -131.2,68.7 -51.8,21.3 -114.4,32.2 -188.7,32.2 -171.6,-1.9 -295.4,-55.9 -371.1,-161.2 -76.2,-103.8 -113.2,-237.8 -111.3,-401.9l0 -934.7 173.5 0 0 889.3c0,140.3 26.7,249.8 80.3,328.2 52.4,84.4 138,126.4 256.9,126.4 79.5,0 147,-17.3 202.2,-51.7 56.2,-33 98.8,-75 127.8,-126.4 33.2,-53.3 56.7,-111 69.3,-172.6 13.4,-60.7 20.1,-122.2 20.1,-183.6l0 -809.5 173.8 0 0 1118z"/><path class="fil0" d="M28287.5 8525.6c0,-112 -3.3,-226.3 -10.8,-343.1l169.4 0 0 260.4 5.4 0c16.1,-34.5 35.5,-69 58,-103.5 21.9,-34.7 49.5,-65.8 82.9,-93.9 35.3,-30.7 78.3,-55.1 130.2,-72.8 52,-16.9 114,-25.4 185.2,-25.4 174.3,1.9 299.5,55.7 375.3,161.2 72.4,102.7 108.3,236.2 108.3,400.6l0 935.9 -173.5 0 0 -890.5c0,-139.5 -24.8,-250.2 -74.7,-332.5 -54.3,-78.6 -141.7,-118.7 -262,-120.6 -155.9,3.8 -265.5,60.7 -328.9,171 -32.7,52.5 -55.9,109.1 -69.3,170 -14.6,63.4 -21.7,127.9 -21.7,193.5l0 809.2 -173.8 0 0 -1119.5z"/><path class="fil0" d="M29989.4 8914c-1.7,149.7 29.3,280.9 93.9,393.4 63.7,118.8 168.8,180.3 315.6,184.1 158,-3.8 270.1,-67.1 336.4,-189.7 63.3,-118.9 95.2,-248.3 95.2,-387.7 0,-182.6 -29.6,-329.7 -88.5,-441.1 -61.8,-112.5 -172.4,-169.5 -332.2,-171.4 -83.3,0 -151.5,18.2 -204.1,54.7 -53.5,33.7 -96.9,81.4 -130.3,143.2 -30.1,57.3 -52.2,122.4 -66.8,195.2 -12.6,73 -19.2,146.2 -19.2,219.3zm1014.4 610.9c0,208.4 -48.8,382.5 -146.7,522.7 -101.9,140.9 -274.6,213.4 -516.6,217.1 -93.1,-1.9 -178.6,-12 -256.5,-30.7 -75.9,-19.5 -133.6,-34.9 -172.2,-46.2l15 -179.5c116.7,64.5 255.7,98.6 417,102.4 113.2,-1.9 202.2,-23 266.7,-63 66.8,-38.3 116.1,-91.9 148,-160.8 33.4,-69 54.7,-148.1 63.7,-237.8 7.5,-89.6 10.9,-186.1 10.9,-289.9l-5.6 0c-100.2,194.7 -243.8,289.9 -430.2,286.1 -222.3,-5.6 -377.8,-87.8 -466.3,-246.4 -47.2,-73.1 -79.8,-151.5 -97.9,-235.4 -22.5,-84 -33.8,-167.2 -33.8,-249.4 -1.9,-228 43.6,-411.5 136.9,-550.7 92.4,-142 241.1,-213.9 446.6,-215.8 93.1,0 174.7,10.7 245.4,32.1 67.8,26 133.4,81.5 196.8,166.9l5.6 0 0 -164.2 173.3 0.4 0 1342.3z"/><path class="fil0" d="M31370.5 9433.7c107.5,60 230.2,90.8 368.6,92.6 87.7,0 161.6,-24 222.3,-71.6 59.7,-43.9 90.4,-106.9 92.1,-189.4 -1.7,-86.9 -36.2,-155.2 -103.1,-204.7 -67,-47.5 -145.7,-90.7 -236.1,-128.9 -42.4,-20.7 -83.3,-42.7 -121.9,-66 -39,-23.2 -76,-49.1 -111.4,-77.3 -31.5,-30.7 -57.7,-66.3 -78.7,-106.4 -20,-38.3 -29.6,-83.2 -29.6,-134.8 1.7,-145.8 49.3,-249.1 143.6,-309.9 91,-59.9 196.8,-89.8 317.1,-89.8 40.5,0 93.3,3.8 158.6,11.3 64.2,11.1 127.5,29.2 190.9,54.2l-16.1 157.3c-102.4,-43.9 -207.3,-66.7 -315.3,-68.6 -90.4,0 -162.4,16.7 -216,50.5 -27.8,17.7 -49.5,42 -64.9,72.9 -16.5,30 -24.8,70.1 -24.8,120.6 0,30 10.6,58.3 31.5,85.8 19.8,25.1 46.5,48 79.9,68.6 33.8,19.6 71.6,39.8 114,60.5 42.7,19.4 84.3,40.5 124.8,63 92.7,40.1 172.9,94 241.9,161.2 68.5,67.5 103.8,160.5 105.7,279.3 0,76.6 -15,140.7 -44.7,191.9 -31.5,53.3 -71.2,96.5 -119.2,129.1 -103.9,63.7 -213.7,95.6 -330.4,95.6 -136.1,0 -268,-23.2 -395.1,-69.4l16.1 -177.3z"/><path class="fil0" d="M32702 8914c-1.7,149.7 29.3,280.9 93.9,393.4 63.7,118.8 168.8,180.3 315.6,184.1 157.8,-3.8 269.9,-67.1 336.4,-189.7 63.3,-118.9 95.2,-248.3 95.2,-387.7 0,-182.6 -29.6,-329.7 -88.5,-441.1 -61.8,-112.5 -172.4,-169.5 -332.2,-171.4 -83.3,0 -151.5,18.2 -204.1,54.7 -53.5,33.7 -97.1,81.4 -130.3,143.2 -30.1,57.3 -52.2,122.4 -66.8,195.2 -12.6,73 -19.2,146.2 -19.2,219.3zm1014.4 610.9c0,208.4 -48.8,382.5 -146.7,522.7 -101.9,140.9 -274.6,213.4 -516.6,217.1 -93.1,-1.9 -178.6,-12 -256.5,-30.7 -75.9,-19.5 -133.7,-34.9 -172.2,-46.2l15 -179.5c116.7,64.5 255.7,98.6 417,102.4 113.2,-1.9 202.2,-23 266.7,-63 66.6,-38.3 116.1,-91.9 148,-160.8 33.4,-69 54.7,-148.1 63.7,-237.8 7.5,-89.6 10.9,-186.1 10.9,-289.9l-5.6 0c-100.2,194.7 -243.8,289.9 -430.2,286.1 -222.3,-5.6 -377.8,-87.8 -466.3,-246.4 -47.2,-73.1 -79.8,-151.5 -97.9,-235.4 -22.5,-84 -33.8,-167.2 -33.8,-249.4 -1.9,-228 43.6,-411.5 136.9,-550.7 92.4,-142 241.1,-213.9 446.6,-215.8 93.1,0 174.7,10.7 245.4,32.1 67.8,26 133.4,81.5 196.8,166.9l5.6 0 0 -164.2 173.3 0.4 0 1342.3z"/><path class="fil0" d="M35056 8811.6c0,-134.3 -27,-251.7 -81.4,-352.2 -57.4,-101.6 -151.1,-154.1 -281.6,-157.9 -127.8,3.8 -229,57.2 -303.3,160.7 -76,104.3 -114.2,220.7 -114.2,349.4l780.6 0zm85.1 788.1c-133.1,51.8 -269.9,78.9 -411.2,80.7 -231.7,-4.9 -397.4,-78.7 -498.1,-221.6 -99.6,-140 -148.4,-321.7 -146.7,-544.9 2,-228 57.4,-412.3 167,-553.6 105.6,-140 248.8,-211.1 430.1,-213 197.9,3.8 342.7,75.8 433.8,215.8 87,137.2 130.4,307.4 130.4,509.9l0 92.6 -971.1 0c0,159 40.2,290.2 119.6,393.3 77.9,109.5 193.9,165.4 347.9,167.3 69.1,0 141.5,-12.7 217.5,-37.9 76.2,-20.7 136.5,-44.7 180.7,-71.6l0 182.9z"/><path class="fil0" d="M37365 9645.2l0 -973.5c0,-53.9 -3.6,-104.1 -11.2,-150 -11.7,-43.9 -29.9,-82.3 -55.5,-114.9 -22.5,-33.7 -54,-60.4 -94.9,-80.1 -40.5,-16.7 -91.2,-25.1 -151.5,-25.1 -101.8,0 -192.4,42 -271.5,126.2 -81.4,87.9 -123,224.1 -124.9,408.3l0 809.2 -173.2 0 0 -973.5c0,-53.9 -4.6,-104.1 -12.9,-150 -11.1,-43.9 -29.9,-82.3 -55.1,-114.9 -22.9,-33.7 -54.4,-60.4 -94.9,-80.1 -40.9,-16.7 -91,-25.1 -151.5,-25.1 -102,0 -192.8,42 -271.9,126.2 -81.4,87.9 -122.7,224.1 -124.4,408.3l0 809.2 -174.1 0 0 -1119.4c0,-112.2 -3.3,-226.5 -10.8,-343.3l174.7 0 0 246.7 5.2 2.6c13.2,-27 31.5,-56.8 54.7,-89.6 18.4,-32.6 45.1,-63 79.5,-91.1 34.6,-28.9 77.3,-54.2 128.2,-75.6 51.5,-18.8 115.2,-28.1 191.4,-28.1 34.4,0 72,3.8 111.7,11.3 38.2,7.5 76.4,22.9 114.7,46.1 37.8,21.4 71.6,52.1 100.6,92.1 27.6,41.7 48,94.9 59.9,159.1l5.6 0c36.1,-87.5 94.6,-160.5 174.5,-219.2 78.3,-57.7 175.5,-87.6 291.6,-89.5 148.2,1.9 262.1,47.6 341.9,137.5 78.5,88.7 117.5,206.4 117.5,353.1l0 1007.2 -173.7 0z"/><path class="fil0" d="M38881.1 8811.6c0,-134.3 -27.5,-251.7 -81.8,-352.2 -57,-101.6 -151.1,-154.1 -281.6,-157.9 -127.9,3.8 -228.7,57.2 -303.3,160.7 -76,104.3 -113.8,220.7 -113.8,349.4l780.6 0zm84.6 788.1c-132.6,51.8 -269.9,78.9 -410.8,80.7 -231.7,-4.9 -398,-78.7 -498.4,-221.6 -99.5,-140 -148.4,-321.7 -146.7,-544.9 1.9,-228 57.4,-412.3 166.8,-553.6 105.8,-140 249.4,-211.1 430.2,-213 197.9,3.8 342.7,75.8 434.1,215.8 86.8,137.2 130.2,307.4 130.2,509.9l0 92.6 -970.6 0c0,159 39.7,290.2 119.6,393.3 77.5,109.5 193.7,165.4 347.5,167.3 68.9,0 141.3,-12.7 217.5,-37.9 76,-20.7 136.5,-44.7 180.6,-71.6l0 182.9z"/><path class="fil0" d="M39451.4 8182.5l173.2 0 0 1462.7 -173.2 0 0 -1462.7zm173.2 -390.9l-173.2 0 0 -240.8 173.2 0 0 240.8z"/><path class="fil0" d="M40088.8 8525.6c0,-112 -3.9,-226.3 -10.9,-343.1l169.1 0 0 260.4 5.6 0c16.1,-34.5 35.7,-69 58.2,-103.5 21.7,-34.7 49.1,-65.8 82.6,-93.9 35.2,-30.7 78.7,-55.1 130.2,-72.8 52.4,-16.9 114.2,-25.4 185.5,-25.4 174.5,1.9 299.3,55.7 375.1,161.2 72.2,102.7 108.3,236.2 108.3,400.6l0 935.9 -173.2 0 0 -890.5c0,-139.5 -25.2,-250.2 -75.1,-332.5 -54.3,-78.6 -141.7,-118.7 -262,-120.6 -155.7,3.8 -265.5,60.7 -328.9,171 -32.7,52.5 -55.5,109.1 -69.3,170 -14.4,63.4 -21.9,127.9 -21.9,193.5l0 809.2 -173.2 0 0 -1119.5z"/><path class="fil0" d="M41575.9 9433.7c107.7,60 230.2,90.8 368.6,92.6 87.8,0 161.7,-24 222.4,-71.6 59.7,-43.9 90.4,-106.9 92.3,-189.4 -1.9,-86.9 -36.5,-155.2 -103.1,-204.7 -67.2,-47.5 -145.9,-90.7 -236.3,-128.9 -42.4,-20.7 -83.3,-42.7 -121.9,-66 -39,-23.2 -76,-49.1 -111.3,-77.3 -31.5,-30.7 -57.8,-66.3 -78.7,-106.4 -19.8,-38.3 -29.6,-83.2 -29.6,-134.8 2,-145.8 49.6,-249.1 143.6,-309.9 91,-59.9 196.8,-89.8 317.2,-89.8 40.5,0 93.3,3.8 158.6,11.3 64.1,11.1 127.5,29.2 190.9,54.2l-16.2 157.3c-102.3,-43.9 -207.3,-66.7 -315.2,-68.6 -90.4,0 -162.4,16.7 -216,50.5 -27.9,17.7 -49.5,42 -64.9,72.9 -16.5,30 -24.8,70.1 -24.8,120.6 0,30 10.6,58.3 31.5,85.8 20,25.1 46.5,48 79.9,68.6 33.7,19.6 71.6,39.8 114,60.5 42.8,19.4 84.3,40.5 124.8,63 92.7,40.1 173,94 241.9,161.2 68.7,67.5 103.9,160.5 105.8,279.3 0,76.6 -15,140.7 -44.7,191.9 -31.5,53.3 -71.2,96.5 -119.2,129.1 -103.8,63.7 -213.7,95.6 -330.2,95.6 -136.1,0 -268.2,-23.2 -395.3,-69.4l16.1 -177.3z"/><path class="fil0" d="M43722.7 8376c-100.6,-47.9 -201.8,-72.6 -304.1,-74.5 -170.3,1.9 -300.5,58 -391.1,168.6 -95.1,113.2 -142.7,261.3 -142.7,443.9 0,170.3 47.1,313 140,428.2 90.8,120.7 215.6,182.3 375,184.2 109.4,0 216,-22.1 320.2,-66l16.2 168.8c-114.8,36 -236,53.3 -363.4,51.4 -227.5,-4.9 -397.4,-82.5 -508.4,-232.9 -113.2,-147.3 -169.5,-325.5 -169.5,-533.6 1.9,-231.8 66.4,-416.1 193.9,-553.6 126.7,-140 295.1,-211.1 505.9,-213 87,0 159,6.6 217.1,19.5 29.6,5.7 55.5,11.6 77.2,18 20.5,7.5 36.7,13.9 47.2,19.5l-13.4 171.6z"/><path class="fil0" d="M44074.8 7493.1l173.2 0 0 934.8 5.6 0c39,-81.9 96.4,-149.8 172.2,-203.6 76,-49.3 165.3,-75 268.4,-76.9 189.1,1.9 317.9,59.5 386.7,172.5 67.2,114.7 99.3,264.7 97.5,449.7l0 875.5 -173.3 0 0 -873.7c0,-64.5 -3.6,-126 -10.8,-183.9 -8.3,-55.1 -24,-103.8 -47.6,-145.8 -44.4,-91.6 -137.2,-138.3 -278.6,-140.2 -152.2,3.8 -261.1,64 -326.4,180.9 -64.1,116.8 -95.6,243.3 -93.7,378.7l0 784 -173.2 0 0 -2152.1z"/><path class="fil0" d="M46467.8 8908l-50.3 0c-76.2,0 -152.2,2.2 -228.5,6 -79.8,7.1 -152.2,23.7 -217.3,49.1 -65.3,22.6 -117.5,57.4 -156.5,105.4 -42.8,48.8 -63.7,113.2 -63.7,193.9 0,93.3 29.6,160.4 89.7,200.5 55.1,42.4 123.6,63.5 205,63.5 102.4,0 183,-21.1 241.9,-63.5 58.2,-40.1 100,-87.6 126.4,-143.2 27.4,-60 42.8,-118.4 46.4,-175.4 4.6,-60 6.9,-109.2 6.9,-147.4l0 -88.9zm15.9 503.2l-5.6 0c-40.5,85.5 -103.1,151.1 -187,196.4 -83.3,46.5 -171,71 -263.4,72.8 -98.5,-1.9 -178,-18.4 -238.9,-49.1 -63.3,-28.9 -111.7,-65.4 -145.1,-109.2 -58.7,-94.8 -86.6,-180 -82.7,-254.5 0,-122.3 28.4,-218.6 85.4,-289.6 56.2,-70.7 127.5,-121.5 214.4,-152.6 87,-31.4 181.6,-52.4 283.6,-62.5 100.4,-5.7 196.8,-8.7 289.1,-8.7l34.2 0 0 -74.6c5.6,-252.1 -102.5,-378.1 -323.6,-378.1 -146.7,-1.9 -285.7,38.5 -417,121.4l0 -175.5c131.3,-62.9 269.9,-96.2 416.2,-100 335.6,-3.5 501.3,178 497.6,545l0 646.1c-2.7,110.9 2.3,213.3 14.6,306.7l-171.9 0 0 -234z"/><path class="fil0" d="M47224.4 8336.6l-286 0 0 -154.1 286 0 0 -106.5c0,-78.4 3.3,-155 10.9,-229.7 3.3,-72.9 17.5,-137.7 41.9,-194.7 23.2,-59.9 61.2,-106.9 113.6,-141.6 49.5,-33.5 118.9,-50.4 207.3,-50.4 29.6,0 60.5,0.9 92,2.8 31.8,5.6 55.4,14.1 71.9,25.1l-10.9 158.2c-39,-21.3 -85,-32.2 -138.8,-32.2 -58,0 -101.9,13.7 -131.5,40.7 -31.8,30.9 -53.2,68.2 -64.1,112.1 -10.9,43.9 -16.1,90.8 -16.1,140.2 -1.9,51.4 -3.1,100.9 -3.1,148.5l0 127.5 319.4 0 0 154.1 -319.4 0 0 1308.5 -173.2 0 0 -1308.5z"/><path class="fil0" d="M48669.8 8336.6l-322.2 0 0 948.2c0,67.5 14.8,124.1 44.7,169.8 27.3,47.6 75.3,71.6 144.4,71.6 63.3,0 117.3,-11.6 161.7,-35.3l10.7 148.9c-20.5,7.5 -49.5,15.7 -86.6,25.1 -39,10.2 -81.4,15.4 -127.5,15.4 -75.6,0 -135.7,-13.6 -179.9,-40.9 -42.8,-27 -74.7,-62.6 -96.4,-106.5 -18.8,-45.7 -31.3,-97.1 -36.5,-154.2 -5.6,-57.7 -8.3,-120.3 -8.3,-187.4l0 -854.8 -277.8 0 0 -154.1 277.8 0 0 -353.1 173.5 -63 0 416 322.2 0 0 154.1z"/><path class="fil1" d="M19866 12848l-333.7 0 0 -126.7 473.1 0 0 732.8c-141.5,61.2 -289.4,92.9 -443.5,90.8 -226,-4.2 -401.2,-74 -528,-211.2 -126.7,-137.2 -192.2,-321 -192.2,-551.2 2.1,-228.1 65.5,-411.8 194.3,-551.2 126.7,-137.3 302,-209.1 525.9,-211.2 59.1,0 124.6,4.2 198.5,14.8 71.8,10.6 133.1,29.6 183.7,54.9l-16.9 135.1c-54.9,-31.7 -114,-52.8 -175.3,-65.5 -63.3,-8.4 -126.7,-12.7 -190,-12.7 -185.8,2.1 -329.5,63.4 -428.7,179.5 -101.4,116.1 -152.1,268.2 -152.1,456.2 0,188 50.7,340 149.9,456.2 99.3,118.3 242.9,177.4 430.8,179.5 48.5,0 103.5,-4.2 162.6,-12.7 59.1,-6.3 105.6,-19 141.5,-40.1l0 -517.4zm1231.2 637.8c-99.3,38 -198.5,57 -304.1,59.2 -169,-4.2 -291.4,-57 -365.3,-162.6 -73.9,-103.5 -109.8,-236.6 -107.7,-401.2 2.1,-166.9 42.2,-304.1 122.4,-407.6 78.1,-103.5 183.7,-154.2 316.8,-156.3 145.7,2.1 251.3,54.9 318.8,158.4 63.4,101.4 95.1,226 95.1,375.9l0 67.6 -713.8 0c0,116.1 29.6,213.3 88.7,289.3 57,80.3 141.5,120.4 255.6,122.5 50.7,0 103.5,-8.4 160.5,-27.4 54.9,-14.8 99.3,-33.8 133.1,-52.8l0 135.1zm-63.3 -580.7c0,-99.3 -19,-183.8 -59.2,-257.7 -42.2,-76 -111.9,-114 -209.1,-116.1 -92.9,2.1 -166.8,42.2 -221.7,118.3 -57,76 -84.5,160.5 -84.5,255.6l574.5 0zm418.1 -221.8c0,-99.3 -2.1,-179.5 -8.4,-240.8l128.8 0 0 207 4.2 0c25.3,-63.3 59.1,-118.3 103.5,-162.6 44.4,-44.4 99.3,-67.6 164.7,-69.7 33.8,2.1 63.3,6.4 88.7,12.7l0 137.3c-27.5,-8.5 -59.2,-12.7 -93,-12.7 -50.7,2.1 -92.9,14.7 -124.6,38 -33.8,25.4 -59.2,59.2 -80.3,103.5 -19,42.2 -33.8,88.7 -40.1,137.2 -10.6,52.8 -14.8,103.5 -14.8,152.1l0 534.3 -128.8 0 0 -836.3zm1985.1 836.3l0 -715.9c0,-40.1 -2.1,-76 -8.4,-109.8 -8.4,-33.8 -21.1,-61.2 -40.1,-84.5 -16.9,-25.4 -40.2,-44.4 -69.7,-59.2 -29.6,-12.7 -67.6,-19 -111.9,-19 -73.9,0 -141.5,31.7 -200.6,92.9 -59.2,63.4 -88.7,164.7 -90.8,299.9l0 595.5 -128.8 0 0 -715.9c0,-40.1 -2.1,-76 -8.4,-109.8 -8.4,-33.8 -23.2,-61.2 -42.2,-84.5 -14.8,-25.4 -38,-44.4 -69.7,-59.2 -29.6,-12.7 -65.5,-19 -109.8,-19 -76,0 -141.5,31.7 -200.6,92.9 -59.2,63.4 -88.7,164.7 -90.8,299.9l0 595.5 -128.8 0 0 -823.6c0,-82.4 -2.1,-166.9 -8.4,-253.4l128.8 0 0 181.6 4.2 2.1c10.6,-21.1 23.2,-42.2 40.1,-65.5 12.7,-25.3 33.8,-46.4 59.1,-67.6 25.4,-21.1 57,-40.1 95.1,-54.9 35.9,-14.8 84.5,-21.2 139.4,-21.2 25.3,0 52.8,2.1 82.3,8.5 29.6,4.2 57,16.9 84.5,33.8 29.6,14.7 52.8,38 74,67.5 21.1,31.7 35.9,69.7 44.4,118.3l4.2 0c27.5,-65.4 69.7,-118.3 128.8,-162.6 57,-42.2 128.8,-63.3 215.4,-65.5 107.8,2.1 192.2,35.9 251.3,101.4 57,65.5 86.6,152.1 86.6,259.7l0 741.3 -128.8 0zm1077 -173.2l-4.2 0c-29.6,63.3 -76,111.9 -137.2,145.7 -61.2,33.7 -126.7,50.7 -194.3,52.8 -71.8,-2.1 -130.9,-12.7 -175.3,-35.9 -46.5,-21.1 -82.3,-48.6 -105.6,-80.3 -44.4,-69.7 -63.3,-133 -61.3,-187.9 0,-88.7 21.1,-160.5 63.4,-213.3 40.1,-52.8 92.9,-88.7 156.2,-111.9 63.3,-23.2 133.1,-38 209.1,-46.5 73.9,-4.2 143.6,-6.4 211.2,-6.4l25.3 0 0 -54.9c4.2,-183.8 -73.9,-276.7 -236.5,-276.7 -107.7,-2.1 -211.2,27.4 -306.2,88.7l0 -128.8c95,-46.5 198.5,-71.8 306.2,-74 244.9,-2.1 367.4,130.9 365.3,401.3l0 475.1c-2.1,82.3 2.1,156.2 10.6,226l-126.7 0 0 -173.2zm-12.7 -369.6l-35.9 0c-57,0 -111.9,2.1 -168.9,4.2 -59.2,4.2 -111.9,16.9 -158.4,35.9 -48.6,16.9 -86.6,42.2 -116.2,78.1 -31.7,35.9 -46.4,82.3 -46.4,141.5 0,69.7 21.1,118.3 65.5,147.8 40.1,31.7 90.8,46.5 152.1,46.5 73.9,0 133,-14.7 177.4,-46.5 42.2,-29.6 73.9,-65.5 93,-105.6 19,-44.4 29.6,-86.6 33.8,-128.8 2.1,-44.4 4.2,-80.3 4.2,-107.7l0 -65.5zm468.8 -280.9c0,-82.4 -2.1,-166.9 -8.4,-253.4l124.6 0 0 192.2 4.2 0c12.7,-25.3 27.5,-50.7 44.4,-76 14.8,-25.3 35.9,-48.5 61.2,-69.7 25.4,-23.2 57,-40.1 95.1,-52.8 38,-12.7 84.5,-19 137.2,-19 128.8,2.1 221.8,40.2 276.7,118.3 52.8,76 80.2,175.2 80.2,295.6l0 688.5 -128.8 0 0 -654.7c0,-103.5 -19,-183.7 -54.9,-244.9 -40.1,-57 -103.5,-86.6 -194.3,-88.7 -114.1,2.1 -194.3,44.4 -240.8,126.7 -25.4,38 -42.2,78.1 -50.7,124.6 -12.7,46.5 -16.9,92.9 -16.9,141.5l0 595.5 -128.8 0 0 -823.6zm1921.7 2.1l150 0c88.7,2.1 168.9,-19 242.8,-59.2 73.9,-40.1 111.9,-109.8 114.1,-211.2 0,-61.3 -8.4,-107.8 -27.5,-143.6 -19,-33.8 -46.4,-61.3 -78.1,-76 -33.8,-16.9 -71.8,-27.5 -116.2,-31.7 -44.4,-2.1 -90.8,-4.2 -139.4,-4.2l-145.7 0 0 525.9zm-139.4 -652.6l367.4 0c270.4,-4.2 409.7,122.4 418.2,382.2 -2.1,95 -31.7,173.2 -92.9,230.1 -59.2,59.2 -133.1,95.1 -223.9,109.8l0 4.2c54.9,6.3 95,25.3 120.4,54.9 12.7,14.7 23.2,31.7 33.8,52.8 10.6,21.1 21.1,44.4 31.7,69.7l240.8 570.2 -154.2 0 -207 -498.4c-38,-90.8 -78.1,-147.9 -118.3,-171 -21.1,-12.7 -44.4,-21.1 -71.8,-23.2 -25.4,-2.1 -54.9,-2.1 -88.7,-2.1l-116.2 0 0 694.8 -139.4 0 0 -1474zm1854.2 1440.2c-99.3,38 -198.5,57 -304.1,59.2 -169,-4.2 -291.4,-57 -365.4,-162.6 -73.9,-103.5 -109.8,-236.6 -107.7,-401.2 2.1,-166.9 42.2,-304.1 122.5,-407.6 78.1,-103.5 183.7,-154.2 316.8,-156.3 145.7,2.1 251.3,54.9 318.8,158.4 63.4,101.4 95.1,226 95.1,375.9l0 67.6 -713.8 0c0,116.1 29.6,213.3 88.7,289.3 57,80.3 141.5,120.4 255.6,122.5 50.7,0 103.5,-8.4 160.5,-27.4 54.9,-14.8 99.3,-33.8 133.1,-52.8l0 135.1zm-63.3 -580.7c0,-99.3 -19,-183.8 -59.2,-257.7 -42.2,-76 -111.9,-114 -209.1,-116.1 -92.9,2.1 -166.8,42.2 -221.7,118.3 -57,76 -84.5,160.5 -84.5,255.6l574.5 0zm337.9 458.2c80.2,44.4 171,65.5 272.4,67.6 65.5,0 120.3,-16.9 164.7,-52.8 44.4,-31.7 65.5,-78.1 67.6,-139.4 -2.1,-63.3 -27.4,-114.1 -76,-149.9 -48.5,-35.9 -107.7,-67.6 -173.2,-95.1 -31.7,-14.7 -63.3,-31.7 -90.8,-48.5 -29.6,-16.9 -57,-35.9 -82.3,-57 -23.2,-23.2 -42.2,-48.5 -57,-78.1 -14.7,-27.4 -23.2,-61.2 -23.2,-99.3 2.1,-107.7 35.9,-183.7 105.6,-228.1 67.5,-44.3 145.7,-65.5 234.4,-65.5 29.6,0 69.7,2.1 116.1,8.5 48.6,8.4 95.1,21.1 141.5,40.1l-12.6 114.1c-74,-31.7 -152.1,-46.5 -232.3,-48.6 -65.5,0 -118.3,12.7 -158.4,35.9 -21.2,14.7 -35.9,31.7 -48.6,54.9 -10.6,21.1 -16.9,50.7 -16.9,88.7 0,21.2 8.4,42.3 23.2,63.4 14.8,16.9 33.8,33.8 59.2,50.7 23.2,12.7 52.8,27.4 82.3,44.4 31.7,12.7 63.4,29.6 93,46.5 67.6,29.6 126.7,67.5 177.4,118.3 50.7,48.5 76,118.3 78.1,204.8 0,57 -10.6,103.5 -33.8,141.5 -23.2,38 -52.8,69.7 -86.6,95 -76,46.5 -158.4,69.7 -242.8,69.7 -101.4,0 -198.5,-16.9 -291.4,-50.7l10.6 -130.9zm1602.8 122.5c-99.3,38 -198.5,57 -304.1,59.2 -169,-4.2 -291.4,-57 -365.4,-162.6 -73.9,-103.5 -109.8,-236.6 -107.7,-401.2 2.1,-166.9 42.2,-304.1 122.5,-407.6 78.1,-103.5 183.7,-154.2 316.8,-156.3 145.7,2.1 251.3,54.9 318.8,158.4 63.4,101.4 95.1,226 95.1,375.9l0 67.6 -713.8 0c0,116.1 29.6,213.3 88.7,289.3 57,80.3 141.5,120.4 255.6,122.5 50.7,0 103.5,-8.4 160.5,-27.4 54.9,-14.8 99.3,-33.8 133.1,-52.8l0 135.1zm-63.3 -580.7c0,-99.3 -19,-183.8 -59.2,-257.7 -42.2,-76 -111.9,-114 -209.1,-116.1 -92.9,2.1 -166.8,42.2 -221.7,118.3 -57,76 -84.5,160.5 -84.5,255.6l574.5 0zm1017.9 441.3l-4.2 0c-29.6,63.3 -76,111.9 -137.2,145.7 -61.2,33.7 -126.7,50.7 -194.3,52.8 -71.8,-2.1 -130.9,-12.7 -175.3,-35.9 -46.5,-21.1 -82.3,-48.6 -105.6,-80.3 -44.4,-69.7 -63.3,-133 -61.3,-187.9 0,-88.7 21.1,-160.5 63.4,-213.3 40.1,-52.8 92.9,-88.7 156.2,-111.9 63.3,-23.2 133.1,-38 209.1,-46.5 73.9,-4.2 143.6,-6.4 211.2,-6.4l25.3 0 0 -54.9c4.2,-183.8 -73.9,-276.7 -236.5,-276.7 -107.7,-2.1 -211.2,27.4 -306.2,88.7l0 -128.8c95,-46.5 198.5,-71.8 306.2,-74 244.9,-2.1 367.4,130.9 365.3,401.3l0 475.1c-2.1,82.3 2.1,156.2 10.6,226l-126.7 0 0 -173.2zm-12.7 -369.6l-35.9 0c-57,0 -111.9,2.1 -168.9,4.2 -59.2,4.2 -111.9,16.9 -158.4,35.9 -48.6,16.9 -86.6,42.2 -116.2,78.1 -31.7,35.9 -46.4,82.3 -46.4,141.5 0,69.7 21.1,118.3 65.5,147.8 40.1,31.7 90.8,46.5 152.1,46.5 73.9,0 133,-14.7 177.4,-46.5 42.2,-29.6 73.9,-65.5 93,-105.6 19,-44.4 29.6,-86.6 33.8,-128.8 2.1,-44.4 4.2,-80.3 4.2,-107.7l0 -65.5zm468.8 -293.5c0,-99.3 -2.1,-179.5 -8.4,-240.8l128.8 0 0 207 4.2 0c25.3,-63.3 59.1,-118.3 103.5,-162.6 44.4,-44.4 99.3,-67.6 164.7,-69.7 33.8,2.1 63.3,6.4 88.7,12.7l0 137.3c-27.5,-8.5 -59.2,-12.7 -93,-12.7 -50.7,2.1 -92.9,14.7 -124.6,38 -33.8,25.4 -59.2,59.2 -80.3,103.5 -19,42.2 -33.8,88.7 -40.1,137.2 -10.6,52.8 -14.8,103.5 -14.8,152.1l0 534.3 -128.8 0 0 -836.3zm1345.1 -97.1c-74,-35.9 -147.9,-52.8 -223.9,-54.9 -124.6,2.1 -221.7,42.2 -287.2,124.6 -71.8,82.3 -105.6,190 -105.6,325.2 0,124.6 33.8,230.1 103.5,314.7 65.5,88.7 158.4,133 274.6,135.1 80.2,0 160.5,-16.9 236.5,-48.5l12.7 124.6c-84.5,27.5 -175.3,40.1 -268.2,38 -166.8,-4.2 -291.4,-61.3 -373.8,-171.1 -82.4,-107.7 -124.6,-238.6 -124.6,-392.8 2.1,-171.1 48.6,-306.2 143.6,-407.6 92.9,-103.5 215.4,-154.2 371.7,-156.3 63.3,0 116.1,4.2 158.4,14.8 23.2,4.2 42.2,8.4 57,12.7 14.8,6.3 27.4,10.6 35.9,14.8l-10.6 126.7zm257.6 -650.4l128.8 0 0 688.4 4.2 0c27.4,-61.2 69.7,-109.8 126.7,-149.9 57,-35.9 122.5,-54.9 198.5,-57 139.3,2.1 234.3,44.4 285.1,126.7 48.5,84.5 73.9,194.3 71.8,331.5l0 644.1 -128.8 0 0 -642c0,-48.5 -2.1,-92.9 -8.4,-135.1 -6.4,-42.3 -16.9,-78.1 -33.8,-107.8 -33.8,-67.5 -101.3,-101.3 -206.9,-103.5 -111.9,2.1 -192.2,46.5 -238.6,133.1 -48.6,86.6 -71.8,179.5 -69.7,278.7l0 576.5 -128.8 0 0 -1583.9zm1759.1 109.8l677.9 0 0 126.7 -538.5 0 0 525.9 513.1 0 0 126.7 -513.1 0 0 694.8 -139.4 0 0 -1474zm861.6 935.5c0,-154.2 40.2,-285.1 118.3,-392.8 78.1,-111.9 200.6,-169 367.4,-171.1 168.9,2.1 291.4,59.2 371.6,171.1 76,107.7 114.1,238.6 114.1,392.8 0,149.9 -38,280.9 -114.1,390.7 -80.2,111.9 -202.7,168.9 -371.6,173.2 -166.9,-4.2 -289.4,-61.3 -367.4,-173.2 -78.1,-109.8 -118.3,-240.8 -118.3,-390.7zm139.4 0c0,128.8 29.6,234.4 90.8,316.7 57,86.6 141.5,130.9 255.6,133.1 114,-2.1 200.6,-46.5 259.7,-133.1 59.1,-82.3 86.6,-187.9 86.6,-316.7 0,-128.9 -27.5,-236.6 -86.6,-321 -59.2,-84.5 -145.7,-126.7 -259.7,-128.8 -114.1,2.1 -198.5,44.4 -255.6,128.8 -61.2,84.5 -90.8,192.2 -90.8,321zm1928.1 285.1c-2.1,82.4 2.1,166.9 8.4,253.4l-124.6 0 0 -192.2 -4.2 0c-10.6,23.2 -23.2,46.4 -40.1,71.8 -14.8,25.4 -35.9,48.6 -61.2,71.8 -27.5,21.2 -59.2,38 -97.1,50.7 -38,14.7 -84.5,23.2 -139.4,23.2 -126.7,-2.1 -219.6,-40.2 -274.5,-118.3 -57,-76 -84.5,-175.3 -82.4,-295.7l0 -688.5 128.8 0 0 654.7c0,103.5 19,183.7 59.2,240.8 38,61.2 101.4,92.9 190,92.9 57,0 107.8,-12.7 147.9,-38 42.2,-23.2 73.9,-54.9 95,-93 23.2,-40.1 42.2,-82.3 50.7,-126.7 10.6,-44.4 14.8,-90.8 14.8,-135.2l0 -595.5 128.8 0 0 823.6zm359 -570.2c0,-82.4 -2.1,-166.9 -8.4,-253.4l124.6 0 0 192.2 4.2 0c12.7,-25.3 27.5,-50.7 44.4,-76 14.8,-25.3 35.9,-48.5 61.2,-69.7 25.4,-23.2 57,-40.1 95.1,-52.8 38,-12.7 84.5,-19 137.2,-19 128.8,2.1 221.8,40.2 276.7,118.3 52.8,76 80.2,175.2 80.2,295.6l0 688.5 -128.8 0 0 -654.7c0,-103.5 -19,-183.7 -54.9,-244.9 -40.1,-57 -103.5,-86.6 -194.3,-88.7 -114.1,2.1 -194.3,44.4 -240.8,126.7 -25.4,38 -42.2,78.1 -50.7,124.6 -12.7,46.5 -16.9,92.9 -16.9,141.5l0 595.5 -128.8 0 0 -823.6zm2002 823.6l-128.8 0 0 -171 -4.2 0c-67.6,133 -175.3,198.5 -325.2,196.4 -141.5,-4.2 -249.2,-57 -318.8,-162.6 -74,-105.6 -109.8,-240.8 -109.8,-401.2 -2.1,-166.9 31.7,-302 101.3,-405.5 67.6,-103.5 177.4,-156.3 327.3,-158.4 52.8,0 97.1,8.5 135.2,23.2 40.1,14.8 71.8,35.9 99.3,59.2 52.8,48.5 82.3,90.8 90.8,124.6l4.2 0 0 -688.4 128.8 0 0 1583.9zm-747.6 -538.5c0,50.7 4.2,101.3 14.7,154.1 10.6,52.8 25.4,103.5 48.6,147.9 23.2,42.2 57,76 95,103.5 40.2,29.6 88.7,44.4 152.1,44.4 57,0 105.6,-14.7 145.7,-44.4 40.1,-27.4 71.8,-63.3 95,-107.7 46.5,-95 69.7,-194.3 67.6,-297.7 0,-50.7 -4.2,-103.5 -14.8,-156.3 -10.6,-50.7 -27.4,-99.3 -52.8,-143.6 -23.2,-46.5 -54.9,-82.3 -95,-109.8 -40.1,-27.4 -88.7,-40.1 -145.7,-40.1 -63.3,0 -111.9,12.7 -152.1,40.1 -38,25.4 -71.8,59.2 -95,105.6 -23.2,42.2 -38,88.7 -48.6,143.6 -10.6,52.8 -14.7,107.7 -14.7,160.5zm1693.7 365.3l-4.2 0c-29.6,63.3 -76,111.9 -137.2,145.7 -61.2,33.7 -126.7,50.7 -194.3,52.8 -71.8,-2.1 -130.9,-12.7 -175.3,-35.9 -46.5,-21.1 -82.3,-48.6 -105.6,-80.3 -44.4,-69.7 -63.3,-133 -61.3,-187.9 0,-88.7 21.1,-160.5 63.4,-213.3 40.1,-52.8 92.9,-88.7 156.2,-111.9 63.3,-23.2 133.1,-38 209.1,-46.5 73.9,-4.2 143.6,-6.4 211.2,-6.4l25.3 0 0 -54.9c4.2,-183.8 -73.9,-276.7 -236.5,-276.7 -107.7,-2.1 -211.2,27.4 -306.2,88.7l0 -128.8c95,-46.5 198.5,-71.8 306.2,-74 244.9,-2.1 367.4,130.9 365.3,401.3l0 475.1c-2.1,82.3 2.1,156.2 10.6,226l-126.7 0 0 -173.2zm-12.7 -369.6l-35.9 0c-57,0 -111.9,2.1 -168.9,4.2 -59.2,4.2 -111.9,16.9 -158.4,35.9 -48.6,16.9 -86.6,42.2 -116.2,78.1 -31.7,35.9 -46.4,82.3 -46.4,141.5 0,69.7 21.1,118.3 65.5,147.8 40.1,31.7 90.8,46.5 152.1,46.5 73.9,0 133,-14.7 177.4,-46.5 42.2,-29.6 73.9,-65.5 93,-105.6 19,-44.4 29.6,-86.6 33.8,-128.8 2.1,-44.4 4.2,-80.3 4.2,-107.7l0 -65.5zm918.7 -420.2l-236.5 0 0 696.9c0,50.7 10.6,90.8 33.7,124.6 19,35.9 54.9,52.8 105.6,52.8 46.4,0 86.6,-8.4 118.3,-25.4l8.4 109.8c-14.8,6.4 -35.9,10.6 -63.3,19 -29.6,6.3 -61.2,10.6 -95,10.6 -54.9,0 -99.3,-10.6 -133.1,-29.6 -31.7,-21.1 -54.9,-46.4 -69.7,-78.1 -14.7,-33.8 -23.2,-71.8 -27.4,-114.1 -4.2,-42.2 -6.4,-88.7 -6.4,-137.2l0 -629.3 -204.8 0 0 -114.1 204.8 0 0 -259.7 128.9 -46.5 0 306.2 236.5 0 0 114.1zm253.4 -114.1l128.8 0 0 1077 -128.8 0 0 -1077zm128.8 -287.2l-128.8 0 0 -177.4 128.8 0 0 177.4zm261.9 825.7c0,-154.2 40.2,-285.1 118.3,-392.8 78.1,-111.9 200.6,-169 367.4,-171.1 168.9,2.1 291.4,59.2 371.6,171.1 76,107.7 114.1,238.6 114.1,392.8 0,149.9 -38,280.9 -114.1,390.7 -80.2,111.9 -202.7,168.9 -371.6,173.2 -166.9,-4.2 -289.4,-61.3 -367.4,-173.2 -78.1,-109.8 -118.3,-240.8 -118.3,-390.7zm139.4 0c0,128.8 29.6,234.4 90.8,316.7 57,86.6 141.5,130.9 255.6,133.1 114,-2.1 200.6,-46.5 259.7,-133.1 59.1,-82.3 86.6,-187.9 86.6,-316.7 0,-128.9 -27.5,-236.6 -86.6,-321 -59.2,-84.5 -145.7,-126.7 -259.7,-128.8 -114.1,2.1 -198.5,44.4 -255.6,128.8 -61.2,84.5 -90.8,192.2 -90.8,321zm1112.9 -285.1c0,-82.4 -2.1,-166.9 -8.4,-253.4l124.6 0 0 192.2 4.2 0c12.7,-25.3 27.5,-50.7 44.4,-76 14.8,-25.3 35.9,-48.5 61.2,-69.7 25.4,-23.2 57,-40.1 95.1,-52.8 38,-12.7 84.5,-19 137.2,-19 128.8,2.1 221.8,40.2 276.7,118.3 52.8,76 80.2,175.2 80.2,295.6l0 688.5 -128.8 0 0 -654.7c0,-103.5 -19,-183.7 -54.9,-244.9 -40.1,-57 -103.5,-86.6 -194.3,-88.7 -114.1,2.1 -194.3,44.4 -240.8,126.7 -25.4,38 -42.2,78.1 -50.7,124.6 -12.7,46.5 -16.9,92.9 -16.9,141.5l0 595.5 -128.8 0 0 -823.6z"/><path class="fil1" d="M185.9 1769.2l162.8 0 0 -776.1 592 0 0 -141.5 -592 0 0 -587.4 620.4 0 0 -141.5 -783.2 0 0 1646.5zm1990.9 -1203.1l-148.6 0 0 665.2c0,200.5 -84.9,438.7 -356.2,438.7 -205.2,0 -285.4,-146.2 -285.4,-372.7l0 -731.3 -148.6 0 0 769c0,264.2 113.2,462.4 410.5,462.4 250,0 339.6,-134.5 389.2,-243l4.7 0 0 214.7 143.9 0c-9.5,-96.7 -9.5,-191.1 -9.5,-283.1l0 -920zm372.7 1203.1l148.6 0 0 -665.2c0,-200.5 85,-438.7 356.2,-438.7 205.3,0 285.4,146.2 285.4,372.7l0 731.2 148.6 0 0 -769c0,-264.2 -113.2,-462.4 -410.4,-462.4 -250.1,0 -339.7,134.5 -389.2,243l-4.7 0 0 -214.7 -143.9 0c9.4,96.8 9.4,191.1 9.4,283.1l0 920zm2264.5 -1769.2l-148.6 0 0 769 -4.7 0c-21.2,-58.9 -139.2,-231.2 -375.1,-231.2 -353.8,0 -495.4,264.2 -495.4,629.9 0,356.2 165.1,629.8 495.4,629.8 172.2,0 294.8,-66.1 375.1,-219.4l4.7 0 0 191.1 148.6 0 0 -1769.2zm-861 1167.7c0,-233.6 73.1,-502.5 356.2,-502.5 264.2,0 356.2,283.1 356.2,502.5 0,219.4 -92,502.4 -356.2,502.4 -283,0 -356.2,-268.9 -356.2,-502.4zm2026.3 412.8c-70.8,44.8 -228.8,89.6 -337.4,89.6 -259.5,0 -396.3,-205.2 -396.3,-460l823.3 0 0 -75.5c0,-323.2 -139.2,-596.8 -478.8,-596.8 -304.3,0 -507.2,261.9 -507.2,629.9 0,360.9 148.6,629.8 547.3,629.8 110.9,0 245.3,-23.6 349.1,-66.1l0 -151zm-733.6 -497.7c0,-198.1 134.5,-417.5 353.8,-417.5 221.8,0 306.7,207.6 306.7,417.5l-660.5 0zm2059.3 -1082.7l-148.6 0 0 769 -4.7 0c-21.2,-58.9 -139.2,-231.2 -375,-231.2 -353.8,0 -495.4,264.2 -495.4,629.9 0,356.2 165.1,629.8 495.4,629.8 172.1,0 294.8,-66.1 375,-219.4l4.7 0 0 191.1 148.6 0 0 -1769.2zm-860.9 1167.7c0,-233.6 73.1,-502.5 356.2,-502.5 264.2,0 356.1,283.1 356.1,502.5 0,219.4 -92,502.4 -356.1,502.4 -283,0 -356.2,-268.9 -356.2,-502.4zm1861.1 601.5l148.6 0 0 -191.1 4.7 0c80.2,153.3 202.9,219.4 375.1,219.4 330.2,0 495.4,-273.6 495.4,-629.8 0,-365.7 -141.5,-629.9 -495.4,-629.9 -235.9,0 -353.8,172.2 -375.1,231.2l-4.7 0 0 -769 -148.6 0 0 1769.2zm861 -601.5c0,233.5 -73.1,502.4 -356.2,502.4 -264.2,0 -356.2,-283 -356.2,-502.4 0,-219.4 85,-502.5 356.2,-502.5 283.1,0 356.2,268.9 356.2,502.5zm462.3 -601.6l-162.8 0 427 1217.2 -30.7 106.2c-47.2,155.7 -89.6,261.8 -217,261.8 -54.3,0 -82.6,-9.4 -110.9,-18.9l-14.1 127.4c49.5,11.8 106.2,18.9 160.4,18.9 167.5,0 252.4,-165.1 309,-330.3l481.2 -1382.3 -155.7 0 -346.8 1002.6 -2.3 0 -337.4 -1002.6z"/></g></g></svg>