<!-- Creator: CorelDRAW 2021 (64-Bit) --><svg xmlns="http://www.w3.org/2000/svg" xmlns:xlink="http://www.w3.org/1999/xlink" xmlns:xodm="http://www.corel.com/coreldraw/odm/2003" xml:space="preserve" width="83.9959mm" height="20.5399mm" version="1.1" style="shape-rendering:geometricPrecision; text-rendering:geometricPrecision; image-rendering:optimizeQuality; fill-rule:evenodd; clip-rule:evenodd" viewBox="0 0 1328083.6 324762.3"><defs><style type="text/css"><![CDATA[ .fil2 {fill:#B2B3B3} .fil0 {fill:#0D4378} .fil3 {fill:#ADEFD1} .fil1 {fill:#2B2A29;fill-rule:nonzero} ]]></style></defs><g id="Ebene_x0020_1"><metadata id="CorelCorpID_0Corel-Layer"/><circle class="fil0" cx="162136.9" cy="162136.9" r="162136.9"/><path class="fil1" d="M427559.4 243443.3c-13393.7,0 -24675.1,-2710.1 -33844.1,-8131.7 -9169,-5421.7 -16464.3,-12517.8 -21886,-21286.7l16982.9 -14590.7c4624.8,7175.2 10125.6,12596.9 16503.8,16265.1 6378.3,3666.6 13632.5,5500.7 21765.8,5500.7 8610.8,0 15626.3,-2033.3 21048,-6100 5421.7,-4065.1 8131.7,-9686 8131.7,-16861.2 0,-5263.6 -1674.4,-9648 -5023.2,-13156.6 -3347.3,-3506.9 -7893,-6936.4 -13632.5,-10283.7l-16265.1 -9807.7c-3506.9,-2072.9 -6816.2,-4384.5 -9926.3,-6936.4 -3108.5,-2550.4 -5859.7,-5461.2 -8251.9,-8729.4 -2390.7,-3268.2 -4264.3,-6936.4 -5620.9,-11003.1 -1355,-4065.1 -2031.8,-8490.7 -2031.8,-13273.6 0,-6378.3 1274.4,-12239.5 3826.3,-17580.6 2551.9,-5341.1 6098.4,-9965.9 10644.2,-13872.8 4544.2,-3907 9926.3,-6936.4 16144.9,-9088.3 6218.6,-2153.5 12914.7,-3228.7 20091.4,-3228.7 10683.7,0 20290.6,2351.1 28820.8,7055 8531.8,4703.9 15269,10563.5 20211.6,17580.6l-16503.8 14111.6c-3826.3,-4624.8 -8490.7,-8610.8 -13993,-11959.7 -5500.7,-3348.8 -11918.6,-5023.2 -19253.4,-5023.2 -6857.4,0 -12478.3,1954.3 -16862.7,5861.2 -4384.5,3905.4 -6577.5,8650.4 -6577.5,14230.2 0,5103.9 1595.4,9289.1 4784.5,12557.3 3187.6,3269.8 7094.5,6259.7 11719.3,8969.7l17699.2 11241.8c7654.2,4624.8 13953.5,10005.4 18896.1,16144.9 4942.6,6139.5 7413.9,14151.1 7413.9,24037.9 0,7494.6 -1434.1,14192.2 -4305.4,20091.4 -2869.7,5899.2 -6776.7,10882.9 -11719.3,14949.6 -4942.6,4065.1 -10762.7,7135.6 -17460.4,9208.5 -6697.7,2072.9 -13872.8,3108.5 -21527.1,3108.5zm84671 -2869.7l31333.2 -156425.8 25830.9 0 25353.4 91128.4 7415.5 33007.7 956.6 0c479.1,-3986 996.1,-8331 1554.2,-13034.8 558.1,-4703.9 1116.3,-9409.3 1674.4,-14113.2 558.1,-4703.9 1155.8,-9167.4 1794.6,-13393.7 637.2,-4224.8 1276,-7932.5 1913.2,-11121.7l14350.3 -72472.6 24396.8 0 -31092.9 156425.8 -25593.7 0 -26069.7 -91128.4 -7415.5 -33246.4 -956.6 0c-479.1,4145.7 -996.1,8569.7 -1554.2,13273.6 -558.1,4703.9 -1116.3,9407.7 -1674.4,14111.6 -558.1,4703.9 -1196.9,9289.1 -1913.2,13754.2 -717.8,4463.5 -1396.1,8610.8 -2033.3,12437.2l-13872.8 70798.2 -24396.8 0zm180822.7 2869.7c-10046.5,0 -17620.1,-2591.5 -22722.4,-7772.8 -5103.9,-5182.9 -7654.2,-12478.3 -7654.2,-21886 0,-3189.1 199.2,-6297.6 597.7,-9327.1 398.4,-3031 917.1,-6060.5 1554.2,-9089.9l14351.9 -72233.9 25830.9 0 -13872.8 69125.4c-637.2,2710.1 -1155.8,5181.4 -1554.2,7413.9 -398.4,2232.6 -597.7,4465.1 -597.7,6697.7 0,10044.9 5102.3,15068.2 15308.5,15068.2 6536.4,0 13155,-2112.4 19851.1,-6338.7 6697.7,-4224.8 13395.3,-10324.8 20091.4,-18296.8l14590.7 -73669.5 25592.2 0 -23199.9 117439.9 -20809.2 0 2151.9 -22004.6 -956.6 0c-3189.1,3189.1 -6656.6,6258.1 -10403.8,9208.5 -3747.3,2950.4 -7654.2,5581.4 -11720.9,7893 -4065.1,2311.6 -8331,4185.2 -12796.1,5620.9 -4463.5,1434.1 -9009.3,2151.9 -13632.5,2151.9zm109784.1 -2869.7l31572 -156425.8 42813.8 0c15786,0 28183.6,2869.7 37192.9,8610.8 9009.3,5739.5 13513.9,14589.1 13513.9,26548.7 0,4942.6 -917.1,9527.9 -2749.6,13752.7 -1834.1,4226.4 -4305.4,8013.2 -7415.5,11362 -3108.5,3348.8 -6737.2,6218.6 -10882.9,8610.8 -4145.7,2390.7 -8610.8,4145.7 -13393.7,5262l-238.8 956.6c8451.1,2072.9 15188.3,5581.4 20210,10524 5023.2,4942.6 7534.1,11640.3 7534.1,20091.4 0,8928.6 -1713.9,16582.9 -5141.8,22961.2 -3427.9,6378.3 -8131.7,11640.3 -14111.6,15786 -5979.8,4145.7 -12995.3,7176.7 -21048,9089.9 -8052.7,1913.2 -16703,2869.7 -25952.7,2869.7l-51902.1 0zm44009.1 -91368.7l17460.4 0c12916.2,0 22324,-2351.1 28224.7,-7055 5899.2,-4703.9 8849.6,-10963.5 8849.6,-18775.9 0,-6060.5 -2232.6,-10644.2 -6697.7,-13754.2 -4465.1,-3108.5 -11958.1,-4662.7 -22482.1,-4662.7l-16026.3 0 -9328.7 44247.9zm-14111.6 70559.5l22244.9 0c12916.2,0 23000.7,-2272.1 30256.5,-6816.2 7255.8,-4544.2 10882.9,-11839.5 10882.9,-21886 0,-7175.2 -2591.5,-12715.4 -7774.4,-16622.4 -5181.4,-3907 -12796.1,-5859.7 -22841,-5859.7l-22244.9 0 -10524 51184.3zm111698.9 20809.2l4544.2 -21765.8 37551.8 0 22722.4 -112894.2 -37790.6 0 4544.2 -21765.8 101652.4 0 -4544.2 21765.8 -38029.3 0 -22722.4 112894.2 38029.3 0 -4544.2 21765.8 -101413.6 0zm212633.4 2869.7c-9088.3,0 -17180.5,-1514.7 -24276.7,-4544.2 -7096.1,-3029.4 -13115.5,-7334.9 -18058.1,-12916.2 -4944.2,-5579.8 -8731,-12317 -11362,-20210 -2631,-7893 -3946.5,-16783.7 -3946.5,-26668.9 0,-12916.2 2033.3,-25274.3 6098.4,-37074.3 4066.7,-11800 9768.2,-22203.8 17103.1,-31213.1 7334.9,-9009.3 15985.2,-16184.4 25951.1,-21527.1 9965.9,-5341.1 20927.8,-8011.6 32887.5,-8011.6 9088.3,0 17022.4,2191.4 23799.2,6577.5 6776.7,4384.5 12237.9,10165.1 16383.7,17340.2l-17939.5 13634.1c-3029.4,-4944.2 -6457.3,-8731 -10283.7,-11362 -3827.9,-2631 -8291.4,-3946.5 -13395.3,-3946.5 -7972.1,0 -15267.4,2151.9 -21884.4,6457.3 -6617,4305.4 -12318.6,9926.3 -17101.5,16862.7 -4784.5,6936.4 -8492.2,14789.9 -11123.2,23560.4 -2631,8768.9 -3946.5,17699.2 -3946.5,26787.5 0,13235.6 2830.2,23879.8 8492.2,31930.9 5660.4,8052.7 14868.9,12079.8 27625.5,12079.8 5421.7,0 10603.1,-1196.9 15547.2,-3587.6 4942.6,-2392.2 9725.5,-5502.3 14350.3,-9328.7l11003.1 16503.8c-5262,4624.8 -11720.9,8889.1 -19375.2,12796.1 -7652.7,3907 -16502.2,5859.7 -26548.7,5859.7zm128680.2 -61230.8l11003.1 -74624.5 4782.9 -27506.9 26550.3 0 -5502.3 27506.9 -19612.3 74624.5 -17221.7 0zm-1913.2 61230.8c-4784.5,0 -8689.9,-1593.8 -11720.9,-4782.9 -3029.4,-3189.1 -4544.2,-7334.9 -4544.2,-12437.2 0,-6538 2112.4,-12158.9 6338.7,-16862.7 4224.8,-4703.9 9687.6,-7056.6 16383.7,-7056.6 4944.2,0 8930.2,1634.9 11959.7,4903.1 3029.4,3269.8 4544.2,7455 4544.2,12557.3 0,3189.1 -597.7,6218.6 -1793,9089.9 -1196.9,2869.7 -2790.7,5380.6 -4784.5,7534.1 -1992.2,2151.9 -4384.5,3865.9 -7175.2,5141.8 -2790.7,1276 -5859.7,1913.2 -9208.5,1913.2z"/><path class="fil2" d="M93065.3 169666.2l0 -4756c0,-12634.8 9859.9,-22969.1 21911.3,-22969.1l149742.4 0c12051.4,0 21911.3,10334.3 21911.3,22969.1l0 56963.3c0,12634.8 -9859.9,22969.1 -21911.3,22969.1l-149742.4 0c-12049.8,0 -21911.3,-10337.4 -21911.3,-22969.1l0 -18023.3 18595.7 172.3 0 11641.9c0,4847.7 3788.4,8818 8411.6,8818l139550.5 0c4626.4,0 8413.2,-3968.6 8413.2,-8818l0 -45955.5c0,-4849.3 -3786.8,-8818 -8413.2,-8818l-139550.5 0c-4626.4,0 -8411.6,3968.6 -8411.6,8818l-18595.7 -42.7zm146622.8 -1990.6l0 4756c0,12634.8 -9859.9,22969.1 -21911.3,22969.1l-149742.4 0c-12051.4,0 -21911.3,-10334.3 -21911.3,-22969.1l0 -56963.3c0,-12634.8 9859.9,-22969.1 21911.3,-22969.1l149742.4 0c12051.4,0 21911.3,10339 21911.3,22969.1l0 18024.9 -18595.7 -172.3 0 -11643.4c0,-4849.3 -3790,-8818 -8411.6,-8818l-139550.5 0c-4626.4,0 -8413.2,3968.6 -8413.2,8818l0 45955.5c0,4849.3 3786.8,8818 8413.2,8818l139550.5 0c4626.4,0 8411.6,-3968.6 8411.6,-8818l18595.7 42.7z"/><path class="fil3" d="M85159.6 161760.6l0 -4756c0,-12634.8 9859.9,-22969.1 21911.3,-22969.1l149742.4 0c12051.4,0 21911.3,10334.3 21911.3,22969.1l0 56963.3c0,12634.8 -9859.9,22969.1 -21911.3,22969.1l-149742.4 0c-12049.8,0 -21911.3,-10337.4 -21911.3,-22969.1l0 -18023.3 18595.7 172.3 0 11641.9c0,4847.7 3788.4,8818 8411.6,8818l139550.5 0c4626.4,0 8413.2,-3968.6 8413.2,-8818l0 -45955.5c0,-4849.3 -3786.8,-8818 -8413.2,-8818l-139550.5 0c-4626.4,0 -8411.6,3968.6 -8411.6,8818l-18595.7 -42.7zm146622.8 -1990.6l0 4756c0,12634.8 -9859.9,22969.1 -21911.3,22969.1l-149742.4 0c-12051.4,0 -21911.3,-10334.3 -21911.3,-22969.1l0 -56963.3c0,-12634.8 9859.9,-22969.1 21911.3,-22969.1l149742.4 0c12051.4,0 21911.3,10339 21911.3,22969.1l0 18024.9 -18595.7 -172.3 0 -11643.4c0,-4849.3 -3790,-8818 -8411.6,-8818l-139550.5 0c-4626.4,0 -8413.2,3968.6 -8413.2,8818l0 45955.5c0,4849.3 3786.8,8818 8413.2,8818l139550.5 0c4626.4,0 8411.6,-3968.6 8411.6,-8818l18595.7 42.7z"/><path class="fil1" d="M385706.9 269550.9l8546 0c3723.6,0 6982.3,507.5 9776.1,1519.5 2793.9,1013.5 5107,2452.3 6942.7,4313.3 1834.1,1862.6 3203.4,4080.9 4107.8,6655 902.8,2574.1 1355,5423.3 1355,8544.4 0,4601.1 -615.1,8914.4 -1848.3,12940 -1231.7,4027.1 -3053.2,7545.1 -5462.8,10557.2 -2411.2,3013.6 -5423.3,5382.2 -9037.7,7107.2 -3616,1725 -7806,2588.3 -12570,2588.3l-12653.8 0 10845 -54224.8zm1973.2 52088.7c4216.9,0 7968.9,-834.8 11254.5,-2506.1 3287.2,-1669.7 6039.9,-3929.1 8258.2,-6778.3 2218.3,-2847.6 3902.2,-6134.8 5051.7,-9858.3 1151.1,-3725.1 1725,-7641.6 1725,-11749.4 0,-2792.3 -409.5,-5353.7 -1231.7,-7681.1 -822.2,-2327.4 -2053.9,-4340.2 -3696.7,-6038.3 -1644.4,-1698.1 -3710.9,-3013.6 -6202.8,-3944.9 -2493.4,-929.7 -5409,-1396.1 -8750,-1396.1l-6408.3 0 -10024.4 49952.6 10024.4 0zm45021.1 -52088.7l28098.2 0 -491.7 2136.1 -25633.3 0 -4601.1 23168.3 21689.9 0 -493.3 2136.1 -21525.5 0 -5423.3 26784.3 -2465 0 10845 -54224.8zm45516 55211.4c-3231.8,0 -6024.1,-521.8 -8380,-1562.2 -2355.9,-1040.4 -4313.3,-2506.1 -5873.9,-4395.5 -1562.2,-1889.4 -2725.9,-4134.7 -3492.7,-6737.2 -766.8,-2601 -1149.5,-5435.9 -1149.5,-8503.3 0,-3997.1 602.4,-8078 1807.2,-12241.1 1204.8,-4163.1 2999.4,-7927.8 5380.6,-11297.2 2382.8,-3367.8 5326.8,-6120.6 8832.2,-8256.7 3505.4,-2136.1 7532.5,-3203.4 12078.2,-3203.4 3067.4,0 5600.4,766.8 7598.9,2299 2000.1,1533.7 3628.7,3287.2 4888.9,5258.8l-1971.7 1313.9c-1095.7,-1916.3 -2506.1,-3518 -4231.1,-4805.1 -1725,-1287 -3875.3,-1930.6 -6449.4,-1930.6 -4107.8,0 -7750.7,1026.2 -10927.2,3080 -3176.5,2053.9 -5832.8,4669.1 -7968.9,7845.6 -2136.1,3178.1 -3766.2,6669.2 -4888.9,10476.6 -1122.6,3805.8 -1683.9,7462.9 -1683.9,10968.3 0,2683.2 300.4,5203.5 902.8,7557.8 602.4,2355.9 1562.2,4422.4 2876.1,6202.8 1313.9,1780.4 3026.3,3190.7 5135.5,4231.1 2107.6,1040.4 4669.1,1562.2 7681.1,1562.2 2629.4,0 4930,-425.3 6901.6,-1274.4 1971.7,-849.1 3614.5,-1903.7 4930,-3162.3l3614.5 -18239.9 -12981.1 0 493.3 -2136.1 15444.5 0 -4435.1 21525.5c-1917.9,1642.8 -4027.1,2958.3 -6327.7,3943.3 -2299,986.6 -4901.5,1479.9 -7804.5,1479.9zm52744.9 -55211.4l28098.2 0 -491.7 2136.1 -25633.3 0 -4601.1 23168.3 21689.9 0 -493.3 2136.1 -21525.5 0 -5423.3 26784.3 -2465 0 10845 -54224.8zm44366.5 55211.4c-2958.3,0 -5532.4,-562.9 -7723.8,-1685.5 -2189.9,-1122.6 -3998.7,-2668.9 -5421.7,-4642.2 -1424.6,-1971.7 -2493.4,-4340.2 -3204.9,-7105.6 -711.5,-2767 -1067.3,-5793.3 -1067.3,-9078.8 0,-2409.6 246.7,-4915.7 738.4,-7518.3 493.3,-2601 1233.3,-5148.2 2218.3,-7640 986.6,-2491.9 2205.7,-4860.4 3657.2,-7107.2 1451.5,-2245.2 3121.1,-4216.9 5010.6,-5915 1889.4,-1698.1 3984.4,-3040.5 6285,-4025.6 2300.5,-986.6 4820.9,-1478.4 7559.4,-1478.4 2956.7,0 5532.4,561.3 7722.2,1683.9 2191.4,1122.6 3998.7,2670.5 5423.3,4642.2 1423,1971.7 2491.9,4340.2 3203.4,7105.6 713.1,2767 1068.8,5793.3 1068.8,9078.8 0,2409.6 -246.7,4915.7 -740,7518.3 -493.3,2601 -1231.7,5148.2 -2218.3,7640 -985,2491.9 -2204.1,4862 -3655.6,7107.2 -1451.5,2245.2 -3122.7,4216.9 -5012.2,5915 -1889.4,1698.1 -3998.7,3040.5 -6326.1,4025.6 -2327.4,986.6 -4833.5,1479.9 -7516.7,1479.9zm164.4 -2136.1c3668.2,0 6928.5,-1027.7 9776.1,-3081.6 2847.6,-2053.9 5244.6,-4628 7189.4,-7722.2 1943.2,-3095.9 3408.9,-6463.7 4395.5,-10106.6 985,-3641.3 1478.4,-7078.7 1478.4,-10310.5 0,-3012.1 -287.8,-5791.7 -863.3,-8338.9 -573.9,-2547.2 -1478.4,-4738.6 -2710.1,-6572.8 -1233.3,-1835.7 -2793.9,-3258.7 -4683.3,-4272.2 -1889.4,-1013.5 -4177.3,-1519.5 -6860.5,-1519.5 -2465,0 -4738.6,479.1 -6819.4,1437.2 -2080.8,958.2 -3970.2,2232.6 -5668.3,3820 -1698.1,1589 -3190.7,3437.4 -4477.8,5546.6 -1287,2107.6 -2368.5,4313.3 -3246.1,6612.3 -875.9,2300.5 -1533.7,4642.2 -1971.7,7025 -438,2382.8 -656.2,4642.2 -656.2,6778.3 0,3067.4 286.2,5861.2 861.7,8380 575.5,2520.3 1478.4,4697.5 2711.6,6531.6 1231.7,1835.7 2793.9,3258.7 4683.3,4272.2 1889.4,1013.5 4175.8,1521 6860.5,1521zm48966 -26455.5c6134.8,0 10845,-1301.3 14132.1,-3902.2 3285.6,-2602.5 4928.4,-6231.2 4928.4,-10886.1 0,-3560.7 -1217.5,-6066.8 -3655.6,-7518.3 -2438.1,-1451.5 -6093.7,-2177.2 -10968.3,-2177.2l-9693.9 0 -4765.5 24483.8 10022.8 0zm5915 -26619.9c4874.6,0 8696.2,917.1 11461.6,2752.7 2765.4,1834.1 4148.9,4806.6 4148.9,8914.4 0,2409.6 -438,4613.7 -1313.9,6613.9 -875.9,1998.5 -2109.2,3723.6 -3698.3,5175 -1587.5,1451.5 -3476.9,2629.4 -5668.3,3533.8 -2191.4,902.8 -4572.6,1464.1 -7148.3,1683.9l10599.9 25551 -2793.9 0 -10433.9 -25468.8 -11584.9 0 -5094.4 25468.8 -2465 0 10845 -54224.8 13145.5 0zm15774.9 32534.9l16926 0 -493.3 2300.5 -16924.4 0 491.7 -2300.5zm33686 22676.6c-1917.9,0 -3642.9,-275.1 -5176.6,-822.2 -1533.7,-547.1 -2876.1,-1233.3 -4025.6,-2053.9 -1151.1,-822.2 -2123.5,-1739.2 -2917.2,-2752.7 -793.7,-1013.5 -1465.7,-1985.9 -2012.8,-2917.2l1807.2 -1313.9c548.7,875.9 1163.7,1766.1 1848.3,2670.5 684.6,902.8 1521,1725 2506.1,2465 986.6,738.4 2164.6,1355 3533.8,1848.3 1369.3,493.3 3012.1,740 4928.4,740 2082.3,0 4080.9,-425.3 5998.8,-1274.4 1916.3,-849.1 3614.5,-2039.7 5092.8,-3573.4 1478.4,-1533.7 2656.3,-3369.4 3533.8,-5505.5 875.9,-2136.1 1313.9,-4490.4 1313.9,-7064.5 0,-4109.4 -1040.4,-7162.5 -3122.7,-9161.1 -2080.8,-2000.1 -4819.3,-2999.4 -8215.5,-2999.4 -1971.7,0 -3669.8,260.9 -5092.8,781.1 -1424.6,520.2 -2958.3,1245.9 -4601.1,2177.2l-1479.9 -1151.1 6572.8 -23661.6 21854.4 0 -493.3 2136.1 -19716.7 0 -5423.3 19718.3c1095.7,-602.4 2327.4,-1108.4 3696.7,-1519.5 1369.3,-411.1 2931.4,-616.6 4683.3,-616.6 3943.3,0 7203.6,1151.1 9777.7,3451.6 2574.1,2300.5 3861.1,5750.6 3861.1,10351.7 0,3067.4 -507.5,5832.8 -1519.5,8297.8 -1013.5,2465 -2382.8,4560 -4109.4,6285 -1725,1725 -3709.3,3067.4 -5956.1,4025.6 -2245.2,958.2 -4628,1438.8 -7146.7,1438.8zm43873.2 -986.6l3203.4 -15939.4 -22921.6 0 164.4 -1313.9 30726.1 -35328.7 1644.4 0 -6901.6 34506.6 7557.8 0 -491.7 2136.1 -7477.2 0 -3203.4 15939.4 -2300.5 0zm3614.5 -18075.5l4107.8 -20538.9c273.5,-1260.2 616.6,-2725.9 1027.7,-4395.5 409.5,-1671.3 834.8,-3382 1272.8,-5135.5l-328.9 0c-1149.5,1479.9 -2286.3,2876.1 -3408.9,4190 -1122.6,1315.5 -2177.2,2547.2 -3163.8,3698.3l-19060.5 22181.7 19553.8 0zm28756 19062.1c-2080.8,0 -3848.5,-493.3 -5299.9,-1479.9 -1451.5,-985 -2627.8,-2272.1 -3532.2,-3861.1 -904.4,-1589 -1574.8,-3408.9 -2012.8,-5462.8 -438,-2055.5 -657.7,-4150.5 -657.7,-6286.6 0,-2792.3 232.4,-5654.1 698.9,-8585.5 464.9,-2929.8 1122.6,-5791.7 1971.7,-8585.5 849.1,-2792.3 1889.4,-5407.5 3122.7,-7845.6 1231.7,-2438.1 2601,-4586.9 4107.8,-6449.4 1505.2,-1862.6 3149.6,-3326.7 4928.4,-4395.5 1780.4,-1067.3 3684,-1601.7 5711,-1601.7 2025.4,0 3764.7,506 5216.1,1519.5 1451.5,1013.5 2643.6,2341.7 3574.9,3984.4 931.3,1642.8 1615.9,3492.7 2053.9,5546.6 438,2053.9 656.2,4120.4 656.2,6202.8 0,2793.9 -232.4,5655.7 -697.3,8585.5 -466.4,2929.8 -1122.6,5777.4 -1971.7,8544.4 -849.1,2765.4 -1889.4,5367.9 -3122.7,7804.5 -1231.7,2438.1 -2601,4574.2 -4107.8,6408.3 -1506.8,1835.7 -3163.8,3287.2 -4971.1,4354.4 -1807.2,1068.8 -3696.7,1603.3 -5668.3,1603.3zm0 -2136.1c2629.4,0 5053.3,-1124.2 7271.6,-3369.4 2218.3,-2245.2 4148.9,-5094.4 5791.7,-8544.4 1642.8,-3450 2917.2,-7202 3820,-11256.1 904.4,-4052.4 1355,-7886.7 1355,-11501.1 0,-2027 -177.1,-3971.8 -532.8,-5834.4 -355.8,-1862.6 -917.1,-3518 -1683.9,-4969.5 -766.8,-1451.5 -1739.2,-2616.8 -2917.2,-3492.7 -1177.9,-875.9 -2588.3,-1313.9 -4231.1,-1313.9 -1753.5,0 -3410.5,534.4 -4971.1,1601.7 -1560.6,1068.8 -3012.1,2491.9 -4354.4,4272.2 -1342.4,1780.4 -2559.8,3848.5 -3655.6,6202.8 -1095.7,2355.9 -2012.8,4820.9 -2752.7,7394.9 -740,2574.1 -1313.9,5189.3 -1725,7845.6 -411.1,2656.3 -616.6,5162.4 -616.6,7518.3 0,1971.7 164.4,3888 493.3,5750.6 328.9,1862.6 863.3,3505.4 1601.7,4930 740,1423 1698.1,2574.1 2876.1,3450 1177.9,875.9 2588.3,1315.5 4231.1,1315.5zm41408.2 -22676.6c711.5,0 1601.7,-109.1 2670.5,-328.9 1067.3,-218.2 2204.1,-629.3 3408.9,-1231.7 1204.8,-602.4 2465,-1397.7 3780.5,-2382.8 1313.9,-986.6 2574.1,-2273.7 3778.9,-3861.1 53.8,-713.1 94.9,-1424.6 123.3,-2136.1 26.9,-713.1 41.1,-1451.5 41.1,-2218.3 0,-2191.4 -246.7,-4231.1 -740,-6122.1 -493.3,-1889.4 -1219.1,-3532.2 -2177.2,-4928.4 -958.2,-1397.7 -2121.9,-2479.2 -3491.1,-3246.1 -1369.3,-766.8 -2903,-1149.5 -4601.1,-1149.5 -1753.5,0 -3423.1,423.7 -5012.2,1272.8 -1587.5,849.1 -2997.8,1971.7 -4231.1,3369.4 -1231.7,1396.1 -2218.3,3038.9 -2958.3,4928.4 -738.4,1889.4 -1108.4,3848.5 -1108.4,5875.5 0,3723.6 890.2,6681.9 2670.5,8873.3 1780.4,2189.9 4395.5,3285.6 7845.6,3285.6zm-15281.6 17253.3c986.6,1807.2 2150.3,3163.8 3492.7,4066.7 1340.8,904.4 2970.9,1356.6 4887.3,1356.6 2465,0 4792.4,-698.9 6983.8,-2095 2191.4,-1397.7 4175.8,-3301.4 5956.1,-5711 1780.4,-2409.6 3299.8,-5271.5 4560,-8585.5 1260.2,-3314 2164.6,-6887.4 2711.6,-10721.6 -2080.8,2300.5 -4327.6,3998.7 -6737.2,5094.4 -2409.6,1095.7 -4654.8,1642.8 -6737.2,1642.8 -2027,0 -3820,-343.1 -5380.6,-1027.7 -1562.2,-684.6 -2876.1,-1628.6 -3944.9,-2833.4 -1067.3,-1204.8 -1889.4,-2643.6 -2463.4,-4313.3 -575.5,-1671.3 -863.3,-3492.7 -863.3,-5464.4 0,-2574.1 411.1,-4983.7 1231.7,-7228.9 822.2,-2246.8 1944.8,-4190 3369.4,-5834.4 1424.6,-1642.8 3094.3,-2944.1 5012.2,-3902.2 1916.3,-958.2 3970.2,-1437.2 6161.7,-1437.2 2025.4,0 3861.1,423.7 5503.9,1272.8 1642.8,849.1 3026.3,2041.2 4148.9,3574.9 1122.6,1532.1 1985.9,3340.9 2588.3,5421.7 602.4,2080.8 904.4,4354.4 904.4,6819.4 0,5367.9 -589.8,10324.8 -1767.7,14870.5 -1176.4,4545.7 -2806.5,8503.3 -4887.3,11872.7 -2082.3,3367.8 -4533.1,5997.2 -7353.8,7886.7 -2820.7,1889.4 -5873.9,2835 -9161.1,2835 -2463.4,0 -4504.6,-562.9 -6120.6,-1685.5 -1615.9,-1122.6 -2970.9,-2642.1 -4066.7,-4560l1971.7 -1313.9z"/></g></svg>