<svg xmlns="http://www.w3.org/2000/svg" xmlns:xlink="http://www.w3.org/1999/xlink" xmlns:inkscape="http://www.inkscape.org/namespaces/inkscape" version="1.1" width="2217.87" height="1000" viewBox="0 0 2217.87 1000">
<defs>
<clipPath id="clip_1">
<path transform="matrix(1,0,0,-1,0,1000)" d="M0 0H2217.87V1000H0Z"/>
</clipPath>
</defs>
<g inkscape:groupmode="layer" inkscape:label="Ebene 1">
<g clip-path="url(#clip_1)">
<path transform="matrix(1,0,0,-1,1006.259,362.19209)" d="M0 0H20.079V-75.89C20.079-81.907 21.3-86.949 23.741-91.035 26.176-95.121 29.497-98.157 33.692-100.14 37.888-102.129 42.652-103.12 47.986-103.12 53.543-103.12 58.419-102.129 62.62-100.14 66.815-98.157 70.13-95.121 72.571-91.035 75.012-86.949 76.233-81.907 76.233-75.89V0H96.312V-75.38C96.312-82.984 94.98-89.591 92.316-95.206 89.652-100.822 86.014-105.498 81.426-109.245 76.831-112.987 71.668-115.766 65.941-117.583 60.208-119.394 54.17-120.305 47.822-120.305 39.419-120.305 31.591-118.66 24.333-115.371 17.069-112.082 11.201-107.114 6.724-100.478 2.241-93.843 0-85.477 0-75.38Z" fill="#005577"/>
<path transform="matrix(1,0,0,-1,1226.2733,362.19209)" d="M0 0V-119.112H-20.584L-76.063-31.82V-119.112H-96.306V0H-75.552L-20.079-86.949V0Z" fill="#005577"/>
<path transform="matrix(1,0,0,-1,0,1000)" d="M1254.18 637.808H1274.4291V518.696H1254.18Z" fill="#005577"/>
<path transform="matrix(1,0,0,-1,1384.8706,362.19209)" d="M0 0H21.435L-22.972-119.112H-46.63L-90.873 0H-69.426L-34.713-98.524Z" fill="#005577"/>
<path transform="matrix(1,0,0,-1,1507.2117,379.0387)" d="M0 0H-61.083V-33.521H-15.309V-50.368H-61.083V-85.419H0V-102.266H-81.332V16.847H0Z" fill="#005577"/>
<path transform="matrix(1,0,0,-1,1590.4212,427.53309)" d="M0 0 32.501-53.771H9.699L-21.611 0ZM9.529 29.436C9.529 35.332 7.769 39.985 4.254 43.389 .733 46.792-4.712 48.494-12.082 48.494H-38.457V10.211H-12.082C-7.094 10.211-3.04 10.973 .088 12.509 3.204 14.039 5.557 16.251 7.147 19.144 8.731 22.038 9.529 25.465 9.529 29.436M-12.082 65.341C-2.558 65.341 5.298 63.725 11.483 60.493 17.667 57.261 22.291 52.889 25.354 47.388 28.417 41.887 29.943 35.905 29.943 29.436 29.943 25.127 29.203 20.87 27.731 16.675 26.258 12.475 23.876 8.595 20.589 5.02 17.298 1.444 12.956-1.392 7.569-3.49 2.183-5.587-4.366-6.635-12.082-6.635H-38.457V-53.771H-58.706V65.341Z" fill="#005577"/>
<path transform="matrix(1,0,0,-1,1658.1456,448.63179)" d="M0 0C.681-3.18 2.019-6.045 4.002-8.595 5.979-11.145 8.655-13.162 12-14.635 15.344-16.113 19.346-16.847 23.999-16.847 31.146-16.847 36.474-15.173 39.988-11.827 43.503-8.486 45.269-4.538 45.269 0 45.269 3.742 44.16 6.859 41.948 9.358 39.736 11.851 36.644 13.976 32.671 15.741 28.705 17.494 24.163 19.167 19.058 20.761 14.405 22.119 9.928 23.568 5.616 25.098 1.309 26.628-2.582 28.553-6.038 30.88-9.5 33.206-12.252 36.215-14.294 39.899-16.33 43.584-17.298 48.208-17.186 53.772-17.186 61.026-15.485 67.18-12.081 72.235-8.678 77.277-3.913 81.105 2.218 83.718 8.344 86.325 15.373 87.632 23.318 87.632 30.008 87.632 36.045 86.697 41.432 84.824 46.824 82.95 51.395 80.228 55.133 76.658 58.876 73.083 61.658 68.688 63.471 63.467L44.923 57.342C44.243 59.835 42.881 62.081 40.845 64.063 38.797 66.046 36.274 67.61 33.27 68.744 30.26 69.874 26.997 70.504 23.488 70.613 19.627 70.727 16.195 70.161 13.191 68.917 10.181 67.662 7.769 65.88 5.962 63.553 4.143 61.227 3.239 58.534 3.239 55.474 3.239 51.956 4.254 49.199 6.296 47.217 8.344 45.234 11.037 43.584 14.382 42.283 17.726 40.977 21.441 39.647 25.524 38.283 30.289 36.925 35.03 35.361 39.736 33.608 44.442 31.843 48.749 29.631 52.663 26.966 56.576 24.302 59.733 20.927 62.115 16.847 64.492 12.761 65.683 7.656 65.683 1.53 65.683-5.054 64.181-11.007 61.177-16.337 58.166-21.671 53.607-25.923 47.481-29.098 41.356-32.277 33.751-33.865 24.674-33.865 17.298-33.865 10.58-32.759 4.507-30.547-1.561-28.335-6.607-25.161-10.638-21.018-14.657-16.875-17.298-11.97-18.542-6.297Z" fill="#005577"/>
<path transform="matrix(1,0,0,-1,0,1000)" d="M1746.636 637.808H1766.886V518.696H1746.636Z" fill="#005577"/>
<path transform="matrix(1,0,0,-1,1788.6665,362.19209)" d="M0 0H93.589V-16.847H57.004V-119.112H36.755V-16.847H0Z" fill="#005577"/>
<path transform="matrix(1,0,0,-1,1955.4198,348.5772)" d="M0 0C-2.952 0-5.422 .991-7.405 2.98-9.388 4.962-10.38 7.426-10.38 10.377-10.38 13.328-9.388 15.798-7.405 17.781-5.422 19.763-2.952 20.76 0 20.76 2.834 20.76 5.299 19.763 7.405 17.781 9.5 15.798 10.55 13.328 10.55 10.377 10.55 7.426 9.5 4.962 7.405 2.98 5.299 .991 2.834 0 0 0M-29.608 0C-32.56 0-35.03 .991-37.013 2.98-38.997 4.962-39.988 7.426-39.988 10.377-39.988 13.328-38.997 15.798-37.013 17.781-35.03 19.763-32.56 20.76-29.608 20.76-26.774 20.76-24.333 19.763-22.291 17.781-20.25 15.798-19.228 13.328-19.228 10.377-19.228 7.426-20.25 4.962-22.291 2.98-24.333 .991-26.774 0-29.608 0M-51.049-86.955H18.377003V-103.630008H-51.049ZM-11.571-30.461H-17.697L-53.431-132.727H-74.191L-31.991-13.615H2.382L44.753-132.727H23.993Z" fill="#005577"/>
<path transform="matrix(1,0,0,-1,1999.1572,362.19209)" d="M0 0H93.589V-16.847H57.004V-119.112H36.755V-16.847H0Z" fill="#005577"/>
<path transform="matrix(1,0,0,-1,1087.937,568.0366)" d="M0 0-61.429-87.12H0V-103.966H-85.252V-88.822L-23.993-1.702H-85.252V15.145H0Z" fill="#005577"/>
<path transform="matrix(1,0,0,-1,1111.0848,552.8915)" d="M0 0H20.073V-75.89C20.073-81.905 21.294-86.951 23.735-91.035 26.17-95.119 29.491-98.158 33.692-100.141 37.888-102.13 42.646-103.122 47.98-103.122 53.543-103.122 58.419-102.13 62.614-100.141 66.809-98.158 70.13-95.119 72.572-91.035 75.012-86.951 76.233-81.905 76.233-75.89V0H96.312V-75.38C96.312-82.984 94.974-89.591 92.31-95.207 89.646-100.822 86.014-105.499 81.42-109.248 76.826-112.986 71.662-115.767 65.935-117.58 60.202-119.393 54.165-120.303 47.816-120.303 39.413-120.303 31.586-118.66 24.328-115.374 17.069-112.082 11.202-107.112 6.719-100.476 2.236-93.845 0-85.478 0-75.38Z" fill="#005577"/>
<path transform="matrix(1,0,0,-1,1285.3255,552.8915)" d="M0 0H20.249V-50.366H26.716L70.788 0H95.972L44.923-58.704 96.823-119.111H70.618L26.545-67.212H20.249V-119.111H0Z" fill="#005577"/>
<path transform="matrix(1,0,0,-1,1461.2736,539.2766)" d="M0 0C-3.057 0-5.557 .991-7.487 2.979-9.412 4.962-10.374 7.426-10.374 10.377-10.374 13.329-9.383 15.798-7.405 17.781-5.422 19.763-2.951 20.76 0 20.76 2.723 20.76 5.134 19.763 7.235 17.781 9.33 15.798 10.386 13.329 10.386 10.377 10.386 7.426 9.33 4.962 7.235 2.979 5.134 .991 2.723 0 0 0M-29.778 0C-32.73 0-35.194 .991-37.177 2.979-39.167 4.962-40.158 7.426-40.158 10.377-40.158 13.329-39.167 15.798-37.177 17.781-35.194 19.763-32.73 20.76-29.778 20.76-26.944 20.76-24.48 19.763-22.373 17.781-20.279 15.798-19.228 13.329-19.228 10.377-19.228 7.426-20.279 4.962-22.373 2.979-24.48 .991-26.944 0-29.778 0M-14.798-116.737C-7.088-116.737-.229-114.947 5.786-111.374 11.8-107.8 16.512-102.754 19.915-96.229 23.312-89.705 25.014-82.024 25.014-73.169 25.014-64.209 23.312-56.493 19.915-50.027 16.512-43.561 11.8-38.541 5.786-34.971-.229-31.396-7.088-29.608-14.798-29.608-22.52-29.608-29.385-31.396-35.394-34.971-41.402-38.541-46.143-43.561-49.599-50.027-53.067-56.493-54.792-64.209-54.792-73.169-54.792-82.024-53.067-89.705-49.599-96.229-46.143-102.754-41.402-107.8-35.394-111.374-29.385-114.947-22.52-116.737-14.798-116.737M-14.798-133.917C-23.201-133.917-31.087-132.445-38.457-129.493-45.826-126.548-52.269-122.382-57.773-116.989-63.271-111.603-67.584-105.189-70.705-97.755-73.827-90.332-75.382-82.135-75.382-73.169-75.382-64.321-73.827-56.182-70.705-48.754-67.584-41.326-63.271-34.885-57.773-29.442-52.269-23.992-45.826-19.797-38.457-16.847-31.087-13.896-23.201-12.423-14.798-12.423-6.413-12.423 1.443-13.896 8.76-16.847 16.077-19.797 22.491-23.992 27.995-29.442 33.493-34.885 37.805-41.326 40.927-48.754 44.043-56.182 45.609-64.321 45.609-73.169 45.609-82.135 44.043-90.332 40.927-97.755 37.805-105.189 33.493-111.603 27.995-116.989 22.491-122.382 16.077-126.548 8.76-129.493 1.443-132.445-6.413-133.917-14.798-133.917" fill="#005577"/>
<path transform="matrix(1,0,0,-1,1548.5671,552.8915)" d="M0 0V-102.265H53.431V-119.111H-20.25V0Z" fill="#005577"/>
<path transform="matrix(1,0,0,-1,1717.8786,552.8915)" d="M0 0V-119.111H-20.59L-76.063-31.82V-119.111H-96.312V0H-75.552L-20.079-86.951V0Z" fill="#005577"/>
<path transform="matrix(1,0,0,-1,500.0025,128.23853)" d="M0 0C-203.539 0-369.131-165.59-369.131-369.128-369.131-572.669-203.539-738.254 0-738.254 203.543-738.254 369.129-572.669 369.129-369.128 369.129-165.59 203.543 0 0 0M0-744.005C-206.711-744.005-374.881-575.837-374.881-369.128-374.881-162.421-206.711 5.75 0 5.75 206.712 5.75 374.879-162.421 374.879-369.128 374.879-575.837 206.712-744.005 0-744.005" fill="#005577"/>
<path transform="matrix(1,0,0,-1,500.0025,128.23853)" stroke-width="1.15" stroke-linecap="butt" stroke-miterlimit="10" stroke-linejoin="miter" fill="none" stroke="#005577" d="M0 0C-203.539 0-369.131-165.59-369.131-369.128-369.131-572.669-203.539-738.254 0-738.254 203.543-738.254 369.129-572.669 369.129-369.128 369.129-165.59 203.543 0 0 0ZM0-744.005C-206.711-744.005-374.881-575.837-374.881-369.128-374.881-162.421-206.711 5.75 0 5.75 206.712 5.75 374.879-162.421 374.879-369.128 374.879-575.837 206.712-744.005 0-744.005Z"/>
<path transform="matrix(1,0,0,-1,0,1000)" d="M559.425 818.065H562.57V821.21H559.425Z" fill="#005577"/>
<path transform="matrix(1,0,0,-1,594.4655,194.12598)" d="M0 0V0C.575-.442 1.203-.819 1.884-1.097V-7.346L-28.751-41.753V-48.476-71.866C-25.031-63.232-20.203-56.642-15.797-51.877-6.249-41.547 3.274-37.36 3.673-37.188L4.923-36.651 6.167-37.188C6.572-37.36 16.095-41.547 25.642-51.877 30.043-56.642 34.872-63.232 38.592-71.866V-51.117-41.796-41.753L8.174-7.584V-1.067C11.113 .177 13.179 3.089 13.179 6.484 13.179 11.011 9.506 14.68 4.982 14.68 .452 14.68-3.215 11.011-3.215 6.484-3.215 3.836-1.948 1.496 0 0" fill="#005577"/>
<path transform="matrix(1,0,0,-1,559.4244,272.30464)" d="M0 0V38.822 90.37H-56.343L0-13.526Z" fill="#005577"/>
<path transform="matrix(1,0,0,-1,366.9471,264.2998)" d="M0 0C10.958 25.843 32.431 33.005 32.722 33.096L33.671 33.397 34.62 33.096C34.91 33.005 56.384 25.843 67.343 0V21.697 28.421L36.901 62.614V69.226C37.489 69.497 38.028 69.848 38.532 70.243 40.442 71.739 41.685 74.042 41.685 76.657 41.685 81.184 38.015 84.854 33.488 84.854 28.961 84.854 25.291 81.184 25.291 76.657 25.291 73.148 27.508 70.177 30.61 69.008V62.804L0 28.421V28.378 19.55Z" fill="#005577"/>
<path transform="matrix(1,0,0,-1,476.1674,233.08032)" d="M0 0C14.564 16.644 21.805 19.411 22.882 19.748L24.302 19.892 24.775 19.748C25.852 19.411 33.097 16.644 47.669-.015L23.823 44.204Z" fill="#005577"/>
<path transform="matrix(1,0,0,-1,440.5811,181.93482)" d="M0 0V-51.548-90.278-103.915L56.21 0H.003V3.145H-3.145V0Z" fill="#005577"/>
<path transform="matrix(1,0,0,-1,327.8279,512.049)" d="M0 0C.098 .025 .196 .048 .291 .073 .196 .048 .097 .025 0 0" fill="#005577"/>
<path transform="matrix(1,0,0,-1,334.3181,509.2054)" d="M0 0C.115 .076 .231 .15 .343 .228 .232 .15 .115 .076 0 0" fill="#005577"/>
<path transform="matrix(1,0,0,-1,445.2906,168.56708)" d="M0 0C0 4.527-3.67 8.197-8.197 8.197-12.723 8.197-16.393 4.527-16.393 0-16.393-3.539-14.138-6.526-10.997-7.674V-13.368H-4.707V-7.39C-1.932-6.076 0-3.273 0 0" fill="#005577"/>
<path transform="matrix(1,0,0,-1,570.4216,168.56708)" d="M0 0C0 4.527-3.67 8.197-8.197 8.197-12.724 8.197-16.393 4.527-16.393 0-16.393-3.539-14.138-6.526-10.997-7.674V-13.368H-4.706V-7.39C-1.932-6.076 0-3.273 0 0" fill="#005577"/>
<path transform="matrix(1,0,0,-1,371.998,212.25019)" d="M0 0C0 4.526-3.67 8.196-8.197 8.196-12.724 8.196-16.394 4.526-16.394 0-16.394-3.413-14.306-6.333-11.342-7.567V-23.671H-5.051V-7.567C-2.086-6.332 0-3.412 0 0" fill="#005577"/>
<path transform="matrix(1,0,0,-1,508.222,160.79169)" d="M0 0C0 4.527-3.67 8.196-8.197 8.196-12.723 8.196-16.394 4.527-16.394 0-16.394-3.377-14.348-6.274-11.431-7.529V-21.143H-5.14V-7.593C-2.13-6.381 0-3.444 0 0" fill="#005577"/>
<path transform="matrix(1,0,0,-1,644.376,212.25019)" d="M0 0C0 4.526-3.667 8.196-8.197 8.196-12.721 8.196-16.394 4.526-16.394 0-16.394-3.413-14.305-6.333-11.342-7.567V-23.671H-5.052V-7.567C-2.083-6.332 0-3.412 0 0" fill="#005577"/>
<path transform="matrix(1,0,0,-1,534.0801,450.3064)" d="M0 0C-.063-1.128 .799-2.092 1.926-2.157 1.966-2.157 2.004-2.16 2.043-2.16 3.119-2.16 4.021-1.318 4.082-.228 4.285 3.376 3.081 6.993 2.258 9.003 6.758 13.115 5.571 20.619 5.512 20.969 5.325 22.081 4.262 22.828 3.159 22.649 2.046 22.462 1.293 21.408 1.479 20.294 1.49 20.229 2.471 13.647-1.317 11.42L-2.984 10.434-2.096 8.717C-2.073 8.671 .234 4.153 0 0" fill="#005577"/>
<path transform="matrix(1,0,0,-1,442.9276,376.16883)" d="M0 0C.467-.365 1.088-.521 1.711-.38 2.869-.119 4.412-.176 4.909-.217 6.033-.319 7.026 .512 7.126 1.633 7.227 2.763 6.397 3.748 5.278 3.853 5.031 3.874 2.811 4.06 .807 3.604-.294 3.357-.984 2.263-.735 1.162-.626 .682-.358 .28 0 0" fill="#005577"/>
<path transform="matrix(1,0,0,-1,336.9744,375.83503)" d="M0 0C-.252 .157-2.642 1.479-6.196 1.069-7.297 .943-8.115-.062-7.989-1.195-7.863-2.295-6.825-3.115-5.724-2.988-3.554-2.768-2.139-3.491-2.044-3.523-1.73-3.711-1.384-3.805-1.038-3.805-.346-3.805 .346-3.428 .724-2.799 1.29-1.824 .975-.566 0 0" fill="#005577"/>
<path transform="matrix(1,0,0,-1,609.0116,413.97669)" d="M0 0C-2.64 0-5.093-1.037-5.381-1.164-6.384-1.635-6.854-2.829-6.413-3.868-6.067-4.623-5.316-5.095-4.53-5.095-4.248-5.095-3.961-5.032-3.708-4.906-3.679-4.906-1.79-4.089 0-4.089 1.132-4.089 2.042-3.176 2.042-2.043 2.042-.912 1.132 0 0 0" fill="#005577"/>
<path transform="matrix(1,0,0,-1,539.7689,445.14643)" d="M0 0C.38-.31 .838-.463 1.293-.463 1.886-.463 2.473-.206 2.877 .289 3.629 1.207 4.881 2.11 5.299 2.384 6.246 2.994 6.52 4.26 5.908 5.207 5.294 6.158 4.033 6.426 3.085 5.821 2.878 5.686 1.014 4.466-.287 2.875-1.003 2.003-.874 .715 0 0" fill="#005577"/>
<path transform="matrix(1,0,0,-1,620.1484,414.98249)" d="M0 0C.375 0 .751 .062 1.097 .189 2.171 .566 2.705 1.73 2.359 2.799 2.013 3.744 1.068 4.278 .094 4.152-.252 4.435-1.103 5.41-1.889 7.705-2.517 9.53-3.714 10.285-4.594 10.6-6.889 11.418-9.283 10.065-9.723 9.751-10.697 9.154-10.979 7.926-10.38 6.952-9.781 6.008-8.526 5.725-7.552 6.29-6.983 6.636-6.167 6.857-5.944 6.763-5.944 6.732-5.85 6.636-5.756 6.385-5.158 4.624-3.837 1.478-1.573 .378-1.039 .126-.505 0 0 0" fill="#005577"/>
<path transform="matrix(1,0,0,-1,566.7009,781.93386)" d="M0 0V41.414L-20.642 10.662-2.155-16.881C-.751-11.483 0-5.827 0 0" fill="#005577"/>
<path transform="matrix(1,0,0,-1,562.8781,804.1781)" d="M0 0-19.451 28.986-38.91-.012-19.667-28.681C-10.801-21.077-3.936-11.213 .021 .018Z" fill="#005577"/>
<path transform="matrix(1,0,0,-1,501.8778,771.2722)" d="M0 0 19.458-28.992 38.917 0 19.458 28.992Z" fill="#005577"/>
<path transform="matrix(1,0,0,-1,543.4274,767.3527)" d="M0 0 19.395 28.898H-19.395Z" fill="#005577"/>
<path transform="matrix(1,0,0,-1,479.7866,804.18386)" d="M0 0 19.458-28.998 38.918-.006 19.459 28.992Z" fill="#005577"/>
<path transform="matrix(1,0,0,-1,504.4771,848.8194)" d="M0 0-5.233 7.798-10.429 .053C-8.59-.1-6.736-.194-4.859-.194-3.223-.194-1.607-.117 0 0" fill="#005577"/>
<path transform="matrix(1,0,0,-1,458.9435,835.2416)" d="M0 0C8.668-6.625 18.984-11.19 30.222-12.956L37.669-1.86 18.21 27.132Z" fill="#005577"/>
<path transform="matrix(1,0,0,-1,539.7988,835.61709)" d="M0 0-18.463 27.508-37.922-1.484-30.409-12.68C-19.122-11.026-8.737-6.554 0 0" fill="#005577"/>
<path transform="matrix(1,0,0,-1,499.2456,767.3468)" d="M0 0 19.394 28.892H-19.394Z" fill="#005577"/>
<path transform="matrix(1,0,0,-1,455.5466,832.4603)" d="M0 0 18.975 28.271-.484 57.263-19.475 28.969C-15.617 17.656-8.824 7.698 0 0" fill="#005577"/>
<path transform="matrix(1,0,0,-1,457.6959,771.2722)" d="M0 0 19.458-28.992 38.917 0 19.459 28.992Z" fill="#005577"/>
<path transform="matrix(1,0,0,-1,455.0643,767.3527)" d="M0 0 19.394 28.898H-19.393Z" fill="#005577"/>
<path transform="matrix(1,0,0,-1,432.482,781.8751)" d="M0 0C0-5.574 .694-10.99 1.98-16.171L19.949 10.603 0 40.329Z" fill="#005577"/>
<path transform="matrix(1,0,0,-1,260.7516,653.3084)" d="M0 0C38.066-58.107 96.759-101.499 165.695-119.73V-21.581H311.937V-119.73C380.873-101.499 439.567-58.114 477.63 0Z" fill="#005577"/>
<path transform="matrix(1,0,0,-1,258.5618,447.17073)" d="M0 0C2.925 27.584 37.02 42.524 37.366 42.65L38.656 43.217 38.594 44.632C38.467 47.117 38.907 48.91 39.789 49.696 40.134 50.011 40.543 50.136 40.858 50.199 41.644 48.847 43.059 46.519 45.042 44.003L7.266 7.108C3.46 3.397 2.076-2.075 3.648-7.17L8.241-21.577C7.077-35.259 3.366-77.594 1.73-88.981 1.416-91.214 2.737-93.353 4.875-94.076 10.568-96.026 14.437-101.342 14.563-107.349L15.475-152.261C15.569-157.33 19.721-161.385 24.785-161.385H30.95C30.95-161.508 30.981-161.667 30.981-161.796L31.359-166.326C31.39-166.607 31.422-166.918 31.422-167.206H23.936C15.726-167.206 9.09-160.534 9.09-152.36V-111.155C9.09-109.331 8.367-107.632 7.077-106.343 5.788-105.053 4.089-104.33 2.265-104.33 .063-104.33-1.95-103.48-3.46-101.907-4.969-100.335-5.756-98.259-5.661-96.088-4.749-74.701-2.39-22.583 0 0M43.343 60.736C44.821 61.711 47.148 62.089 49.193 62.215 52.936 62.466 56.238 64.794 57.78 68.254 58.629 70.109 58.849 76.117 61.522 81.338 61.774 81.841 62.057 82.345 62.34 82.816 62.781 83.508 63.284 84.199 63.819 84.83 64.07 85.112 64.322 85.363 64.573 85.616 67.121 88.163 70.833 89.956 76.274 89.956 77.689 89.956 79.167 89.83 80.803 89.578 88.069 88.478 90.522 83.917 91.277 80.143 90.082 80.803 88.855 81.244 87.912 81.589 84.829 82.69 81.936 83.257 79.388 83.257 76.463 83.257 72.563 82.534 69.354 79.325 66.177 76.147 63.724 70.487 63.724 60.673 63.724 55.452 59.635 51.237 59.604 51.206L59.384 50.985C58.598 50.891 57.78 50.861 56.993 50.861 55.012 50.861 53.125 51.112 51.741 51.363 51.269 51.457 50.828 51.552 50.482 51.647 49.822 51.804 49.444 51.897 49.444 51.897L44.569 52.778C41.267 54.288 40.417 58.818 43.343 60.736M65.671 103.258 72.952 97.825 77.805 108.141H77.806L82.659 97.825 89.94 104.949V90.028C87.674 91.877 84.861 93.112 81.432 93.636 79.64 93.92 77.91 94.045 76.274 94.045 71.896 94.045 68.431 93.098 65.671 91.579ZM91.057 72.028C90.742 71.147 90.428 69.763 90.113 68.38 87.786 69.637 84.924 69.857 84.137 69.889L82.942 69.953 82.313 68.946C81.809 68.128 79.325 64.008 79.608 60.83 79.733 59.761 80.614 58.974 81.652 58.974H81.841C82.974 59.1 83.792 60.076 83.697 61.207 83.603 62.278 84.357 64.196 85.144 65.675 86.937 65.423 88.886 64.762 89.17 63.913 89.17 63.881 89.201 63.85 89.201 63.819V63.787L88.855 61.837C88.446 59.635 87.408 57.591 85.836 55.986L82.911 52.747C82.911 52.747 81.495 49.476 80.048 49.224 79.608 49.13 79.167 49.098 78.759 49.098 78.727 49.098 78.727 49.13 78.696 49.13 75.834 49.445 74.261 50.545 74.198 50.609 73.286 51.3 72.028 51.143 71.336 50.262 70.644 49.382 70.769 48.091 71.682 47.4 71.87 47.211 73.474 46.048 76.368 45.388L76.022 43.594C76.022 43.594 75.519 42.305 73.538 42.305 71.587 42.305 68.222 43.5 62.498 48.312 62.498 48.312 67.813 53.597 67.813 60.673 67.813 66.649 68.599 79.168 79.388 79.168 81.4 79.168 83.76 78.727 86.528 77.72 90.051 76.463 92.252 75.582 91.057 72.028M47.023 48.187 48.564 47.903C49.476 47.652 53.093 46.771 56.993 46.771 57.34 46.771 57.654 46.771 57.969 46.802L59.856 45.198C65.454 40.481 69.92 38.216 73.538 38.216 77.06 38.216 79.136 40.292 79.828 42.085L79.985 42.461 80.048 42.839 80.111 43.248 87.219 39.945C87.219 39.945 85.458 37.115 80.866 35.354 79.608 34.85 78.161 34.472 76.494 34.222 75.393 34.064 74.135 33.97 72.814 33.97 70.361 33.97 67.53 34.284 64.259 35.071 56.27 37.021 50.356 43.468 47.023 48.187M18.595-77.678C18.595-79.689 16.965-81.319 14.954-81.319 12.943-81.319 11.313-79.689 11.313-77.678 11.313-75.667 14.954-66.033 14.954-66.033 14.954-66.033 18.595-75.667 18.595-77.678M94.863-4.749C92.472-5.976 90.742-7.642 90.271-9.844 90.176-10.253 90.113-10.694 90.113-11.165 90.113-13.587 91.466-15.474 93.605-16.827 97.473-19.407 103.921-20.412 109.74-20.412 113.168-20.412 116.817-20.067 120.025-19.248 119.648-20.759 118.861-22.143 117.697-23.243 115.999-24.848 113.798-25.697 111.627-25.571L96.781-23.746 83.256-22.081C82.816-17.267 83.665-12.519 85.867-8.177 86.528-6.888 87.126-5.567 87.628-4.246 89.044-.692 89.956 3.02 90.113 6.858L90.522 17.708C90.553 18.81 89.673 19.784 88.541 19.815 87.408 19.847 86.465 18.967 86.433 17.834L86.088 8.336C85.993 5.914 85.647 3.523 85.049 1.196 84.389-1.415 83.445-3.931 82.218-6.353 80.646-9.466 79.64-12.801 79.231-16.198 75.865-16.89 72.783-17.141 70.078-17.141 61.176-17.173 55.766-14.5 55.704-14.437 54.697-13.933 53.47-14.343 52.936-15.317 52.432-16.324 52.81-17.582 53.816-18.086 54.162-18.242 60.107-21.261 69.889-21.261 70.707-21.261 71.587-21.231 72.468-21.168 74.512-21.074 76.715-20.822 79.042-20.412 79.167-22.866 79.828-25.288 80.835-27.552L93.164-54.791C93.51-56.112 93.573-56.678 93.227-57.118 93.038-57.433 92.692-57.684 92.158-58.031 92-58.125 91.875-58.188 91.717-58.313L83.319-59.478C85.584-55.923 86.622-52.243 87.062-49.821 87.314-48.531 86.842-47.21 85.804-46.362 84.766-45.544 83.351-45.355 82.124-45.858L76.808-48.155C74.796-49.003 72.531-49.003 70.549-48.155L66.901-46.613C63.692-45.229 60.076-45.135 56.773-46.299L52.212-47.902C50.64-48.469 48.941-48.531 47.557-48.122L45.513-47.242C45.576-47.085 45.702-46.959 45.733-46.802 46.488-44.569 45.45-42.084 43.311-41.078 40.354-39.662 34.976-38.656 32.963-38.341L36.926-29.974C41.172-20.917 42.839-10.851 41.707-.88L40.292 11.701 46.614 17.929C47.431 18.746 47.431 20.036 46.645 20.822 46.457 21.012 46.268 21.137 46.048 21.263 45.293 21.608 44.349 21.451 43.752 20.854L23.055 .41C21.137-1.195 19.941-3.491 19.721-5.849 19.596-6.951 19.69-8.083 20.005-9.153L24.879-33.78C25.508-36.014 27.427-41.234 31.359-42.21 33.341-42.525 39.002-43.531 41.55-44.757 41.833-44.884 41.959-45.229 41.864-45.513 41.77-45.827 41.455-46.015 41.11-45.952L40.763-45.89 36.926-46.362C35.637-46.55 34.536-47.368 34.001-48.564 33.466-49.758 33.592-51.111 34.347-52.211L39.474-59.603C39.725-59.918 39.694-60.39 39.442-60.704 39.159-61.019 38.656-61.082 38.278-60.829L37.744-60.547C37.618-60.515 24.565-55.985 19.784-44.286L10.537-15.286 7.549-5.944C6.448-2.327 7.423 1.542 10.128 4.184L47.715 40.889C50.388 38.059 53.722 35.228 57.685 33.246 59.447 32.334 61.302 31.61 63.315 31.108 66.649 30.29 69.858 29.881 72.814 29.881 81.495 29.881 86.528 33.372 88.918 35.7 92.692 32.365 94.863 27.584 94.863 22.584ZM95.055-9.51C95.28-9.292 95.565-9.087 95.872-8.883 95.932-8.843 95.982-8.801 96.046-8.763 96.376-8.558 96.755-8.364 97.164-8.177 97.208-8.157 97.24-8.134 97.285-8.114 97.304-8.106 97.331-8.099 97.35-8.09 98.134-7.746 99.023-7.432 100.041-7.163 100.191-7.12 100.342-7.079 100.493-7.045 100.839-6.951 101.216-6.888 101.593-6.793 101.653-6.78 101.715-6.771 101.775-6.759 101.9-6.735 102.027-6.713 102.154-6.689 102.415-6.642 102.67-6.597 102.946-6.542 103.26-6.51 103.544-6.447 103.89-6.417 103.904-6.414 103.919-6.413 103.933-6.411 104.486-6.338 105.063-6.283 105.645-6.23 106.092-6.186 106.527-6.138 106.991-6.107V11.963H106.994V31.932C106.994 33.063 106.079 33.978 104.95 33.978 103.821 33.978 102.906 33.063 102.906 31.932V10.946H98.913V42.995H120.545V10.946H116.529V31.932C116.529 33.063 115.613 33.978 114.485 33.978 113.356 33.978 112.44 33.063 112.44 31.932V11.963H112.443V-6.099C114.155-6.2 115.745-6.403 117.216-6.675 117.368-6.703 117.522-6.728 117.67-6.758 118.242-6.872 118.778-6.999 119.3-7.135 119.544-7.199 119.782-7.264 120.014-7.332 120.442-7.458 120.846-7.59 121.23-7.731 121.501-7.83 121.749-7.934 121.997-8.04 122.31-8.174 122.614-8.309 122.885-8.453 123.13-8.582 123.334-8.718 123.544-8.854 123.763-8.997 123.989-9.137 124.168-9.287 124.343-9.435 124.463-9.589 124.597-9.743 124.733-9.898 124.893-10.048 124.985-10.209 125.075-10.366 125.088-10.532 125.134-10.694 125.178-10.852 125.278-11.004 125.278-11.165 125.278-11.489 125.153-11.803 124.975-12.112 124.929-12.194 124.863-12.273 124.805-12.355 124.651-12.566 124.462-12.768 124.234-12.966 124.115-13.071 124.006-13.176 123.867-13.278 123.62-13.456 123.332-13.624 123.031-13.788 122.749-13.945 122.45-14.096 122.12-14.243 122.093-14.254 122.064-14.268 122.038-14.28 121.98-14.306 121.91-14.326 121.849-14.351 121.358-14.556 120.844-14.753 120.265-14.93 120.225-14.944 120.192-14.956 120.151-14.971 120.062-14.993 119.964-15.015 119.874-15.036 118.843-15.334 117.707-15.587 116.465-15.787 116.411-15.797 116.368-15.811 116.314-15.82 116.286-15.825 116.254-15.826 116.226-15.83 115.449-15.95 114.633-16.04 113.793-16.115 113.53-16.14 113.282-16.175 113.014-16.196 112.408-16.239 111.772-16.249 111.142-16.268 110.671-16.284 110.224-16.324 109.74-16.324 106.519-16.324 103.528-15.996 101.048-15.437 96.914-14.511 94.196-12.945 94.196-11.166 94.196-11.049 94.265-10.938 94.289-10.823 94.325-10.651 94.34-10.479 94.428-10.312 94.534-10.102 94.714-9.903 94.894-9.703 94.953-9.639 94.989-9.572 95.055-9.51M102.344 50.032C104.472 52.609 105.494 55.706 105.99 58.045 107.131 57.515 108.389 57.198 109.729 57.198 111.113 57.198 112.409 57.541 113.58 58.107 113.883 56.884 114.345 55.438 115.044 53.942 115.603 52.745 116.313 51.517 117.217 50.345 118.12 49.172 119.215 48.056 120.544 47.084H98.913C100.294 47.897 101.422 48.915 102.344 50.032M104.986 67.103C105.051 67.418 105.146 67.722 105.268 68.012 105.513 68.592 105.867 69.113 106.306 69.551 107.182 70.427 108.392 70.968 109.729 70.968 111.066 70.968 112.276 70.427 113.152 69.551 113.59 69.113 113.944 68.592 114.19 68.012 114.312 67.722 114.407 67.418 114.472 67.103 114.536 66.788 114.57 66.461 114.57 66.127 114.57 64.791 114.028 63.58 113.152 62.704 112.276 61.828 111.066 61.287 109.729 61.287 109.06 61.287 108.423 61.422 107.844 61.667 107.265 61.913 106.743 62.266 106.306 62.704 105.429 63.58 104.888 64.791 104.888 66.127 104.888 66.461 104.922 66.788 104.986 67.103M132.834-188.189C137.231-186.669 145.507-185.208 148.199-181.194 150.157-178.278 151.429-174.939 151.997-171.454 155.568-172.545 159.876-173.519 164.621-174.329 164.132-177.627 163.966-180.971 164.208-184.316L164.619-189.984C164.92-194.115 161.477-197.477 157.643-196.796L154.701-196.274C150.928-195.605 144.597-195.277 140.838-196.104L133.265-196.984C130.42-197.113 127.573-196.802 124.825-196.051 122.322-195.371 122.205-191.862 124.657-191.017ZM137.23-1.781C139.369 3.786 146.509 22.438 152.862 32.377 153.145 31.621 153.554 30.899 154.089 30.301 153.397 23.004 151.762 18.852 150.503 18.066L148.081 16.525 150.315 14.701C150.346 14.701 153.145 12.342 154.214 5.358 150.944 3.566 148.836 .106 148.836-3.762 148.836-7.38 150.724-10.714 153.743-12.601V-26.944C144.087-27.856 144.087-30.687 144.087-31.662 144.087-32.291 144.307-32.857 144.716-33.359 144.873-33.674 145.093-33.988 145.439-34.209 145.723-34.398 146.1-34.524 146.446-34.681 146.572-34.775 146.729-34.838 146.886-34.901 147.012-34.964 147.169-35.027 147.295-35.089 150.818-36.473 156.322-36.694 159.279-36.694 160.694-36.694 162.707-36.631 164.783-36.443 165.663-36.443 166.418-36.443 166.733-36.506 169.029-36.882 169.658-36.978 170.224-38.927 170.35-39.305 170.508-39.996 170.287-40.342 170.004-40.846 168.872-41.285 166.985-41.727 158.775-43.52 145.974-41.915 139.809-39.305 129.366-34.681 134.431-9.014 137.23-1.781M157.485 32.723C156.856 33.194 156.511 33.918 156.511 34.768 156.511 36.308 157.769 37.535 159.31 37.535 160.883 37.535 162.141 36.308 162.141 34.768 162.141 33.918 161.795 33.163 161.166 32.661L160.317 31.842 160.411 30.773C160.82 25.74 161.826 19.545 164.248 16.241 162.833 14.355 160.883 10.674 160.19 4.321L160.002 2.717 161.512 2.183C163.997 1.27 165.632-1.121 165.632-3.762 165.632-6.216 164.185-8.512 161.921-9.55L160.757-10.085V-30.749L162.675-30.843C165.286-31.032 167.236-31.347 168.557-31.662 167.519-31.944 166.041-32.196 164.28-32.353 163.808-32.353 163.304-32.353 162.77-32.385 159.184-32.448 153.743-32.542 150.094-31.662 151.415-31.347 153.334-31.032 155.913-30.843L157.832-30.749V-10.085L156.636-9.55C154.34-8.481 152.925-6.28 152.925-3.762 152.925-1.058 154.623 1.333 157.108 2.183L158.65 2.748 158.492 4.353C157.8 10.706 155.818 14.355 154.403 16.273 156.825 19.545 157.832 25.74 158.241 30.773L158.272 32.093ZM172.426 43.008C172.426 43.008 171.577 48.167 175.068 48.763 175.351 48.827 175.665 48.89 176.043 48.858 176.043 48.858 176.106 48.827 176.2 48.763 176.263 48.732 176.295 48.701 176.326 48.669 176.452 48.606 176.609 48.543 176.798 48.449 176.86 48.387 176.924 48.355 177.018 48.324 177.269 48.198 177.521 48.072 177.804 47.946 177.899 47.883 177.962 47.853 178.025 47.82 178.402 47.663 178.842 47.475 179.314 47.285 179.44 47.254 179.565 47.223 179.692 47.16 180.069 47.034 180.446 46.907 180.855 46.751 181.044 46.72 181.232 46.656 181.421 46.594 181.83 46.468 182.302 46.374 182.774 46.247 182.931 46.217 183.088 46.153 183.277 46.121 183.937 45.996 184.598 45.87 185.29 45.808 185.416 45.776 185.573 45.776 185.699 45.776 186.265 45.713 186.863 45.682 187.46 45.682 187.555 45.649 187.68 45.649 187.775 45.649 188.089 45.649 188.373 45.649 188.687 45.682H189.001C189.599 45.713 190.165 45.776 190.763 45.87 190.921 45.902 191.046 45.933 191.203 45.965 191.675 46.06 192.178 46.153 192.65 46.28 192.808 46.311 192.965 46.342 193.122 46.405 193.719 46.562 194.348 46.783 194.946 47.034 195.072 47.066 195.166 47.128 195.261 47.191 195.795 47.411 196.33 47.663 196.834 47.946 197.022 48.04 197.18 48.135 197.337 48.23 197.966 48.576 198.595 48.984 199.224 49.425 199.224 49.425 199.224 49.392 199.287 49.299 199.318 49.236 199.381 49.173 199.444 49.078 199.476 49.015 199.507 48.953 199.57 48.89 199.633 48.763 199.727 48.669 199.821 48.513 199.947 48.324 200.105 48.135 200.262 47.946 201.488 46.374 203.722 44.077 206.521 43.795 207.245 43.732 208.094 43.668 209.069 43.668 211.616 43.668 215.013 44.109 218.976 45.996 219.071 44.329 219.102 42.725 218.819 41.184 218.222 37.849 215.58 37.252 215.265 37.189 214.164 37 213.409 35.962 213.598 34.862 213.755 33.729 214.824 32.974 215.926 33.163 216.177 33.194 221.681 34.17 222.845 40.429 223.254 42.599 223.128 44.612 223.034 46.594 222.908 49.456 222.751 51.909 224.135 54.331 225.959 57.508 229.293 59.898 231.683 60.433 230.771 57.256 229.45 51.784 230.111 47.726 230.866 43.165 237.125 2.812 225.078-9.864 222.436-12.601 219.196-13.733 215.045-13.325 214.479-11.971 213.975-10.525 213.598-9.014 213.692-9.014 213.786-9.047 213.881-9.047 215.422-9.047 217.278-8.733 219.165-7.694 223.286-5.43 226.053-.586 227.406 6.711 227.626 7.812 226.903 8.882 225.771 9.071 224.701 9.29 223.6 8.567 223.38 7.435 222.279 1.553 220.172-2.442 217.246-4.078 215.517-5.052 213.818-5.02 212.749-4.864 211.522 2.843 212.056 10.266 212.056 10.391 212.151 11.523 211.302 12.498 210.17 12.593 209.038 12.655 208.062 11.838 207.999 10.706 207.936 9.95 206.647-7.82 212.875-18.168 212.906-18.199 212.906-18.231 212.906-18.294 218.19-38.393 235.332-148.822 225.078-164.108 220.895-170.368 207.654-172.669 193.248-172.698L194.695-86.233C194.726-85.1 193.814-84.156 192.682-84.156H192.65C191.55-84.156 190.637-85.037 190.605-86.17L189.159-172.633C184.189-172.475 179.188-172.129 174.408-171.565L175.665-101.047C175.697-99.915 174.816-99.003 173.684-98.971H173.621C172.52-98.971 171.608-99.852 171.577-100.984L170.35-171.061C163.211-170.087 156.856-168.731 152.359-167.288 149.025-166.249 143.647-161.907 143.017-161.092 142.042-159.801 140.69-157.759 140.973-154.989 142.451-139.419 147.389-73.777 150.597-46.035 153.271-46.35 156.07-46.57 158.807-46.57 162.046-46.57 165.16-46.287 167.834-45.72 170.256-45.186 172.646-44.431 173.81-42.419 174.564-41.128 174.691-39.556 174.156-37.764 173.715-36.285 173.086-35.31 172.395-34.556 173.653-33.863 174.502-32.92 174.502-31.662 174.502-30.687 174.502-27.856 164.846-26.944V-12.601C167.834-10.714 169.721-7.349 169.721-3.762 169.721 .043 167.645 3.503 164.437 5.328 165.506 12.31 168.305 14.701 168.337 14.701L170.696 16.493 168.148 18.066C166.89 18.852 165.255 22.94 164.562 30.301 165.632 31.496 166.229 33.1 166.229 34.768 166.229 36.906 165.223 38.793 163.651 40.051 168.557 41.592 172.426 43.008 172.426 43.008M172.017 83.519C174.156 84.998 176.578 86.571 179.157 87.986H179.188C181.044 88.646 183.623 89.338 186.454 89.338 191.738 89.338 196.267 86.383 196.299 86.35L202.149 82.451C203.627 74.493 207.559 72.543 211.145 68.737 214.793 64.931 212.591 59.521 205.986 57.508 204.225 56.973 202.621 56.784 201.205 56.784 200.167 56.784 199.224 56.879 198.406 57.067 197.809 60.024 197.997 66.409 199.444 73.455 199.664 74.555 198.972 75.657 197.84 75.877 196.739 76.097 195.67 75.374 195.449 74.273 194.443 69.398 192.808 59.269 195.166 54.206 195.418 53.482 195.733 52.853 196.047 52.256 193.531 50.62 190.763 49.739 187.775 49.739 184.818 49.739 182.208 50.557 180.446 51.249 180.604 51.689 180.761 52.161 180.887 52.633 181.453 52.475 182.113 52.381 182.899 52.381 184.095 52.381 185.542 52.601 187.209 53.262 188.278 53.671 188.813 54.834 188.404 55.903 187.995 56.942 186.8 57.477 185.762 57.067 184.504 56.596 183.56 56.439 182.837 56.439 181.516 56.439 181.075 56.879 181.044 56.879 179.629 59.017 177.804 63.138 177.49 64.145 177.144 65.277 177.081 67.038 177.049 68.108 177.427 68.454 178.025 68.957 178.811 69.208 179.188 68.485 179.629 67.258 179.472 65.497 179.377 64.365 180.195 63.39 181.327 63.264 182.428 63.17 183.435 63.988 183.56 65.12 184.001 69.994 181.453 72.574 181.17 72.857L180.572 73.423H179.754C178.371 73.423 177.176 73.015 176.169 72.479L175.509 74.87C175.225 75.94 174.093 76.569 172.992 76.317 171.923 76.002 171.262 74.87 171.577 73.801L172.961 68.611C172.961 67.667 172.992 64.993 173.59 62.981 173.842 62.099 174.753 59.993 175.791 57.886 173.275 58.105 170.539 58.263 169.154 59.615 166.449 62.289 170.067 62.855 170.444 68.643 170.696 72.228 166.827 73.895 166.827 77.323 166.827 79.054 166.638 79.809 172.017 83.519M174.312 107.701 181.592 102.267 186.445 112.584H186.446L191.3 102.267 198.58 109.392V89.733C198.58 89.733 193.138 93.421 186.445 93.421 179.753 93.421 174.312 90.31 174.312 90.31ZM234.153 157.14 241.449 173.166 248.761 157.147 266.287 158.842 256.071 144.501 266.301 130.169 248.773 131.846 241.478 115.82 234.166 131.839 216.639 130.144 226.856 144.486 216.625 158.817ZM268.012 93.019C270.402 90.314 271.471 88.929 271.629 85.973 271.755 83.677 271.283 79.809 270.496 77.733 269.553 75.185 268.106 72.888 266.502 71.127 266.439 71.033 266.345 70.939 266.25 70.844 265.684 70.247 265.118 69.712 264.552 69.271 264.521 69.24 264.521 69.24 264.489 69.208 263.923 68.769 263.356 68.391 262.822 68.077 262.067 67.667 261.312 67.384 260.652 67.321 260.558 67.29 260.431 67.29 260.306 67.29 258.891 67.29 257.79 68.171 256.972 69.461 262.791 71.348 265.275 77.291 265.37 77.575 265.684 78.393 265.307 79.305 264.489 79.619 263.703 79.934 262.791 79.556 262.445 78.739 262.445 78.707 261.469 76.443 259.456 74.555L258.859 74.052C257.947 73.329 256.877 72.731 255.619 72.385 255.525 72.7 255.399 72.982 255.336 73.297 254.959 74.588 254.739 75.845 254.581 76.915 254.519 77.323 254.456 77.7 254.424 78.015V78.079C254.361 78.393 254.33 78.707 254.33 78.927V78.959C254.298 79.18 254.267 79.399 254.267 79.525 254.267 79.651 254.235 79.745 254.235 79.745L254.801 88.269C254.801 88.269 255.084 90.062 256.531 90.062 257.978 90.062 258.041 88.017 258.041 88.017L258.355 81.884C258.355 81.884 258.733 81.412 259.173 81.412 259.897 81.412 260.903 82.576 261.124 88.615 261.281 92.043 261.816 94.025 262.57 94.968 263.011 95.503 263.483 95.755 264.017 95.755 265.275 95.755 266.754 94.465 268.012 93.019M281.316 27.408C279.838 26.935 278.895 26.778 278.863 26.778 277.762 26.622 276.976 25.583 277.165 24.451 277.29 23.444 278.171 22.721 279.178 22.721 279.272 22.721 279.366 22.721 279.46 22.752 279.775 22.783 286.758 23.916 293.898 29.609 293.992 28.918 294.778 23.224 289.746 20.802 290.123 20.205 293.646 16.682 293.646 16.682 293.929 16.399 294.118 16.085 294.307 15.738 292.64 14.857 290.06 13.128 288.708 10.013 288.33 9.196 288.33 8.285 288.708 7.467 289.588 5.61 292.168 4.887 294.872 4.069 295.816 3.818 297.168 3.409 297.766 3.094 297.515 2.622 296.697 1.836 295.91 1.333 294.936 .703 294.652-.554 295.25-1.498 295.659-2.126 296.319-2.442 296.98-2.442 297.357-2.442 297.735-2.347 298.081-2.159 298.49-1.875 300.094-.806 301.1 .735L302.925-2.661C302.925-2.661 308.114-11.626 306.258-12.947 303.428-14.961 302.013-17.571 300.534-18.576 299.748-19.112 298.552-20.024 296.98-20.024 295.753-20.024 294.307-19.458 292.608-17.822L284.619-7.82C283.896-6.94 282.606-6.782 281.725-7.505 280.844-8.197 280.719-9.487 281.411-10.368L286.758-17.036C284.934-16.878 282.26-16.281 278.832-14.457 275.214-12.539 271.062-11.847 267.351-11.752 267.319-11.72 267.288-11.689 267.257-11.689 263.797-10.745 264.249-5.946 264.438-4.658 265.067-.6 264.438 .438 261.985 .438 258.462 .438 257.884 8.285 258.45 13.222 259.142 19.293 264.709 28.445 276.064 28.445 277.542 28.445 279.335 27.911 281.316 27.408M296.697 9.133C297.42 8.63 297.986 7.969 298.427 7.215 297.704 7.498 296.917 7.75 296.005 8.001 295.061 8.285 293.614 8.693 292.796 9.071 293.237 9.794 293.772 10.36 294.307 10.832ZM316.638-35.939C323.526-35.939 327.49-37.543 328.37-38.393 327.49-39.242 323.526-40.846 316.638-40.846 309.75-40.846 305.818-39.242 304.938-38.393 305.818-37.543 309.75-35.939 316.638-35.939M327.899 50.494 333.903 47.632C332.143 45.022 330.981 42.002 331.204 39.203 331.392 37.064 332.46 35.302 334.155 34.139L334.501 33.037 334.63 32.692 334.789 32.346C335.857 30.27 337.206 27.816 338.245 26.086 331.544 30.27 327.112 37.127 327.112 44.926 327.112 46.846 327.395 48.701 327.899 50.494M335.035 61.503 340.322 53.765C339.6 53.325 338.908 52.884 338.28 52.381 337.711 51.941 337.148 51.437 336.614 50.902L329.379 54.331C330.758 57.036 332.677 59.458 335.035 61.503M353.501 68.108C368.064 68.108 379.888 57.729 379.888 44.926 379.888 39.141 377.435 33.886 373.445 29.829 374.073 31.307 374.513 32.974 374.636 34.799 374.824 37.158 374.542 39.737 373.85 42.253 373.821 42.442 373.785 42.599 373.756 42.757 373.727 42.819 373.692 42.914 373.662 42.976 373.41 43.921 373.064 44.832 372.653 45.713 372.624 45.808 372.624 45.87 372.594 45.933 370.893 49.676 368.282 52.948 364.79 54.677 364.638 54.741 364.444 54.803 364.292 54.898 361.205 56.69 357.655 57.729 353.912 57.729 351.899 57.729 349.822 57.445 347.809 56.879 347.399 56.753 347.023 56.627 346.612 56.47 345.732 56.219 344.852 55.936 344.036 55.59L338.339 63.893C342.652 66.535 347.874 68.108 353.501 68.108M389.575 119.785C409.49 125.478 429.71 115.885 434.68 98.366 437.45 88.709 434.997 78.707 428.924 70.687 423.702 79.588 418.198 81.632 414.865 82.89 414.36 83.111 413.609 83.362 413.387 83.488L413.357 83.519 413.105 84.369 409.08 97.957 407.349 103.838 402.602 99.969 397.755 96.069 393.102 100 388.983 103.461 386.747 98.554 383.978 92.484 377.846 92.83 371.967 93.208 373.692 87.577 377.312 75.719 378.286 72.479C379.102 68.643 381.619 61.157 382.657 58.168L382.564 57.854C382.499 57.634 382.44 57.414 382.376 57.193 381.601 57.48 380.868 57.832 380.123 58.167 377.001 63.161 372.178 67.173 366.369 69.609 364.708 72.096 363.376 74.814 362.525 77.795 357.526 95.315 369.637 114.123 389.575 119.785M385.11-14.425 394.487-11.752 397.567-18.514C397.438-18.545 397.344-18.608 397.25-18.671L384.606-23.673C385.55-20.653 385.709-17.476 385.11-14.425M409.866 51.469C408.892 52.035 407.63 51.689 407.096 50.683 406.938 50.399 406.844 50.116 406.844 49.803 406.562 48.984 405.207 45.902 402.948 43.259L402.285 42.536C401.499 41.718 400.618 40.995 399.644 40.429 399.55 40.397 399.457 40.397 399.357 40.366 398.887 40.272 398.383 40.209 397.913 40.209 395.866 40.209 393.888 41.215 392.691 42.976L388.161 49.707C386.495 52.193 385.709 53.357 386.336 55.967 386.372 56.187 386.43 56.439 386.495 56.69L386.747 57.571C386.964 57.602 387.217 57.602 387.44 57.729 387.469 57.729 388.601 58.232 390.362 57.696 391.465 57.382 392.597 58.011 392.914 59.081 393.26 60.15 392.627 61.313 391.559 61.629 388.666 62.477 386.589 61.786 385.838 61.471 385.362 62.886 384.799 64.584 384.259 66.346 385.679 66.566 387.123 66.881 388.572 67.258 393.319 68.454 396.593 69.083 398.418 66.944 399.955 65.182 400.589 63.453 401.217 61.786 402.003 59.678 402.848 57.477 405.271 55.778 406.058 55.212 407.032 54.709 408.258 54.299 408.95 54.08 409.584 53.891 410.147 53.734 412.759 53.01 413.545 52.79 412.946 44.548 412.729 41.561 413.199 38.101 414.49 35.082 406.973 28.634 405.019 29.734 404.99 29.734 403.857 30.457 404.11 35.333 405.4 39.926 408.827 43.543 410.717 48.04 410.904 49.267 411.028 50.116 410.623 51.06 409.866 51.469M381.214 76.915 377.594 88.772 386.524 88.238 390.456 96.887 397.726 90.754 405.178 96.793 409.173 83.237 386.401 78.079ZM410.083 79.243 411.972 79.651C414.994 78.267 420.592 77.575 426.125 67.415 426.16 67.353 426.19 67.29 426.219 67.227 427.979 63.988 428.014 58.325 429.241 52.601 430.467 46.877 434.176 46.28 433.389 40.523 433.014 37.66 430.778 35.302 428.959 33.792 425.873 32 423.297 31.59 421.343 32.723 418.233 34.547 416.69 40.02 417.007 44.266 417.758 54.143 416.314 56.219 411.374 57.634 411.344 57.634 411.28 57.665 411.251 57.665 410.746 57.823 410.177 57.98 409.614 58.168 406.562 59.238 406.028 60.653 405.054 63.233 404.362 65.056 403.511 67.321 401.528 69.618 397.913 73.801 392.409 72.448 387.563 71.222 385.961 70.812 384.453 70.467 383.068 70.31 382.786 71.316 382.534 72.196 382.376 72.982ZM382.03-32.039C382.188-34.681 380.14-37.166 377.247-37.795 374.384-38.424 369.508-38.896 362.496-37.511 360.736-37.166 359.099-33.988 358.218-29.208 357.937-27.824 358.688-26.44 359.856-26.062 360.043-26 360.231-25.968 360.419-25.968 360.8-25.968 361.24-26.125 361.774-26.629 364.761-29.491 365.641-30.089 368.129-29.743 368.44-29.68 368.851-29.616 369.385-29.585 372.371-29.459 377.406-28.956 377.406-28.956 378.063-28.925 379.982-28.925 381.085-29.869 381.654-30.372 381.965-31.063 382.03-32.039M345.45-42.167C344.535-38.958 345.228-35.53 347.275-32.888L352.398-24.396C352.715-24.175 353.032-23.955 353.284-23.703 354.381-22.666 355.543-21.722 356.646-20.81 359.322-18.608 362.056-16.344 363.945-13.262 364.697-12.067 368.692-1.53 369.291 1.584 369.508 2.717 368.786 3.786 367.654 3.974 366.557 4.195 365.483 3.472 365.266 2.371 364.761-.396 360.953-10.211 360.483-11.122 358.911-13.639 356.552-15.589 354.07-17.664 352.873-18.608 351.676-19.615 350.514-20.716 348.12-22.917 342.429-24.678 339.219-25.088 338.626-25.182 337.682-25.151 336.268-24.05 335.54-23.483 335.481-22.131 335.763-21.659 336.109-21.094 337.113-20.904 337.934-20.779 338.814-20.621 340.445-20.339 340.698-18.64 340.921-17.13 339.6-16.092 338.656-15.337 338.497-15.213 338.374-14.834 338.374-14.708 338.656-14.206 339.947-14.645 340.134-14.708L344.917-16.218C345.609-16.438 346.395-16.281 346.929-15.778 347.052-15.652 350.291-12.601 353.219-8.009 355.103-5.083 356.834-.239 357.115 2.779 357.749 9.919 362.525 11.964 362.748 12.059 363.787 12.468 364.321 13.662 363.91 14.701 363.505 15.738 362.308 16.273 361.27 15.864 360.953 15.77 353.912 12.939 353.032 3.126 352.967 2.213 352.621 .987 352.21-.302 351.993 2.56 351.113 5.894 352.339 10.329 354.099 16.556 352.591 17.626 352.433 17.688 352.433 17.72 352.398 17.72 352.398 17.72H352.087C351.899 17.752 351.647 17.783 351.33 17.814H351.142C351.019 17.846 350.825 17.877 350.673 17.909 350.544 17.94 350.385 17.971 350.233 18.002 350.104 18.002 349.98 18.066 349.851 18.097 349.634 18.129 349.411 18.192 349.194 18.254 349.1 18.286 348.971 18.318 348.877 18.349 348.596 18.443 348.343 18.506 348.062 18.633 347.932 18.663 347.809 18.726 347.715 18.758 347.399 18.883 347.117 18.978 346.8 19.135 346.36 19.324 345.92 19.545 345.45 19.795 345.415 19.827 345.415 19.827 345.386 19.827 344.946 20.079 344.57 20.393 344.253 20.708 344.13 20.834 344.036 20.959 343.907 21.085 343.749 21.306 343.561 21.526 343.403 21.745 343.28 21.966 343.186 22.186 343.092 22.438 343.027 22.564 342.963 22.69 342.904 22.815 342.775 23.161 342.681 23.477 342.616 23.79 342.212 25.583 342.493 27.156 342.493 27.156 341.801 27.911 340.199 30.868 339.219 32.692 344.095 32.974 348.026 37.252 348.249 37.472 349.006 38.321 348.907 39.611 348.091 40.366 347.24 41.121 345.955 41.058 345.198 40.209 345.169 40.178 340.604 35.238 336.766 37.284 335.857 37.787 335.382 38.51 335.288 39.549 335.035 42.379 337.459 46.594 340.792 49.173 345.45 52.758 354.035 55.401 362.971 50.998 367.689 48.669 371.081 41.561 370.582 35.146 370.394 32.754 369.449 28.54 365.23 27.219 364.826 27.093 364.603 27.125 364.544 27.156 364.321 27.345 364.069 28.194 364.039 28.854 364.039 29.987 363.124 30.899 361.991 30.899 360.859 30.899 359.95 29.987 359.95 28.854 359.95 28.288 360.073 25.394 362.121 23.853 362.684 23.444 363.535 23.035 364.697 23.035 365.23 23.035 365.8 23.13 366.463 23.318 366.68 23.381 366.903 23.507 367.12 23.602L368.786 21.368H368.821L372.06 17.09C374.038 14.449 375.235 11.272 375.487 8.001L376.086-.114C376.244-2.379 376.807-4.612 377.752-6.688L379.952-11.437C380.551-12.758 380.962-14.142 381.149-15.558 381.589-18.042 381.366-20.59 380.551-23.012 380.299-23.703 380.046-24.365 379.735-25.025 379.729-25.029 379.729-25.034 379.724-25.038 379.037-24.926 378.368-24.859 377.793-24.859 377.564-24.859 377.365-24.865 377.212-24.872L377.107-24.878 377.001-24.888C376.948-24.892 372.049-25.38 369.215-25.5 368.557-25.538 368.006-25.605 367.46-25.707 367.302-25.728 367.155-25.742 367.014-25.742 366.58-25.573 365.142-24.195 364.603-23.677 363.018-22.187 361.458-21.88 360.419-21.88 359.797-21.88 359.175-21.98 358.577-22.179 355.443-23.195 353.519-26.645 354.211-30.028 355.032-34.484 356.916-39.954 361.035-41.29 361.047-41.314 361.041-41.324 361.053-41.349 361.082-41.444 361.111-41.538 361.176-41.663 362.655-44.463 363.095-49.778 361.774-52.641 360.137-56.226 358.095-60.629 358.095-60.693 358.095-60.693 358.125-60.787 358.154-60.912 358.377-61.636 359.034-63.995 358.594-65.693 358.594-65.819 358.565-65.945 358.535-66.04 357.966-67.676 356.804-69.751 354.099-69.751 353.847-69.751 353.595-69.719 353.313-69.688 352.779-69.625 352.21-69.468 351.553-69.249 351.207-69.122 350.233-68.807 349.253-68.556 347.064-68.15 342.81-68.242 342.81-68.242 341.895-68.21 340.985-68.084 340.07-67.833L336.391-66.889C335.1-66.543 335.071-64.75 336.326-64.341 336.326-64.341 347.651-61.51 349.13-59.497 349.887-58.427 347.24-48.426 345.45-42.167M440.184 2.56 437.01-20.747C436.347-25.434 436.57-30.183 437.573-34.775L443.018-59.277C444.685-66.889 443.329-74.91 439.21-81.547 438.078-83.402 436.728-85.1 435.249-86.579 430.937-89.472 425.75-91.171 420.181-91.171H366.492C362.279-91.171 358.882-94.599 358.882-98.782V-98.971C358.882-103.155 362.279-106.582 366.492-106.582H372.184V-134.985H366.492C362.279-134.985 358.882-138.382 358.882-142.597V-142.755C358.882-146.968 362.279-150.366 366.492-150.366H372.184V-196.568L346.8-196.632V-162.981L340.005-169.113 334.941-173.643 331.298-166.343 329.913-163.544C330.729-136.117 333.117-99.128 339.976-83.402 341.548-79.753 344.13-76.639 347.275-74.248L349.376-72.686C349.816-72.812 352.222-73.798 354.099-73.84 357.966-73.927 360.988-71.481 362.402-67.36 362.936-65.819 362.907-64.09 362.719-62.612L394.076-47.829H394.487C428.044-47.829 434.146-14.582 434.211-14.237 434.398-13.104 433.642-12.067 432.544-11.878 431.441-11.657 430.373-12.443 430.186-13.544 429.992-14.614 426.219-35.248 407.067-41.789 407.19-41.663 407.319-41.569 407.443-41.444 416.661-32.573 415.241-16.847 414.302-6.437 414.108-4.297 413.956-2.41 413.891-.869 413.574 10.612 421.284 18.978 421.378 19.072 422.129 19.89 422.1 21.18 421.284 21.966 420.463 22.721 419.178 22.69 418.386 21.871 418.045 21.495 409.455 12.216 409.801-.995 409.866-2.598 410.024-4.58 410.241-6.813 411.092-16.438 412.412-31.001 404.614-38.487 400.02-42.921 392.568-44.526 382.44-43.205 382.217-43.174 382-43.205 381.807-43.268L377.94-42.356 378.163-41.789C383.004-40.689 386.401-36.41 386.119-31.756 386.025-30.309 385.55-29.02 384.828-27.982L399.14-22.319 406.498-20.465C407.572-20.181 408.229-19.081 407.947-17.98 407.695-16.878 406.562-16.218 405.459-16.501L401.563-17.476 395.426-3.983C392.82 1.773 392.72 8.377 395.208 14.197L401.152 28.194C401.563 27.439 402.033 26.747 402.754 26.275 403.54 25.802 404.421 25.552 405.43 25.552 408.199 25.552 411.849 27.533 416.625 31.528 417.382 30.616 418.233 29.797 419.272 29.2 420.434 28.508 421.941 27.974 423.86 27.974 425.274 27.974 426.911 28.319 428.766 29.106L435.12 20.614C439.022 15.455 440.812 9.008 440.184 2.56M448.211 46.491C448.211 49.486 450.007 52.054 452.571 53.206L454.577 77.267C453.738 76.547 452.682 76.077 451.491 76.077 448.821 76.077 446.656 78.241 446.656 80.91 446.656 83.58 448.821 85.745 451.491 85.745 451.685 85.745 451.872 85.709 452.06 85.687 451.591 86.433 451.309 87.311 451.309 88.261 451.309 90.93 453.469 93.094 456.138 93.094 458.808 93.094 460.973 90.93 460.973 88.261 460.973 87.327 460.697 86.463 460.24 85.724 462.816 85.618 464.875 83.513 464.875 80.91 464.875 78.241 462.71 76.077 460.04 76.077 458.82 76.077 457.746 76.564 456.901 77.311L458.925 53.024C461.308 51.802 462.951 49.351 462.951 46.491 462.951 43.718 461.402 41.333 459.143 40.075V33.383C463.127 31.421 465.943 26.954 465.943 23.477 465.943 18.889 465.527 18.731 463.801 13.388 460.357 2.705 458.638-8.467 458.638-19.693V-41.379-95.273H459.424C461.372-95.273 462.951-96.85 462.951-98.797V-98.967C462.951-100.914 461.372-102.491 459.424-102.491H366.486C364.538-102.491 362.96-100.914 362.96-98.967V-98.797C362.96-96.85 364.538-95.273 366.486-95.273H420.169C437.315-95.273 451.239-81.416 451.315-64.271L451.421-40.833V-19.665C451.421-8.458 449.702 2.695 446.257 13.361 444.532 18.714 444.11 19.171 444.11 23.477 444.11 27.115 447.618 32.359 452.342 33.907V39.901C449.901 41.103 448.211 43.588 448.211 46.491M376.273-106.582H458.64903V-134.985H376.273ZM462.957-142.755C462.957-143.16 462.833-143.506 462.739-143.888 462.646-144.14 462.487-144.392 462.329-144.639 462.264-144.733 462.205-144.832 462.141-144.926 461.982-145.114 461.824-145.272 461.636-145.425 461.478-145.583 461.29-145.677 461.102-145.806 460.979-145.865 460.821-145.965 460.662-146.023 460.287-146.182 459.876-146.276 459.436-146.276H366.492C364.544-146.276 362.971-144.703 362.971-142.755V-142.597C362.971-140.649 364.544-139.074 366.492-139.074H459.436C459.876-139.074 460.287-139.168 460.662-139.293 460.821-139.357 460.979-139.452 461.102-139.545 461.29-139.639 461.478-139.763 461.636-139.892 461.824-140.05 461.982-140.203 462.141-140.396 462.205-140.49 462.264-140.613 462.329-140.707 462.487-140.96 462.646-141.183 462.739-141.464 462.833-141.81 462.957-142.186 462.957-142.597ZM458.65-196.568H376.274V-150.366H458.65ZM342.71-196.568H312.549V-174.241L321.608-180.279 325.571-172.287 327.647-168.168 329.69-172.287 333.686-180.279 342.71-172.129ZM286.726-196.192C287.292-195.688 287.827-195.183 288.33-194.619 299.465-182.198 296.728-155.934 296.634-154.831 296.508-153.698 295.502-152.941 294.369-153.041 293.237-153.135 292.451-154.174 292.545-155.271 292.577-155.523 295.218-180.813 285.279-191.885 282.48-195.03 278.957-196.603 274.617-196.82L271.031-196.791C258.859-195.629 256.028-186.317 253.763-178.736 253.166-176.788 252.663-175.15 252.034-173.766 250.493-170.339 248.637-166.971 245.366-164.553 248.731-163.357 251.656-162.318 253.575-161.626 255.525-161.878 257.915-162.916 260.495-165.809 268.2-174.488 274.774-178.39 275.057-178.548 275.372-178.736 275.749-178.83 276.095-178.83 276.787-178.83 277.479-178.454 277.857-177.82 278.423-176.846 278.108-175.591 277.133-175.027 277.07-174.992 270.811-171.248 263.545-163.104 261.06-160.305 258.544-158.797 256.186-158.04L257.947-136.463C257.978-134.293 252.411-119.101 252.411-119.101 248.762-109.917 245.428-100.984 246.875-89.44 247.221-86.672 247.913-84.062 248.731-81.704 251.405-85.006 255.619-88.529 261.533-88.529 262.319-88.529 263.168-88.466 264.017-88.308 273.327-86.799 279.775-79.407 282.26-76.041 286.097-78.306 290.438-80.822 294.307-83.056 294.275-83.119 294.243-83.181 294.243-83.244 294.18-83.528 289.935-110.577 278.108-117.088 277.101-117.623 276.756-118.881 277.29-119.856 277.668-120.548 278.36-120.925 279.083-120.925 279.429-120.925 279.744-120.831 280.058-120.673 289.337-115.578 294.338-100.922 296.634-91.705 296.603-91.894 296.571-92.114 296.571-92.303 296.603-92.366 296.697-93.404 296.791-95.103L296.917-97.209C297.232-105.985 296.728-124.228 287.733-133.035 286.946-133.821 286.915-135.142 287.733-135.929 288.11-136.337 288.645-136.557 289.179-136.557 289.683-136.557 290.217-136.369 290.595-135.96 297.609-129.104 300.062-117.78 300.786-108.313 302.044-109.633 303.554-110.671 305.283-111.332 314.342-114.761 318.934-124.825 315.663-133.884L301.352-185.026C299.245-190.905 294.338-194.743 286.726-196.192M306.825-66.951C307.014-66.951 307.17-66.984 307.296-66.984 307.296-66.984 312.298-67.455 315.286-67.613 315.82-67.644 316.229-67.707 316.544-67.737 319.028-68.115 319.909-67.55 322.897-64.655 323.589-63.995 324.061-63.964 324.376-63.995 325.256-64.058 326.2-64.844 326.766-65.441 326.263-69.531 324.596-75.067 322.174-75.539 315.16-76.891 310.284-76.45 307.422-75.821 304.529-75.192 302.485-72.708 302.642-70.066 302.704-69.091 303.019-68.399 303.585-67.895 304.497-67.139 305.944-66.951 306.825-66.951M319.406-55.975V-62.328C318.777-62.926 317.959-63.649 317.707-63.776 317.55-63.776 317.362-63.743 317.141-63.712 316.701-63.649 316.198-63.555 315.506-63.524 315.223-63.492 314.908-63.492 314.594-63.461V-56.068C315.065-56.101 315.537-56.132 316.041-56.132H317.267C317.99-56.132 318.714-56.068 319.406-55.975M317.267-52.043H316.041C310.631-52.043 306.101-48.205 305.032-43.079 308.083-44.337 312.36-44.934 316.638-44.934 320.915-44.934 325.194-44.337 328.246-43.079 327.206-48.205 322.677-52.043 317.267-52.043M273.547-25.811C273.674-26.032 284.525-47.955 285.625-62.548 285.72-63.618 286.601-64.436 287.67-64.436H287.827C288.96-64.341 289.809-63.365 289.714-62.234 289.588-60.473 289.306-58.617 288.96-56.729L304.434-63.146C303.302-63.398 302.044-63.869 300.975-64.75 299.528-65.977 298.71-67.707 298.552-69.782 298.27-74.438 301.698-78.746 306.542-79.816 308.208-80.162 310.001-80.351 311.857-80.445 311.386-81.578 310.631-82.552 309.561-83.276 307.579-84.534 305.095-84.597 303.05-83.402 295.124-78.809 278.768-69.31 274.428-66.731 270.937-64.655 265.559-49.527 262.885-39.43 262.57-38.361 261.438-37.701 260.369-37.983 259.268-38.298 258.639-39.4 258.922-40.499 260.085-44.809 266.156-66.543 272.352-70.255 273.61-71.009 275.906-72.33 278.706-73.966 276.347-76.985 270.842-83.087 263.388-84.283 256.94-85.288 252.663-80.54 250.524-77.299 252.883-72.362 255.399-69.28 255.399-69.28 257.506-57.516 238.478-30.875 262.728-16.533L263.923-15.873C267.792-15.652 272.887-15.903 276.913-18.042 281.757-20.653 285.5-21.188 287.796-21.188 288.519-21.188 289.085-21.156 289.526-21.094 291.035-22.068 293.142-23.39 295.061-26.471 298.804-32.512 299.653-37.953 298.961-44.4L297.766-55.943 288.457-52.107C288.268-52.043 288.079-52.011 287.89-52.011 284.462-38.613 277.573-24.71 277.196-23.987 276.692-22.949 275.466-22.572 274.46-23.043 273.453-23.546 273.045-24.804 273.547-25.811M234.168 48.387C233.57 51.941 235.081 57.665 235.992 60.559 241.685 66.189 247.347 71.033 250.964 74.021 251.09 73.423 251.216 72.826 251.405 72.196 253.481 64.774 257.381 63.201 260.306 63.201 260.558 63.201 260.809 63.201 261.06 63.233 261.847 63.327 262.602 63.547 263.325 63.799 263.105 60.024 260.337 60.118 257.569 58.451 253.921 56.281 243.352 41.436 243.667 31.119 243.981 20.802 245.082-15.086 228.224-19.615 227.28-19.867 226.337-19.961 225.424-19.961 222.216-19.961 219.26-18.64 216.963-17.508 221.336-17.413 225.047-15.809 228.035-12.695 241.182 1.112 235.426 40.617 234.168 48.387M230.897-196.444 224.732-196.38C224.512-196.38 224.323-196.321 224.103-196.321 221.996-196.163 220.077-195.218 218.662-193.804 217.215-192.384 216.271-190.5 216.083-188.359 216.083-188.359 215.013-181.599 214.636-178.8 214.164-175.497 216.649-174.804 219.323-173.86 220.738-173.355 230.96-169.711 240.239-166.373 244.61-168.197 246.592-171.595 248.322-175.432 248.825-176.565 249.298-178.108 249.832-179.898 251.342-184.932 253.543-192.138 259.456-196.697ZM193.31-196.538C188.561-196.603 184.944-196.632 183.78-196.632H174.879C174.439-196.444 174.187-196.192 174.062-195.752 173.778-194.807 174.187-193.517 174.722-192.953 176.2-191.316 177.553-191.158 180.73-190.97 181.736-190.905 182.805-190.847 184.001-190.717 193.059-189.65 195.355-187.608 197.62-184.809 197.966-184.398 198.312-183.958 198.752-183.518 200.608-181.664 203.69-179.962 206.678-180.877L210.956-182.133 212.025-188.893C212.308-191.791 213.567-194.367 215.454-196.351 208.156-196.415 199.727-196.474 193.31-196.538M93.353-62.15 93.667-61.931C93.887-61.742 94.139-61.616 94.359-61.46 96.53-60.043 98.386-58.407 97.064-53.564L84.735-26.357 97.914-27.993C101.562-44.914 104.109-89.641 104.833-152.167 104.896-156.163 103.355-159.936 100.555-162.77 98.197-165.193 95.146-166.672 91.843-167.077L95.334-124.994 97.788-113.2C98.637-109.142 98.511-104.896 97.442-100.932L93.353-66.586C93.416-64.981 93.416-63.472 93.353-62.15M111.218-196.045 110.841-196.11C109.394-196.392 107.916-196.521 106.469-196.521 105.494-196.521 104.55-196.485 103.575-196.362L95.303-195.323C94.423-195.23 93.542-195.007 92.692-194.79 90.522-194.256 88.289-193.968 86.056-193.968 85.175-193.968 84.294-194.033 83.414-194.097L80.646-194.379C80.489-194.379 80.3-194.414 80.143-194.414 76.777-194.414 74.135-191.169 74.67-187.555L75.456-182.333C76.242-177.298 76.085-172.176 74.984-167.206 74.921-166.731 74.827-166.29 74.701-165.821L73.6-161.385 73.474-160.816C70.738-149.656 70.549-138.016 72.94-126.755L75.425-115.117C76.054-112.036 75.645-108.795 74.198-106.027 71.147-100.241 68.442-94.422 66.052-88.885 65.988-80.865 65.643-73.852 65.423-69.951 71.682-69.323 76.148-67.027 79.356-64.164L88.824-62.843 92.629-95.146 93.416-101.718C94.391-105.179 94.517-108.827 93.793-112.35L91.529-123.138 91.277-124.396 88.541-157.266 87.723-167.206 87.691-167.393C87.314-172.017 88.32-176.606 90.553-180.572 92.755-184.504 100.335-186.452 104.298-188.183L111.722-191.422C113.923-192.366 113.577-195.605 111.218-196.045M51.237-167.206 52.652-161.385H69.418C69.449-161.508 69.48-161.667 69.511-161.796L70.738-166.795C70.769-166.918 70.801-167.077 70.833-167.206ZM38.027-50.355 40.638-50.01C40.952-50.042 41.267-50.01 41.581-49.978L46.173-51.96C48.595-52.683 51.174-52.621 53.596-51.772L58.157-50.136C60.485-49.318 63.001-49.413 65.297-50.355L68.945-51.928C71.934-53.187 75.393-53.187 78.413-51.897L82.847-50.01C81.4-56.395 76.746-66.02 61.837-66.02 54.099-66.02 48.06-62.843 43.531-58.818 43.374-58.251 43.154-57.684 42.776-57.213ZM63.19-197.366 60.767-197.459H60.516C59.824-197.459 59.132-197.366 58.471-197.178L48.249-194.256C45.387-192.871 42.305-192.049 39.159-191.862L36.706-191.739C33.498-191.551 31.39-188.212 32.428-184.944L33.844-180.478C35.196-176.166 35.762-171.671 35.511-167.206 35.479-166.795 35.448-166.384 35.417-165.979L35.039-161.414V-161.385C34.158-151.257 35.605-141.1 39.222-131.599L42.965-121.754C43.972-119.144 44.035-116.25 43.154-113.64 38.153-98.983 33.623-75.707 31.139-61.994 33.561-63.346 35.511-64.101 36.203-64.352 36.989-64.856 37.901-65.076 38.782-65.076 39.82-65.076 40.858-64.761 41.739-64.101L44.947-65.013C49.382-67.938 54.791-69.983 61.334-70.109 61.428-72.058 61.585-74.92 61.711-78.413 61.743-79.167 61.774-79.953 61.805-80.739 61.805-80.929 61.805-81.148 61.837-81.337 61.837-82.155 61.868-82.941 61.9-83.791V-83.822C61.932-85.71 61.963-87.69 61.963-89.735 62.057-100.806 61.554-113.545 59.415-121.849L55.577-132.04 48.438-161.385 47.023-167.206 46.551-169.125C45.607-173.085 45.828-177.269 47.243-181.042 48.627-184.756 54.98-187.49 58.22-189.568L64.29-193.405C66.052-194.537 65.297-197.307 63.19-197.366M31.077-134.441C31.077-136.453 29.447-138.082 27.436-138.082 25.425-138.082 23.795-136.453 23.795-134.441 23.795-132.43 27.436-122.795 27.436-122.795 27.436-122.795 31.077-132.43 31.077-134.441M27.917-107.317C25.905-107.317 24.275-105.687 24.275-103.676 24.275-101.665 27.917-92.03 27.917-92.03 27.917-92.03 31.558-101.665 31.558-103.676 31.558-105.687 29.928-107.317 27.917-107.317M483.517-200.305C510.608-156.685 526.286-105.239 526.286-50.104 526.286 56.603 467.639 149.516 380.874 198.433V156.723C383.837 155.489 385.926 152.566 385.926 149.152 385.926 144.622 382.253 140.95 377.723 140.95 373.199 140.95 369.525 144.622 369.525 149.152 369.525 152.439 371.468 155.254 374.261 156.562 371.215 191.93 346.823 206.444 340.885 209.471 334.953 206.446 310.497 191.897 307.498 156.426 310.152 155.067 311.986 152.337 311.986 149.152 311.986 144.622 308.314 140.95 303.785 140.95 299.255 140.95 295.583 144.622 295.583 149.152 295.583 151.141 296.311 152.942 297.492 154.356L284.911 177.684 284.91 177.683C259.021 215.929 245.043 225.401 241.444 227.375 237.866 225.39 223.802 215.838 198.031 177.786L185.823 155.134C187.428 153.637 188.446 151.52 188.446 149.152 188.446 144.622 184.774 140.95 180.245 140.95 175.715 140.95 172.043 144.622 172.043 149.152 172.043 151.89 173.397 154.298 175.459 155.787 172.868 195.473 147.401 207.504 141.996 209.616 136.643 207.527 111.457 195.654 108.582 156.583 111.395 155.283 113.358 152.455 113.358 149.152 113.358 144.622 109.686 140.95 105.156 140.95 100.627 140.95 96.955 144.622 96.955 149.152 96.955 152.566 99.043 155.489 102.009 156.723V198.953C14.76 150.168-44.276 56.965-44.276-50.104-44.276-105.238-28.593-156.685-1.503-200.305Z" fill="#005577"/>
<path transform="matrix(1,0,0,-1,472.0471,720.1999)" d="M0 0H-29.486V26.099L-20.64 16.617-14.743 28.347-8.846 16.617 0 26.099Z" fill="#005577"/>
<path transform="matrix(1,0,0,-1,513.8009,720.1999)" d="M0 0H-29.486V26.099L-20.64 16.617-14.743 28.347-8.845 16.617 0 26.099Z" fill="#005577"/>
<path transform="matrix(1,0,0,-1,555.5547,720.1999)" d="M0 0H-29.486V26.099L-20.641 16.617-14.743 28.347-8.845 16.617 0 26.099Z" fill="#005577"/>
<path transform="matrix(1,0,0,-1,277.0297,243.27252)" d="M0 0 1.01 2.998 7.393 2.799 10.079-1.249 13.256 14.878C11.579 13.72 8.902 11.056 8.462 11.056H-1.372L-6.128-5.89 4.882-17.586 13.981-13.506 14.315-7.573 17.589-7.213 22.923-14.028 9.442-19.701 7.873-29.062 10.433-30.839 11.197-27.759 25.355-22.28 29.924-10.19 20.472 2.601 11.393 .823 11.139-5.722 7.255-7.402C7.255-7.402 0-.474 0 0" fill="#005577"/>
<path transform="matrix(1,0,0,-1,270.7667,290.45283)" d="M0 0-29.798 27.326-23.362 28.074-24.648 37.775C-24.648 37.775-29.372 37.825-30.701 36.79-33.952 34.264-33.523 32.327-33.162 29.6L-32.154 20.055 .997-10.101Z" fill="#005577"/>
<path transform="matrix(1,0,0,-1,224.1186,294.99598)" d="M0 0C0 0-5.452-2.26-7.943-3.277-7.776-3.751-4.756-14.123-4.756-14.123L-4.177-14.753-.873-12.831 14.941-24.18 16.255-30.503 24.775-25.863 22.637-15.921 19-17.057 3.421-5.435 3.387-.613 9.814 3.888 11.196 .066 25.37-9.91 25.874-15.324 35.619-10.086 34.531-1.313 29.941-3.606 13.838 8.111C13.838 8.111 13.215 12.656 12.647 15.025 9.068 12.909-1.189 6.861-1.189 6.861" fill="#005577"/>
<path transform="matrix(1,0,0,-1,183.2245,361.5437)" d="M0 0 2.237-8.478C-.025-10.341-4.276-13.573-4.276-13.573L-1.104-23.573 4.709-21.493 20.923-28.706 23.407-32.523 30.333-27.095C28.934-24.333 27.72-21.642 26.27-19.084 24.973-19.864 22.476-21.371 22.476-21.371L5.767-13.647 5.034-7.989 10.88-4.984 12.117-7.018 27.282-14.13 29.052-17.557 35.825-11.277 32.824-2.393 28.395-6.416C25.655-5.058 15.195-.352 15.195-.352 15.195-.352 12.949 3.792 11.888 5.761L11.291 5.764Z" fill="#005577"/>
<path transform="matrix(1,0,0,-1,229.2387,699.87429)" d="M0 0V5.879L15.215 19.657 17.83 11.7 3.108-3.151-.134-3.832V-14.546L8.316-12.422V-8.602L22.73 6.736 27.153 7.235C25.461 12.486 23.931 17.679 22.145 22.661 17.753 23.295 9 24.269 9 24.269L-5.333 12.745-8.364 13.308V-3.004L1.881-1.42C1.33-.927 .656-.54 0 0" fill="#005577"/>
<path transform="matrix(1,0,0,-1,239.9343,719.1554)" d="M0 0C0 0 0-8.99 .02-9.605H9.609L9.482-4.524 26.752 13.302 31.149 14.522 28.502 22.702 18.923 23.858 20.659 18.817 3.364 .739Z" fill="#005577"/>
<path transform="matrix(1,0,0,-1,270.3188,744.3865)" d="M0 0C14.221 17.826 15.794 19.575 15.794 19.575 15.794 19.575 18.04 20.379 19.147 20.818L9.284 33.815-.451 32.413 7.214 23.113-6.275 4.606V14.235L-16.099 14.211V.569H-1.088C-1.088 .569-.402 .194 0 0" fill="#005577"/>
<path transform="matrix(1,0,0,-1,218.986,682.0014)" d="M0 0 17.132 11.964 22.603 12.891 21.3 21.464 12.349 24.574 12.995 19.31-5.619 6.079-7.144 6.496-7.84 6.067-9.056-3.257-.006-4.829Z" fill="#005577"/>
<path transform="matrix(1,0,0,-1,203.0553,668.6758)" d="M0 0 7.295 2.153C7.295 2.153 6.432 4.729 6.079 5.815L20.874 15.18 27.58 13.284 26.188 27.067 17.324 29.162 17.374 21.646C17.374 21.646 7.53 14.921 3.216 12.48 1.873 15.309-.617 20.93-.617 20.93L-7.913 19.187-3.539 8.185-14.216 1.479-5.039-1.549-.666 1.144Z" fill="#005577"/>
<path transform="matrix(1,0,0,-1,178.9591,638.64517)" d="M0 0 3.141 2.318 6.086 16.975 25.635 24.691 25.665 31.826 36.127 28.083 34.362 18.542 41.47 16.242 42.754 2.071 35.969 3.022 23.263-4.665 14.949-1.115 32.989 10.257 30.4 17.057C24.695 14.745 12.88 10.169 12.88 10.169L12.155 .135 13.839-4.489Z" fill="#005577"/>
<path transform="matrix(1,0,0,-1,178.1818,613.32046)" d="M0 0-.481 1.338-5.02-.581-13.854 3.738-2.294 8.596-5.098 19.704-3.981 20.373 2.393 20.725C2.393 20.725 4.177 14.523 5 11.512 9.824 13.631 19.942 18.026 20.04 18.196 20.629 20.672 21.726 25.924 21.726 25.924L29.815 22.244 29.197 8.69 22.726 11.524 6.794 4.459 7.657 .992Z" fill="#005577"/>
<path transform="matrix(1,0,0,-1,203.2039,574.48208)" d="M0 0-7.991 6.007-8.795 .786-29.404-5.9-31.972-4.554-36.228-13.325-27.895-17.808-25.931-13.396-6.498-7.386-1.527-8.637" fill="#005577"/>
<path transform="matrix(1,0,0,-1,156.1028,557.3263)" d="M0 0 11.97-12.381C16.922-10.647 26.687-7.353 26.687-7.353L27.56 2.917 22.932 6.164 24.619 9.866 32.207 11.127 30.285-2.961 37.717-9.872 40.256-8.247 37.982-5.717 40.246 9.749 31.854 19.901 17.529 17.145 14.344 7.671 20.127 3.585 19.118-.786 10.058-3.725 8.049-1.518 11.269 5.096 15.559 4.979 3.715 15.853C4.029 13.463 4.715 10.491 4.715 10.018 4.715 9.533 1.411 3.143 0 0" fill="#005577"/>
<path transform="matrix(1,0,0,-1,154.0467,521.1509)" d="M0 0 8.11-7.288 14.872 1.541 6.756 8.635Z" fill="#005577"/>
<path transform="matrix(1,0,0,-1,152.3298,483.33253)" d="M0 0 10.987-13.155 33.845-12.972 37.766-15.276 40.61 .797 33.149 8.35 31.629-3.03 28.08-5.124H9.451L16.275 1.142 10.079 8.931Z" fill="#005577"/>
<path transform="matrix(1,0,0,-1,191.1931,429.3059)" d="M0 0-34.532 8.446-32.6-.473-.736-8.289C-.736-8.289 .99-12.235 1.765-14.021L7.637-3.934 3 3.85C3 3.85 1.019 1.137 0 0" fill="#005577"/>
<path transform="matrix(1,0,0,-1,192.2647,340.84309)" d="M0 0 3.559-9.161 7.705-7.428 25.328-15.991 27.55-20.885 34.295-15.244C33.599-11.928 32.148-5.324 32.148-5.324L28.001-8.586 9.627 1.017 8.519 3.72Z" fill="#005577"/>
<path transform="matrix(1,0,0,-1,261.9098,254.01453)" d="M0 0H-9.186L-8.114-10.099H-3.388C2.045-15.471 12.887-26.284 12.887-26.284L14.033-31.048 21.864-28.022V-18.194L17.37-19.911C17.37-19.911 .341-3.025 .265-2.493Z" fill="#005577"/>
<path transform="matrix(1,0,0,-1,373.3417,776.89346)" d="M0 0 6.795 3.873 4.804 6.296-4.667 1.819H-8.04L-21.108-35.03-23.521-27.161-31.697-28.54-29.717-38.844-24.266-40.986-13.226-37.659C-13.226-37.659-5.676-11.823 0 0" fill="#005577"/>
<path transform="matrix(1,0,0,-1,381.8234,795.576)" d="M0 0-9.736-5.633C-7.981-9.359-6.059-13.02-4.245-16.142-1.039-14.211 2.285-12.275 5.305-10.304Z" fill="#005577"/>
<path transform="matrix(1,0,0,-1,329.4557,803.5619)" d="M0 0-3.892 13.402 5.324 16.324C5.324 16.324 7.294 9.916 7.913 6.912L15.354 25.383C15.344 26.029 15.344 29.209 15.344 29.209L6.078 35.658 15.276 39.777 27.953 30.459 24.658 27.725 15.315 4.629 14.206 4.805Z" fill="#005577"/>
<path transform="matrix(1,0,0,-1,186.5754,459.8636)" d="M0 0-19.864 1.933-22.923 1.399-16.276 8.655 3.147 6.497ZM1.686 16.342-1.922 15.008-17.892 17.01-21.501 19.405-21.307 16.278-29.924 6.266-20.158-8.628-11.814-5.754-.117-7.143 4.313-10.744 9.98 2.315Z" fill="#005577"/>
<path transform="matrix(1,0,0,-1,220.9319,330.68153)" d="M0 0-13.383 6.821-13.599 9.764-.235 6.821 .039 5.248ZM15.338 5.263 7.426-4.352C6.259-3.592 5.044-2.828 3.936-2.09V12.099L.622 15.635-14.771 16.862-17.084 15.163-13.86 2.781C-13.83 1.517-13.938-1.552-13.938-1.552L4.67-11.83 4.956-14.293 7.633-15.881 18.907-4.561Z" fill="#005577"/>
<path transform="matrix(1,0,0,-1,194.8712,411.01124)" d="M0 0-19.001 5.84H-22.589L-14.893 11.917 4.186 5.501ZM4.676 15.551 1.304 14.791-14.173 19.964-17.619 23.436-18.107 19.781-28.364 12.035-21.491-4.608-12.962-3.267-1.154-6.839 2.364-11.535 10.148 .371Z" fill="#005577"/>
<path transform="matrix(1,0,0,-1,314.9853,784.9498)" d="M0 0-2.902 .024-.06 14.37H6.166ZM8.481 36.497-.117 33.522 10.383 23.125C9.52 21.447 8.637 19.721 7.793 17.938H-6.373L-8.85 15.432-9.912-1.872C-9.383-2.863-8.678-3.831-8.108-4.629L2.607-1.15 7.187-1.162C7.187-1.162 14.628 16.87 16.667 19.763L19.108 20.379C19.305 21.575 19.834 24.093 19.834 24.093Z" fill="#005577"/>
<path transform="matrix(1,0,0,-1,661.2925,766.2554)" d="M0 0 10.051-19.569 9.3-22.285 18.201-24.797 20.22-15.69 16.083-14.335 6.982 3.292 6.777 9.33-1.174 8.984-4.882-.34Z" fill="#005577"/>
<path transform="matrix(1,0,0,-1,678.7489,755.5646)" d="M0 0 11.53-18.659 11.231-21.27 20.108-23.33 21.499-14.223 17.257-13.091 6.572 3.732 6.349 9.776-1.584 8.643-4.858-.798Z" fill="#005577"/>
<path transform="matrix(1,0,0,-1,724.4756,767.6812)" d="M0 0-.833-2.083V-3.714L1.766-1.567 2.664 5.339 1.578 6.789-14.722 9.113-27.566 26.381-19.51 30.353-7.252 14.716H-4.031V9.558C-2.822 11.73 .593 18.894 .593 19.369 .593 20.103-14.094 38.105-14.094 38.105L-13.062 42.071-28.98 36.89V32.348C-29.004 31.873-33.651 21.206-33.651 21.206L-19.087 1.543Z" fill="#005577"/>
<path transform="matrix(1,0,0,-1,736.6042,731.9529)" d="M0 0-13.337 14.2-11.407 18.665-6.789 20.244 8.009 4.553 7.857 2.934H17.122L17.662 12.709 13.355 12.287-1.796 27.901-1.907 33.147-15.244 25.595-16.189 18.207-23.001 15.784-23.7 5.827-18.489 6.719-4.77-7.651-4.307-9.799 4.764-9.963 5.105-.194Z" fill="#005577"/>
<path transform="matrix(1,0,0,-1,751.9774,673.12356)" d="M0 0 31.017-22.315 24.92-23.782 25.378-32.56 35.84-30.453 34.514-14.2 3.744 7.645 2.488 12.633 0 11.072Z" fill="#005577"/>
<path transform="matrix(1,0,0,-1,780.1306,629.3978)" d="M0 0 12.616-7.751C15.538-6.39 18.225-4.665 20.965-3.086V-2.288C20.965-2.288 19.176 2.846 19.176 3.321 19.176 3.45 22.227 6.126 22.227 6.126 22.227 6.126 30.265 2.329 30.846 1.936V-.663C28.928-1.203 25.184-2.552 25.184-2.552L21.165-.276 23.547-16.224 27.249-10.62 36.221-7.141C36.221-6.672 34.965 8.532 34.866 9.893 30.418 11.888 20.883 16.518 20.883 16.518L13.619 9.318 15.238 4.413 12.187 2.652 5.727 6.601C7.886 8.52 16.136 15.414 16.136 16.142 16.136 16.617 14.875 22.614 14.253 25.677L11.313 26.528C11.313 26.528 11.46 23.371 11.413 22.831 7.558 19.58 3.967 16.494 0 13.009Z" fill="#005577"/>
<path transform="matrix(1,0,0,-1,836.6948,464.5426)" d="M0 0-5.586-3.793-31.41-6.221-35.411-4.839-29.08-14.055-1.778-12.334 6.014-10.596 8.526-12.242 5.293-16.089 5.692-16.872 12.745-21.193 18.554-15.749V-14.886Z" fill="#005577"/>
<path transform="matrix(1,0,0,-1,840.902,453.617)" d="M0 0-5.193 2.686-.886 10.773-9.735 16.223-12.492 11.47-31.257 7.558-35.247 10.445H-35.998L-37.477-4.387-31.11-9.776-30.676-9.544-29.239 .41-14.435 2.752C-14.435 2.752-11.794 1.03-10.568 .145-12.504-1.511-15.772-4.673-15.772-4.673L-10.755-10.926 0-2.984Z" fill="#005577"/>
<path transform="matrix(1,0,0,-1,817.801,390.69709)" d="M0 0 1.232-1.803-.364-6.453-17.533-13.548-18.947-13.592V-5.989C-17.11-5.061-.376 2.255-.376 2.255L2.828 1.774 6.067 12.042-3.028 13.024-4.131 8.762-23.154 .707-26.387 1.667-26.909 1.413V-14.276C-25.266-15.274-14.464-20.875-14.012-20.875-13.56-20.875 2.57-15.097 2.57-15.097 3.433-15.657 5.351-16.834 5.351-16.834L5.885-16.586 10.544-1.462C8.514-1.031 1.707 .318 0 .685Z" fill="#005577"/>
<path transform="matrix(1,0,0,-1,799.1067,325.68403)" d="M0 0-8.549 .577-9.001-4.63-28.687-16.915-32.965-16.376-31.65-27.025-22.872-28.838-22.368-23.61-6.349-13.645-.305-15.744-1.719-23.217-4.231-23.136-20.42-33.106-24.099-32.329-24.709-32.55-23.764-43.017C-23.764-43.017-18.225-45.801-15.35-47.533H-14.364L-14.335-39.979 .463-31.368 5.914-31.148 9.494-14.444-1.056-10.078" fill="#005577"/>
<path transform="matrix(1,0,0,-1,779.9016,313.15583)" d="M0 0-16.377-13.846-20.977-10.747-21.305-6.076-3.104 9.274-2.535 8.906H-1.238L-.17 18.699-9.441 20.048-10.069 15.009-27.93 .353-34.373 .598V-.086L-28.617-14.131-21.71-15.523-20.202-25.564-10.92-27.112C-10.92-27.112-11.982-22.337-12.158-22.219L7.481-5.752 8.379-6.13 8.989-5.887 10.233 3.646 1.837 5.038 .763 4.795" fill="#005577"/>
<path transform="matrix(1,0,0,-1,725.972,268.19264)" d="M0 0 .528-3.226-5.105-8.719-10.626 4.322-19.727 5.536-21.517 3.345V2.487L-18.636 1.857-12.668-12.473-1.18-16.233 9.951-6.366 8.027 3.788 1.567 3.857C1.567 3.857-.012 6.982-.012 7.467L6.537 14.983 8.778 13.887 9.142 8.141 5.744 5.304 20.953 2.299 17.022 7.591C17.022 7.591 16.67 15.846 16.641 17.449L.411 21.334-9.864 9.313-5.475 .043C-5.475 .043-.164 .178 0 0" fill="#005577"/>
<path transform="matrix(1,0,0,-1,809.2225,360.5221)" d="M0 0-1.678-4.603-21.487-13.99-26.569-14.011V-22.876L-18.09-27.16C-17.902-27.16-17.638-26.917-17.638-26.917V-21.91L3.456-11.362 6.179-12.123 8.907-3.728V-2.541C5.797-1.537 2.934-.766 0 0" fill="#005577"/>
<path transform="matrix(1,0,0,-1,809.0406,484.39759)" d="M0 0-3.456-7.904 2.5-15.586H3.145L5.451-10.575 28.358-10.385 30.617-12.124 36.884-4.888 29.896 1.554 27.161-2.067 5.433-2.541C5.433-2.541 2.036-.766 0 0" fill="#005577"/>
<path transform="matrix(1,0,0,-1,852.0212,514.1847)" d="M0 0-6.155 7.607H-11.448L-11.307 8.956-18.424 10.898-19.487 7.057H-34.654L-39.495 12.258H-40.299L-45.363 .604C-43.544-1.759-41.39-3.895-39.577-5.827H-38.95L-35.006 .324H-19.856L-20.59-8.697-13.531-10.824-11.911 0" fill="#005577"/>
<path transform="matrix(1,0,0,-1,843.5659,546.5138)" d="M0 0 3.069 1.296-5.739 13.338-6.39 13.359-7.082 8.719-13.801-.68-30.987 3.13-29.415 10.122H-10.849L-8.608 9.414-13.279 18.193-27.725 18.405-32.607 23.028-39.947 9.518-35.47 3.853-42.288-4.035-35.188-12.996-30.711-6.641-11.694-10.872C-11.694-10.872-2.875-2.061 0 0" fill="#005577"/>
<path transform="matrix(1,0,0,-1,843.2139,581.08108)" d="M0 0V.702C-2.142 3.615-6.29 9.55-6.29 9.55L-10.21 10.521-9.247 13.33-17.016 17.135-18.243 14.154-35.341 18.161-38.38 22.703-45.345 7.877-40.17 1.155C-38.545 3.895-35.359 9.236-35.359 9.236L-20.772 5.459-23.465-2.321-15.784-7.9C-15.678-7.079-11.741 3.659-11.741 3.659" fill="#005577"/>
<path transform="matrix(1,0,0,-1,821.5974,606.3319)" d="M0 0 8.719 4.248 4.718 13.026 .211 10.984-16.934 18.342-21.024 23.89-29.643 11.677-25.935 4.254-19.862 10.415-1.056 2.664Z" fill="#005577"/>
<path transform="matrix(1,0,0,-1,773.8932,717.2779)" d="M0 0H.651L-.481 10.327-3.826 13.531-3.274 14.329-7.857 20.595-10.626 18.471C-10.626 18.471-19.093 25.595-23.506 29.221-23.723 31.498-23.893 33.815-24.286 36.192H-25.09L-36.098 29.955C-36.098 29.456-35.376 24.545-35.153 21.816-34.995 21.599-34.983 21.399-34.772 21.188-32.888 21.816-27.766 23.5-27.766 23.5L-15.479 12.991C-17.087 11.295-21.212 6.636-21.212 6.636-21.212 6.108-16.993 0-16.993 0-16.553 0-9.283 7.874-9.283 7.874Z" fill="#005577"/>
<path transform="matrix(1,0,0,-1,657.3729,802.6526)" d="M0 0 2.957 10.357-6.988 13.079-9.84 3.192Z" fill="#005577"/>
<path transform="matrix(1,0,0,-1,646.0424,781.2648)" d="M0 0 2.863 10.345-6.777 13.419-9.74 3.192Z" fill="#005577"/>
<path transform="matrix(1,0,0,-1,827.9111,421.52943)" d="M0 0-8.514-4.874-12.815-.515 .264 3.602 2.423 2.258ZM1.297 5.856-3.233 10.545-4.9 9.747-22.949 4.378-25.472 5.911-28.969 3.893-30.042-12.196-22.444-17.569H-21.793V-3.171L-17.392-1.6-7.176-12.196-3.761-12.384 9.417-1.113 9.682 .728Z" fill="#005577"/>
<path transform="matrix(1,0,0,-1,177.7792,518.6485)" d="M0 0 8.11-7.287 14.872 1.541 6.757 8.635Z" fill="#005577"/>
<path transform="matrix(1,0,0,-1,291.1463,758.1519)" d="M0 0-10.93-2.658C-10.297-6.725-9.488-10.779-8.629-14.288-5.009-13.343-1.273-12.422 2.18-11.383Z" fill="#005577"/>
<path transform="matrix(1,0,0,-1,304.8367,735.7494)" d="M0 0-10.929-2.652C-10.297-6.718-9.488-10.773-8.629-14.282-5.009-13.337-1.273-12.416 2.18-11.377Z" fill="#005577"/>
<path transform="matrix(1,0,0,-1,788.3101,657.9321)" d="M0 0 2.934-10.855C6.982-10.122 11.014-9.206 14.499-8.256 13.466-4.665 12.445-.951 11.319 2.47Z" fill="#005577"/>
<path transform="matrix(1,0,0,-1,767.5327,645.86819)" d="M0 0 2.981-10.844C7.029-10.092 11.055-9.159 14.534-8.191 13.484-4.606 12.451-.898 11.307 2.523Z" fill="#005577"/>
<path transform="matrix(1,0,0,-1,752.1241,284.4167)" d="M0 0 9.734 .862C9.717 4.439 9.547 8.028 9.265 11.153 6.032 10.812 2.705 10.506-.399 10.063Z" fill="#005577"/>
<path transform="matrix(1,0,0,-1,734.392,302.5453)" d="M0 0 9.764 .47C9.887 4.045 9.864 7.637 9.705 10.771 6.466 10.56 3.122 10.388 .006 10.071Z" fill="#005577"/>
<path transform="matrix(1,0,0,-1,705.1827,241.70063)" d="M0 0 9.459 2.455C8.854 5.981 8.097 9.493 7.299 12.528 4.166 11.659 .933 10.808-2.054 9.86Z" fill="#005577"/>
<path transform="matrix(1,0,0,-1,690.6837,262.5063)" d="M0 0 9.553 2.074C9.089 5.621 8.467 9.161 7.798 12.225 4.635 11.483 1.367 10.762-1.655 9.934Z" fill="#005577"/>
</g>
</g>
</svg>
