<?xml version="1.0" encoding="UTF-8"?>
<svg id="Layer_1" data-name="Layer 1" xmlns="http://www.w3.org/2000/svg" xmlns:xlink="http://www.w3.org/1999/xlink" viewBox="0 0 788.66 402.86">
  <defs>
    <style>
      .cls-1 {
        fill: url(#linear-gradient);
      }

      .cls-1, .cls-2, .cls-3, .cls-4 {
        stroke-width: 0px;
      }

      .cls-2 {
        fill: #00b4a1;
      }

      .cls-3 {
        fill: #ed3293;
      }

      .cls-4 {
        fill: #21409a;
      }
    </style>
    <linearGradient id="linear-gradient" x1="10.76" y1="262.62" x2="675.82" y2="262.62" gradientUnits="userSpaceOnUse">
      <stop offset="0" stop-color="#fff"/>
      <stop offset="0" stop-color="#fff"/>
      <stop offset="0" stop-color="#ec4397"/>
      <stop offset=".93" stop-color="#eb3492"/>
    </linearGradient>
  </defs>
  <g>
    <path class="cls-4" d="M45.12,170.53l2.68-35.64,2.67-53.1,1.7-52.25h-8.53l-7.92.12-7.56.12-28.16.85C.65,18.92,1.02,10.01,1.1,3.91c23.43.16,47.95.25,73.58.25l43.81-.12,23.43-.12c-.81,11.58-1.22,20.49-1.22,26.73-14.73-.73-28.85-1.1-42.36-1.1h-9.4l-1.45,22.3-3.51,85.79-.24,14.38c-.08,5.93-.12,12.11-.12,18.52l-18.58-.24c-2.04,0-8.68.08-19.92.24Z"/>
    <path class="cls-4" d="M176.32,170.53l3.53-57.98.97-33.69c.16-6.92.24-13.87.24-20.87,0-1.22-.08-5.08-.24-11.6,7.57.16,13.15.24,16.73.24,4.15,0,9.65-.08,16.48-.24l-.61,17.21c3.09-4.39,5.74-7.67,7.93-9.83,2.2-2.16,4.66-4.01,7.39-5.55,2.73-1.54,5.76-2.73,9.09-3.54,3.34-.81,6.75-1.22,10.25-1.22,3.25,0,6.59.41,10.01,1.22,0,7.57.37,17.17,1.1,28.81-4.8-1.3-9.16-1.95-13.06-1.95-4.72,0-8.89.71-12.51,2.14-3.62,1.42-6.88,3.58-9.77,6.47-2.89,2.89-5.27,6.45-7.14,10.68-1.55,3.42-2.69,7.85-3.42,13.31-.63,4.23-1.17,11.47-1.61,21.73-.44,10.25-.66,20.35-.66,30.27,0,3.83.12,8.63.37,14.4-6.19-.16-11.86-.24-16.99-.24s-11.09.08-18.09.24Z"/>
    <path class="cls-4" d="M298.49,170.53c1.24-12.21,2.11-22.42,2.6-30.64.83-13.02,1.55-28.03,2.17-45.04.62-17.01,1.06-33.16,1.3-48.46,7.93.16,13.87.24,17.84.24,3.64,0,9.54-.08,17.71-.24-1.1,14.16-1.99,27.67-2.65,40.53-.67,12.86-1.16,27.59-1.47,44.19-.31,16.6-.47,29.75-.47,39.43-7.42-.16-13.36-.24-17.84-.24-4.24,0-10.63.08-19.19.24ZM305.17,25.15c.32-8.38.49-14.81.49-19.29V1.95c7.4.16,13.43.24,18.07.24,6.35,0,12.25-.08,17.7-.24-.24,2.04-.41,4.35-.49,6.96l-.61,16.24c-6.19-.16-11.88-.24-17.09-.24s-11.23.08-18.07.24Z"/>
    <path class="cls-4" d="M375.12,170.53c17.11-20.71,34.48-42.25,52.11-64.63l-11.15-16.88c-3.63-5.5-8.45-12.54-14.47-21.13l-15-21.51c8.94.16,16.1.24,21.46.24,7.07,0,13.37-.08,18.9-.24,3.78,5.81,8.09,12.17,12.96,19.08l9.19,13.5,26.21-32.58c5.78.16,11.97.24,18.56.24,6.19,0,12.58-.08,19.18-.24l-20.39,25.25c-4.62,5.83-13.25,16.83-25.88,33l19.13,28.71,25.81,37.19c-7.01-.16-13.49-.24-19.44-.24-7.18,0-14.14.08-20.91.24-5.07-8.21-10.12-15.76-15.14-22.65-5.03-6.89-8.75-12.25-11.16-16.09-3.27,4.31-7.63,9.77-13.09,16.39-5.46,6.62-11.34,14.07-17.63,22.35-6.84-.16-13.03-.24-18.57-.24-6.19,0-13.07.08-20.65.24Z"/>
    <path class="cls-4" d="M554.17,170.53c1.24-12.21,2.11-22.42,2.6-30.64.83-13.02,1.55-28.03,2.17-45.04.62-17.01,1.05-33.16,1.3-48.46,7.93.16,13.87.24,17.84.24,3.64,0,9.54-.08,17.71-.24-1.1,14.16-1.99,27.67-2.65,40.53-.67,12.86-1.16,27.59-1.47,44.19-.31,16.6-.47,29.75-.47,39.43-7.42-.16-13.36-.24-17.84-.24-4.24,0-10.63.08-19.19.24ZM560.86,25.15c.32-8.38.49-14.81.49-19.29V1.95c7.4.16,13.43.24,18.07.24,6.35,0,12.25-.08,17.7-.24-.24,2.04-.41,4.35-.49,6.96l-.61,16.24c-6.19-.16-11.88-.24-17.09-.24s-11.23.08-18.07.24Z"/>
    <path class="cls-2" d="M654.37,0h76.05c17.25,0,30.96,5,41.14,15.01,10.17,10.01,15.26,21.85,15.26,35.52s-5.03,26.29-15.08,36.38c-10.05,10.09-23.74,15.14-41.08,15.14h-33.81v68.48h-42.48V0ZM696.85,31.25v39.55h19.78c17.66,0,26.49-6.59,26.49-19.78,0-7.4-2.36-12.55-7.08-15.44-4.72-2.89-12.78-4.33-24.17-4.33h-15.01Z"/>
  </g>
  <path class="cls-1" d="M675.82,225.03c-64.54,11.67-133.77,21.46-207.34,28.21-34.05,3.13-67.23,5.44-99.48,7.05-26.14,1.49-52.83,2.57-80.05,3.19-98.82,2.25-191.83-1.89-278.2-10.17,109.17,17.22,228.75,31.26,357.58,39.35,109.02,6.85,211.83,8.63,307.48,6.96-14.09-20.63-16.73-48.54,0-74.59Z"/>
  <circle class="cls-3" cx="736.2" cy="260.08" r="52.46"/>
</svg>